<mxfile host="65bd71144e">
    <diagram id="yldvcxovfB1Y7WW8462c" name="페이지-1">
        <mxGraphModel dx="1720" dy="1032" grid="1" gridSize="10" guides="1" tooltips="1" connect="1" arrows="1" fold="0" page="1" pageScale="1" pageWidth="1654" pageHeight="2336" math="0" shadow="0">
            <root>
                <mxCell id="0"/>
                <mxCell id="1" parent="0"/>
                <mxCell id="89" value="" style="whiteSpace=wrap;html=1;fontColor=#FFFFFF;dashed=1;dashPattern=8 8;" vertex="1" parent="1">
                    <mxGeometry x="90" y="210" width="620" height="500" as="geometry"/>
                </mxCell>
                <mxCell id="8" value="" style="edgeStyle=none;html=1;entryX=0.5;entryY=0;entryDx=0;entryDy=0;" parent="1" source="2" target="70" edge="1">
                    <mxGeometry relative="1" as="geometry">
                        <mxPoint x="390" y="225" as="targetPoint"/>
                    </mxGeometry>
                </mxCell>
                <mxCell id="2" value="w32 CRC_Location value&lt;br&gt;i4call Memory_CRC" style="rounded=1;whiteSpace=wrap;html=1;" parent="1" vertex="1">
                    <mxGeometry x="300" y="130" width="180" height="60" as="geometry"/>
                </mxCell>
                <mxCell id="11" value="Ext Flash &lt;br&gt;0x33333333" style="edgeStyle=elbowEdgeStyle;elbow=horizontal;endArrow=classic;html=1;curved=0;rounded=0;endSize=8;startSize=8;exitX=1;exitY=0.5;exitDx=0;exitDy=0;" parent="1" edge="1" source="70">
                    <mxGeometry width="50" height="50" relative="1" as="geometry">
                        <mxPoint x="610" y="425" as="sourcePoint"/>
                        <mxPoint x="620" y="385" as="targetPoint"/>
                        <Array as="points">
                            <mxPoint x="620" y="345"/>
                        </Array>
                    </mxGeometry>
                </mxCell>
                <mxCell id="41" value="Fault RAM 변수 저장" style="rounded=0;whiteSpace=wrap;html=1;" parent="1" vertex="1">
                    <mxGeometry x="120" y="820" width="120" height="60" as="geometry"/>
                </mxCell>
                <mxCell id="86" value="Pass" style="edgeStyle=none;html=1;fontColor=#FFFFFF;" edge="1" parent="1" source="66" target="85">
                    <mxGeometry relative="1" as="geometry"/>
                </mxCell>
                <mxCell id="66" value="CRC Result&lt;br&gt;Pass or Fail?" style="rhombus;whiteSpace=wrap;html=1;" parent="1" vertex="1">
                    <mxGeometry x="285" y="730" width="210" height="110" as="geometry"/>
                </mxCell>
                <mxCell id="73" value="Int Flash&lt;br&gt;0x22222222" style="edgeStyle=none;html=1;" parent="1" source="70" target="72" edge="1">
                    <mxGeometry relative="1" as="geometry"/>
                </mxCell>
                <mxCell id="70" value="CRC_Location&lt;br&gt;value check" style="rhombus;whiteSpace=wrap;html=1;" parent="1" vertex="1">
                    <mxGeometry x="287.5" y="245" width="205" height="100" as="geometry"/>
                </mxCell>
                <mxCell id="71" value="RAM&lt;br&gt;0x11111111" style="edgeStyle=elbowEdgeStyle;elbow=horizontal;endArrow=classic;html=1;curved=0;rounded=0;endSize=8;startSize=8;exitX=0;exitY=0.5;exitDx=0;exitDy=0;entryX=0.5;entryY=0;entryDx=0;entryDy=0;" parent="1" source="70" edge="1" target="79">
                    <mxGeometry width="50" height="50" relative="1" as="geometry">
                        <mxPoint x="205" y="424" as="sourcePoint"/>
                        <mxPoint x="180" y="425" as="targetPoint"/>
                        <Array as="points">
                            <mxPoint x="180" y="390"/>
                            <mxPoint x="70" y="339"/>
                        </Array>
                    </mxGeometry>
                </mxCell>
                <mxCell id="80" value="" style="edgeStyle=none;html=1;fontColor=#f20d0d;" edge="1" parent="1" source="72" target="74">
                    <mxGeometry relative="1" as="geometry"/>
                </mxCell>
                <mxCell id="72" value="Ext Flash&lt;br&gt;New F/W CRC 정보&lt;br&gt;Read하여,&lt;br&gt;RAM 변수 저장" style="rounded=0;whiteSpace=wrap;html=1;" parent="1" vertex="1">
                    <mxGeometry x="330" y="406" width="120" height="100" as="geometry"/>
                </mxCell>
                <mxCell id="84" value="return CRC Result" style="edgeStyle=none;html=1;fontColor=#FFFFFF;" edge="1" parent="1" source="74" target="66">
                    <mxGeometry relative="1" as="geometry"/>
                </mxCell>
                <mxCell id="74" value="CRC Unit Run" style="rounded=0;whiteSpace=wrap;html=1;" parent="1" vertex="1">
                    <mxGeometry x="330" y="590" width="120" height="70" as="geometry"/>
                </mxCell>
                <mxCell id="75" value="CRC_Location&amp;nbsp;&lt;br&gt;RAM : 0x1~1&amp;nbsp;&lt;br&gt;Int Flash : 0x2~2&lt;br&gt;Ext Flash : 0x3~3" style="text;strokeColor=none;align=center;fillColor=none;html=1;verticalAlign=middle;whiteSpace=wrap;rounded=0;" vertex="1" parent="1">
                    <mxGeometry x="110" y="90" width="170" height="120" as="geometry"/>
                </mxCell>
                <mxCell id="76" value="" style="shape=image;verticalLabelPosition=bottom;labelBackgroundColor=default;verticalAlign=top;aspect=fixed;imageAspect=0;image=data:image/png,iVBORw0KGgoAAAANSUhEUgAAA44AAASQCAYAAACzjBHxAAAAAXNSR0IArs4c6QAAAARnQU1BAACxjwv8YQUAAAAJcEhZcwAADsMAAA7DAcdvqGQAAP+lSURBVHhe7N0JXBTl/wfwD14hLSaoFSZmGkjeikcWpmhSqYliZifev9R/XhV4pJ1qJnZ4lJZSSmaaYV55JZ4kKqBgXuAtCiaiIggouM9/nmUWF1iWU3aBz7vX5M4zM/s8MzuzzHdn5vtYCQWIiIiIiIiI8lBJ/ZeIiIiIiIjIKAaOREREREREZBIDRyIiIiIiIjKJgSMRERERERGZxMCRiIiIiIiITGLgSERERERERCYxcCQiIiIiIiKTGDgSERERERGRSQwciYiIiIiIyCQGjkRERERERGQSA0ciIiIiIiIyiYEjERERERERmcTAkYiIiIiIiExi4EhEREREREQmMXAkIiIiIiIikxg4EhERERERkUkMHImIiIiIiMgkBo5ERERERERkEgNHIiIiIiIiMomBIxEREREREZnEwJGIiIiIiIhMYuBIREREREREJjFwJCIiIiIiIpOshEJ9TVRuRUdH48iRI4iNjcWFCxd042vXrlWnElFheHp6wtnZGfXr10fdunXRrFkz3TgRERGVXwwcqVy6ePEiDhw4gH379sHPz09XNmzYMDzxxBNwcXHBI488gjp16ujKiahw4uPj8d9//+l+iImMjMTixYt15fIYe+mll9C+fXvUq1dPV0ZERETlAwNHKjdSU1OxZ88efP/997qrifKqiJeXF55++mleDSG6z+RVfPlDzerVq7OOv1GjRqFTp06oXr26OhcRERGVVQwcqcy7du0ali9fjtGjR6Ndu3Z499130bVrV17xIDITecV/+/btmD9/PkJDQzFv3jy88cYbsLe3V+cgIiKisobJcajMklcY5YlprVq1sG3bNgQHB+tuT/X29mbQSGRG8viTx6E8HuVxKY9PeZzK41X+0ENERERlD684Upm0detWTJkyRZeYw8fHB88++6w6hYgs0T///KN73lg+Fzlx4kTdbeRERERUdjBwpDJFXq2YMGGCLhlHYGAgTz6Jyhj5DOTMmTPRsmVLfPzxx7w7gIiIqIzgrapUZsgrFi+++KLudUJCAoNGojJIHrebN2/Oei2PayIiIrJ8DBypTAgICICbm5su8c2iRYuYZIOoDJPHrzyO5fEsj2v57CMRERFZNt6qShZPnlTKjKkyyQafZSQqX+QVx/Hjx+uS6QwdOpRddxAREVkoBo5ksWTW1DFjxug6GJfPRfFZKKLySXbfIW9blc89zp07l8EjERGRBeKtqmSxvvnmGwaNRBWAPL7lcS6Pd/ljEREREVkeBo5kkeTtqWvWrGHQSFRBGAaPfOaRiIjI8vBWVbI4so/GF154AYcOHUKrVq3UUiKqCKKjo9G4cWN2t0NERGRhGDiSRdGfNG7ZsgUeHh5qKRFVJPofj6KiouDs7KyWEhERkTkxcCSLIZPhvP7662jfvj0mT56slhJRRTRjxgzd7eq7du1ishwiIiILwGccyWL4+/sjNjZWl5qfiCo2/feATJJFRERE5scrjmQR9Leo8rlGItKLiIhA69atecsqERGRBWDgSBbB19dX9++sWbN0/xIRSfK74fr161i0aJFaQkRERObAwJHM7p9//oGbmxtiYmLY9QYRZXPt2jXUqlULwcHBePbZZ9VSIiIiKm18xpHMbsmSJZg3bx6DRiLKxd7eXvf94Ofnp5YQERGROfCKI5mV/tlGPsNERHm5ePEiHB0d+T1BRERkRrziSGYl+2sbNmwYTwaJKE/ybgQfHx/d9wURERGZB684ktnIfhttbGz47BIR5Uv/LHRKSgr7dSQiIjIDXnEkszl48KDu3zZt2uj+JSLKi/57Qv+9QURERKWLgSOZjeyzcfr06bx6QET5kt8T8vtCfm8QERFR6eOtqmQ2ffr0wahRo+Dh4aGWkGVJx43oEGwJ2oGQA2dwXSvLbPBo8w54zr07urV5DNZWuhkV6Yjb8yt+3X9VHc9HjQ54c3gnOOiWT8HZLcsQ+O9NwMEdQ99whV3W+xoSSDm2Fgs2nlJeGVfN3hENn3gKrh2bwcFa/i5WnHaRpZHPOE6ZMgUHDhxQS4iIiKi0MHAks9D3zcYsiRZKJOLosqkYPGoeQuGKnq93Q0dnO9y+eBh7NqzHztP10Hv6fCz07QqHKjLKSkP0T95oPHRV5vL58fBH1KYhcJaxXUoIpnfwwJQjyYDTeKzf9SV6OVTNnC8bLW5unwKXbvNg0+UFPFv/QbVcpU3A0TV/IVx5G43751jzqw+6OYiit4ssjj67akJCgq6bDiIiIio9DBzJLCIiItC6dWtw97NEAneO/oiXn/4AZ1+Zg1Vfv42WdvcCOZF8En/NGovXPz+Obv5/YdWQJjAW5kF7Aj+91BVDt7rBPyoAQ5yt1QmGMhC/5UM8++I+vOLXEbt8VqJOnu+pDxyXoLn/dmwa4pLrXnuRdgn7l34C7xErgHGr8M/XL6JOzquHBWoXWSorKyvd7aqtWrVSS4iIiKg08Hd1MoszZ87ouuEgS3Qb5/YHYWtyY/R9u3e2oFGy0jih54hh6G93DkHb/kVccWJ/EYPtSwNxstmL6D3sVQx4JhFrF2/C4ZSivamV9WN4+u0hGNgMOLlyN/5N0t1fS+WI7JZDfn8QERFR6WLgSGaRnJwMOzs7dYwsSyVYP2gLDRIQde4K0tVSQ1YOHvh0ZyTCZ3ngYbWs8ATST+7Ab+v/Q7PXuqBFTRe8OPQlaEJWY9W++DyfY6SKrWbNmoiNjVXHiIiIqLQwcCSzOHLkCJ5++ml1jCxLNTi698dwl6tYO3Y4/uf3G4LCo3HxRtq9YM5KA8cWLeBcz84gQU5h3cThdauwNrkzhvdqDhvlP6fne+NlzV58t3gHYooSOYpbuLA1EMuOAE59OuIpW37FlTcuLi64cOGCOkZERESlhWdVRJSL1cPd8dlfgfj2FeAP3zfwfNvGcLRriHae7+LjBb9je2QMkjOKd01QXAvDKv9gaDy98GKTzEQ3Vo7PYeCwdkhevwobj93SleWWhLObf8JXs2djdrZhGnwHuKNp369w0X0CFkz1YHZUIiIiohLCwJGIjKgMTUMPjP0pCGejwxAU6A8/3+6wPboUn40agG6tmqDNW3OwO+62On9hZeBq6FasPvEIXn7dHU5V1QjP6mG0e/kFuCRvwZxf9uGa0dg0GSdX+cHXx0f3vNu94Vcce+xNLA6KRPTGyejm8IA6PxEREREVFwNHIsqblTVqO7miq9cQfPDlUuw4EYfYqL34Y3pvYOV49Bz4IyKLkshGnxQHGmQcXGFw9fAb+O+4AFtNMk6s/gt7Lxt7wtIBHv7HcVcIXVZeoU3FlYhVmOB+C7siLgGPPo5HdX04EhEREVFJ4dkVEWWXcQWRW9dizY5oJOeMCato4ODcEf0mfYOFE55B8t+rseFwojqxoATuHNuKn9b/h0ZdnkT1yyfw77//Zg1HLgCNO7tCc/JPLN500mhynmyU4LZOy374ZOEXeOXSArzWZxJ+P5OiTiQiIiKiksDAkYiyu3MaG95/C31H/YID1++qhTlY1UA958eUF0m4mZKRWVZgiTi4ZgW2JrfF4C8WY+nSpbmGgO998LLmXCG65rCCtXNfTP38bTidXIBh45fhaFrxnsEkIiIionsYOJLZyC45yALZNEWv4c9Dc2IZ5iwLw3UjSXDEzUisW7EPcOqGrs1rqqUFI66FY43yvujYCy+2eEgtzU6fJAeF6prDBg37+WDmCFckr/sCk5f8izR1ChEREREVDwNHMgvZFYfskoMsUQ20GPIp5gyyw7qxz6Ndn/cx95d12L4vFPu2b8BK/88x6Pm+8Alpho8WjEa3OlXU5QoiHXE7A/HjCTt4eHdHc5s80p7qk+SgkF1zVGmA3pMmY4TTVazzmYElR/njRHmzb98+NGvWTB0jIiKi0sLAkcxCo9EgOjpaHSNLY6VpgcEL1mBPwCQ8n7IBY7090a1je3Ts9jJeG/YLYlzfR2DwEkztVg+FCRuRfhKbAzbhuqYTBnR9EtXU4twqw/7p3hja0Q7J61dgzeGbanl+rFClfg9MmjkUTskr4TM5AJHJedxuS2WS/N6Q3x9ERERUuqyETEtIVMrkyV/jxo2RkpKC6tWrq6VkmTKQfPUqktLlV4UVqtrWRm1NocJFohJjZWWFqKgoODs7qyVERERUGhg4klmkpqbCxsaGJ4BEVGD8wYmIiMh8eKsqmYU86Rs2bJjueSUiooKQz0V7enoyaCQiIjIDBo5kNp06dcKePXvUMSIi0zZt2gQvLy91jIiIiEoTb1Uls9HfdpaQkAB7e3u1lIgot2vXrqFWrVo4dOgQWrVqpZYSERFRaeEVRzIb+WyjvO1s586dagkRkXHye6Jdu3YMGomIiMyEgSOZlbztLCAgQB0jIjJOfk+8++676hgRERGVNt6qSmalv/0sODgYzz77rFpKRHTPP//8Azc3N97WTkREZEa84khmJU8C582bBz8/P7WEiCi7tWvXYvr06QwaiYiIzIhXHMnseNWRiPISERGB1q1bs89XIiIiM+MVRzI7w6uOqampaikREfDJJ5/ovh8YNBIREZkXA0eyCG+88QZiY2N1/bQREUmrV6/WfS/I7wciIiIyL96qShZj69ateOGFFxATE4N69eqppURUEV28eBGOjo7YsmULPDw81FIiIiIyFwaOZFF8fX0RHR2N3377DdWrV1dLiagikbesjxkzBnZ2dpg1a5ZaSkRERObEW1XJonz66ae6W9O++eYbtYSIKhp5/EdGRmLixIlqCREREZkbrziSxZFXHBs3boylS5fC29tbLSWiikB29D9w4EBmUSUiIrIwDBzJIuk7/GYXHUQVB497IiIiy8VbVckiyZNGefIoTyLlySQRlW8MGomIiCwbA0eyWIbBo0zLT0Tlkzy+GTQSERFZNgaOZNH0wWO/fv0wf/58XbZFIiof5PEsj2t5fDNoJCIismwMHMniyZNJmShDJs2QKfpl/25EVLZdu3ZNdzzL4/rQoUMMGomIiCwcA0cqE2R2xc2bN+tee3l5YevWrbrXRFT2yOP3xRdf1L2Wx3WrVq10r4mIiMhyMasqlTnyeSh5a5uPjw+GDRvGlP1EZYS8W2Du3Lnw8/NDYGCg7kcgIiIiKht4xZHKHHmyGRMTo3st+3uUz0jJ296IyDLJ41Mep46OjrpxefwyaCQiIipbGDhSmVSvXj3MmjVL92zUtm3bUKtWLd2JaXR0tDoHEZmbPB7lcSmPT3mcyuNVHrfy+CUiIqKyhYEjlWny2ag1a9boTkgvXLiguwLZp08f3TNUvApJVPrkcSePP3kcyuNRHpcyY6o8TvksIxERUdnFZxypXJEnrRs2bNA9B7l27Vp4enrqbolr0aIF6tevD3t7e3VOIioJ8piTweHhw4exZ88eLF68OOu469WrF485IiKicoKBI5VbMhHHgQMHsG/fPuzcuROhoaG6cplUR3r66ad1/5JlkYmP9GQCFbI88piSZJIbPXlcyWOqffv2vBWViIioHGLgSBWGDCRTUlJw5MgR3fiJEydw48YN3WuyHDmDEbI8+h9dmjVrBhsbGwaKREREFQADRyKyKFZWVuorgF9PRERERJaByXGIiIiIiIjIJAaOREREREREZBIDRyIiIiIiIjKJgSMRERERERGZxMCRiIiIiIiITGLgSERERERERCYxcCQiIiIiIiKTGDgSERERERGRSQwciahCSU1NxT///KOOEREREVFBWAmF+pqIyOysrKzUV0BJfT1du3YNx48fx65du/Dhhx/qyvjVR0RERFRwDByJyKKUVOAog8WwsDCsWrUKixcvVkvv4VcfERERUcExcCQii1KcwPHixYs4cOAANm3aZDRYNMSvPiIiIqKCY+BIRBalsIGjDBa3b9+O1atXY+3atWpp/vjVR0RERFRwDByJyKIUJHCMiIhAcHAwAgICEBoaqpYWDr/6iIiIiAqOgSMRWRRjgaPMhHrw4EEcOnSoWMGiIX71ERERERUcA0cisiiGgaO8qmiYCZWIiAqPp3pEVBIYOBKRRTEMHImIqPh4qkdEJaGS+i8RkcWJiYnB0qVL4enpqZYQERERkTnwiiMRWZS8kuPk1y9jYfGrj4jKs4IkGiMiKgwGjkRkUQpysqMPIuVQ1Ocf+dVHROUZA0ciKmkMHInIohT2ZEefcbWwSXT41UdE5RkDRyIqaQwciciiFPdkp6B9PPKrj4jKMwaORFTSGDgSkUUpyZMdGUQePnwYq1evxtq1a9XSTPzqI6LyjIEjEZU0Bo5EZFHu18nOxYsXsX379qwgkl99RFSeMXAkopLGwJGILEppnOzI5Dr29vbqGBFR+cPAkYhKGgNHIrIoPNkhIio+fpcSUUmrpP5LREREREREZBQDRyIiIiIiIjKJgSMRERERERGZxMCRiIiIiIiITGLgSERERERERCYxcCQiIiIiIiKTGDgSERERERGRSQwciYiIiIiIyCQGjkRERERERGQSA0ciIiIiIiIyiYEjEZW6GTNmwMrKyuhgyNh0OcjliYiIiKj0MHAkolLXuXNn9VXRFHd5IiIiIiocK6FQXxMRlZr27dsjNDRUHSu4du3a4cCBA+oYEREZI+/O0OOpHhGVBF5xJCKz8Pb2Vl8VTlGXIyIiIqKiY+BIRGbh5uamviqcoi5HREREREXHwJGIzKJVq1a6204LQ84vlyMiIiKi0sXAkYjM5t1331VfFUxh5yciIiKiksHkOERkNhcvXoSjo6M6lr+YmBjUq1dPHSMiorwwOQ4RlTRecSQis5FBoKenpzpmmpyPQSMRERGReTBwJCKz8vLyUl+ZVtD5iIiIiKjk8VZVIjKrgt6uyttUiYgKjreqElFJ4xVHIjIrGQwOGzZMHTNOTmfQSERERGQ+DByJyOz69++vvjIuv+lEREREdH/xVlUiMrtr166hVq1a6lhuCQkJsLe3V8eIiCg/vFWViEoarzgSkdnJoDCv21VlOYNGIiIiIvNi4EhEFmHQoEHqq+zyKiciIiKi0sNbVYnIIqSmpsLGxkYduyclJQXVq1dXx4iIqCB4qyoRlTRecSQiiyCDw+nTp6tjmeQ4g0YiIiIi82PgSEQWo3PnzuqrTDnHiYiIiMg8eKsqEVmMnLer8jZVIqKi4a2qRFTSeMWRiCyGDBLnzZuney3/ZdBIREREZBkYOBKRRXFzc8v2LxERERGZH29VJSKL8/zzz2Pbtm3qGBERFRZvVSWiksYrjkRkEeTzjatXr0afPn0QFBSk+1eOy3IiIiIiMi8GjkRkVvqAUWZQnTlzJry9vZGQkKD7V47Lcjn92rVr6hJEREREVNp4qyoRmYUMBJcvX47Ro0fD09MTPj4+aNOmTbaEODKoPHjwIPz8/LB27Vpdwpw33ngD9vb26hxERGQMb1UlopLGK45EVKqio6Mxf/581KpVS/ccY3BwMNasWYNnn302VxZVOS7L5XQ5X2RkpG45ubx8HyIiIiIqHQwciahUyEDP19cXjRs3xoULFxAVFZUVMBaEnG/RokW65eTy8n3k+zGAJCIiIrr/GDgS0X31zz//YPjw4bpAr2bNmrrAb9asWXB2dlbnKBy5nFxevk/9+vV17ysT6ch6iIiIiOj+YOBIRPeFDORkQCf7Y2zZsqUu4c3kyZOLHDDmJN/n3Xff1b2v7L5D1qMPIJmJlYiIiKhkMTkOEZUYGbBt2rRJlw1VmjhxIrp06VIqyWxksp2dO3dmq/ull17K9dwkEVFFwOQ4RFTSGDgSUbHJoG3Dhg26pDWSOYM2ffAaEBCA2NhY3VXJXr16MRMrEVUoDByJqKQxcCSiIjPWpUZBk92UBnnbKrvyIKKKiIEjEZU0PuNIRIUmM5nOmDFD1zWGzHBq2KWGJTHsykO2U7aXmViJiIiICo+BIxEVWERERFaXGjdu3MjKkGppAWNOsn36TKySvisPuT5ERERElD8GjkSUL32G1NatW+u6wIiJiSlWlxrmou/KQ2Zilesh14ddeRBReSRvT9UPREQlgc84EpFRMsnMnj178P3335fbZwT1z2jKRDp169aFt7c3M7ES5WD4rBwRlS6eppMlYeBIRNkY61KjvAdTFXGdiQpKBo48VSAqfTz2yNIwcCQinZwZUkeNGoVOnTpVqOCpIlxlJSosnrwSmQePPbI0fMaRqIK7ePGirv9FmXF027ZtWRlSPTw8KtwVN7m+cr31mVjl9pDbRW4fZmIlIiKiioyBI1EFJQMhmVnU0dFR11XFoUOHLLJLDXPRd+UhM7HK7aPPxMoAkoiIiCoiBo5EFYzMIKrvUqNmzZpZXWq0atVKnYMM6TOxyu0kt5fcbsOHD2cmViIiIqpQGDgSVRD6LjXc3Nx0XVHILikmT55c5rrUMBe5neT2ktutZcuWuu3IrjyIiIioomByHKJyLGe20HfffRe9evVispcSIJMJ7dy5k5lYqdxjgg4i8+CxR5aGgSNROcSgpvQwOKfyjievRObBY48sDQNHonIkZ5caPj4+THZTiuRtq35+fuzKg8oVnrwSmQePPbI0fMaRqByQmT5nzJih6zoiMjIyq0sNBo2lS5+JVW5/mYlVfh7yc2EmViIiIirrGDgSlWH6LjVkps8bN27oMn8uWrSIAaOZye2vz8QqPxd9Vx4RERHqHERERERlCwNHojJInyFVBiQyQ6q+Sw1mSLUs+q48YmJidJ9T69atmYmViIiIyiQGjkRlhEzCYtilxvPPP6/rGkImY2HAaNnq1aun+5zk5yU/N31XHlu3btV9rkRERESWjslxiCxczqydzJBa9vEzpbKECTqIzIPHHlkaBo5EFkqfITUgIAB169aFt7c3g4tyRgaQe/bswffff4/Y2FjdZ8xMrGRpePJKZB489sjSMHAksjDsUqNiytmVh7yVVd7iSmRuPHklMg8ee2Rp+IwjkYXQZ0iVXTjIrhwOHTrELjUqEH1XHvJzl5+/o6Ojbn9gVx5ERERkCRg4EpmZvNKk71JD0mdIbdWqlW6cKhb5ueu78qhZs2ZWVx7MxEpERETmxMCRyEwMM6TKrhpkxk12qUF6cj+YPHmybr+Q+4c+EysDSCIiIjIHPuNIVIr02TRlwhuZDEV20dCrVy8mQ6F8yWdfN2zYgPnz5+vGK3wm1uRIrPz5PJoP7okmmspqoTE3ELnyFwTX8cTIrvX5a2kRWOZzVvJzDcDfMdZo3u8tvPCEjVqudxPHVi/FxjO3AQd3DH3DFXZW6iQdgfSzf2Nh4GHcduyOEQNaQqNOyZ/+vW3R4c030cmhamaxSMGNm1VQ86FqmeOm5Jo353umZo6fdUSPkZ5oYiMbr86TraysyWPbkVF8xpEsDf+GEpUCedK/evVqdO7cWdcFg8yeuWvXLt2/DBqpIOR+ot9vZNAo9yO5P8n9Su5fFU7SaWwc8y7enRuC6ybPq5JweuMcfHMwHlq1hMoDDRwePIMZPl9gYfCl3J9tylH8+fFkXXIxn2lrcOj6XXWCXjriDqzEZJ+lOP1gbTyolhbMHVzev1R57404mSTfVyAjbhfmDnkTM8NvZs6Sp7zmzfme6vhXB3A5Q7+DGysra3KuJxGVJQwcie4jeUIvrxDJhDfyKuM333yjO/H38vJitxpUJHK/kfuP3I/k/iT3K7l/yf2s4gWQMdjx4ThM/vMsMtQSqiiqoHYTV3TWnMOuvVG4mi2OErhzMgwbjzTGm949YXciGCHRSeo0lYjH4Z0HkKxpjy4t6qBw1+7s8cykjYiNXYBXGz6gjAukHN+CmUtilFf5yWvenO9ZXlWU9SQqnxg4Et0HMhOmPmDctm0bgoODszKkMmCkkiD3I30mVrl/RUZG6va3GTNmVKBMrIPw/W99EPXuR/A/kliAk3YqTyrVaw73Fna4HvwvzqQafvq3cHzXFuy1c8OA94dggF0YVgQdR4o6VSf1AiKDz0HzfBe0q5fz1lIt0m5cwdXkvH6OqATrmg/DwaEWNFVK6nbR+/GeegIZyddwI60A19zFbSTfymu9le2SeBNpxTrQ8lvPDCTfuHUffgiSn+k1JJfZK7VEloGBI1EJ0nepITNhyi4VZGZMdqlB95vcvxYtWqTb327cuJGVibX8B5AP4JHOIzH3Y+DTMT9iX67bEU0Tyeexf/NyLJw9G7OVYe5PShB+9iYD0LKiWgO079ESOPIPDpy8pRYq0i8gfPtRaF7siJZNW6PLi4/gyMYwnLyj/2T1VySrooV7c9TTnQndRnzkGswe1xdtbSujut0jqGNrhye7jsCMleGIzxZwJCJ84RgMHPgpNsRcUV6Pw/99vRVJiEXQ12PV8jvqvIbkcnnNa/iexpYtDPW9hn6PoIPrMXuwG+xsa8Guej20ffVj/Br+n0Fgps47aQ2OHvkVIzs8AVtNE3R9fz0u6OJMJeiMj8Dq2aPQ9cmHUL2mMtRoj1enLkVwzC31WLmJyJ/eV9r+Pn6KzH2rrojbgk8GD8aonyKV4N3YeipBXUwwfvpoMNyftIOtnQZVbWUdP2FHruNRv24/Ijwlx5GaEo6FQwdi6MLwrB8JRPIpbF34PnrJttvVgm3Vx9DWcxxmbziB5ByLE1H+GDgSlQCZ6XL48OG6E3aZAVPfpQYzpFJpkvubvisPuR/K/bH8Z2J9CM2Gfob5jVdhyGebEFugKwq3ERfyPQa16YTRv51GVccn0LBhPWiu7cTM7l0x5If9OQIFskw10OS5LnDBCew7EZ8VYIi4f7EtqDJe9mwPx8p10e6ljtDs3YJdx/XBZToun4jAYTyDAZ2fRDUljIrf/RUGuI3BX/DAJxv3IywsDKG7fsKQh/fhw9eGY0LgKWUpvXQknt2LgICjuJL6AB7vOgjDerVAVWVfbNprMMaM6YeWdsYSNlmbmNfwPYv7NK76Xr/74Z1+n+Lf1lMQfOYsokIX4LVKa/FWl6GYFXJV3V7qvFu+wbteMxHzzEj4TeuNVq2c4FBJPo+5DZ8P6I2Bv99Gjy/XIzQsFCFr3oXL4Zno1O19LItOVt7DFk3cmiJx9Y/w+y0U17IdOik4uSkAXy25jIYtG8Am13reRfLRXzCy20sYu9kafb/5K7OOP4ajbvAn6Np9BOaHXzMIHtXlN51DYs5jNCMRZ5W6Np1NzAyMRSy2fuSNF76+jGd0bQ9DWMhSjHGJwqcvv4Exv59U3o2ICkVmVSWiwktJSRHBwcHC09NT/vUS8+bNEwkJCepUIvOT+6PcL+X+KfdTub/K/bZciA0U3nhHBMam60a11/aI6e6txQD/IyJVV6J3QQR6NxKN/MKEOqdIPfGzGODwkvhoW4xapqcV6bFbxUfubmJE4Jkc0youSz5V0P63Xoywg7AbsV78p5Ult8X5FUOERvOG8I+6JecQtyPmimfQQHj6HxV3dAtdFOtHNBNoNkOE3FIWunNU+Hs2EHCZIoISMuQcWbTnV4jXNRCa11eI87r3l+JFkK+rsl36K3XIve2uSAyaJBzgKnyD4jNnyVNe8+Z8T3XcYZIISrybOYvRMmP07+UouvvtE4lZ7VbWJ2GbmOCiERqPheLIbTnBYN454UJusSzaC2L9SGVa1ra8J+t9PP1F1B3lfbRnxIrXG+XehrcjxQIPx3vz5VxP/bZ3GilWnM5Rx3+bxHhZR/e5IkJ+TjomtkFikPB1gHDwDRKJxsb1bkUI/5HDxNi5wSLeYNtYIp6mk6XhFUeiQpJdaugzpI4fP16X6VL2tSe71mCGVLIkcn+U+6USLOr2U7m/6jOxyv24PLGy64gx3wxD6gcT8HXW1RQjRCy2ffstjg6fiPe71kMVtTiTFao4dMXYKV2wc/ZqROa8FY4sjlWdpujyYqN7zznqk960eBquDeTz5Fao9lQnDHgmEUHb/kWc/EiTTuPAzktw6dkeztWtgKpNMGTNSSSFTMRz9oZXCrW4jcqoURVITrhVzGf7zEDTHUNfbY0aBo8SWtm7os9bbZG8dT2Csq7ASi3Qq7MzDDs1EfGR+GtFOOzeeh29nLJ3d5L1PkE7sF/ecmrliK4D+8HpxBqs2ntZPf4EUg7+he+2VsPLr7vDqWruZxq1MeFYH3QVLl790D1HlypWD7th4MjOSP57C3YZ3opcUFWqo0YtDeL+XIYlm8MQHZeceSXSpiWGfL8I345+FrVL+nFSonKOgSNRAcmMlTKDpTzxlv/KLhH0GVIZMJIlM8zEKvdb/X5cvjKxVoam5RDMW/wklgyZhb9ib6vlOSRFYc9aW7z2UstsJ9T3VIZ9Kze8cGIPQs+Vr+C6XLJSb0U9cgjHLt6GuH4CwUpQ2KxHWzhVUz9g9VnI5M0hOByfgTtnIxF04jF0cXMx6NuxEqqknsae9b9i4expmDDiLfRqWw/VH++PH66rs5Q1to+gTs3sP43I22XtHeoo/17GpYS0zCJJ8wgescueJEjcuIIzyrqnhy7E+4MGYuBAw2E0vt52SYmoj+PIOZmxtgpqt/OAl8s5LFsejBgZOSpB/L41G3DEqR8GdnU0krlWi+Rzx7E/2Rb1nR9DzVwzWMOh4ZOww3kcjylC8iub9hi7YiFG1NyMsS+1Q+O6DnDp+j98vOB3bD8cV/Z+CCCyAAwcifJh2KWGvFIju0CQCW/YpQaVNfoAUu6/cj+WGX/LV1ce1qjfdwIW9gnDex/+gWhjZ4a3buByXFM89biJnvtq1EY9+wQk3OQTUJavGuq1aI8WOI7Q6HgkHQ3G2hMt8Vq3pwyunqnPQl4Px4Go/3Dx8AEcztYNx23EBc1AD+eW6DreHyHxQJ1WL2DI9FU48u8qjHXQzVS+GQ0yJQ0cmnZGT09PeGYb+uK10TMRGPgp+jppdHNa2bdF/6FuSF6/DttOpkBcPYj1q4/DxcsD7Wobe+/7rTI0Td/E97sjERWyHv7fvocetgfx9agB6NayKwZ8EYQ4PstMVCgMHInyoM+QKk+sZYZUwy41iMo6fVcehw4d0u3fcj8vF5lYrRzg/qEfRl+biXfnH8BNo+eFd5Ce7wljFTxQ1ViCE7IsVqjm1BY9ml1CcORR/HsoFCdc3NDR2VadLlWCbWNXdLE7iqCDoTi4NwIw6IZDXPkbn/WfitCO3yD04N9Y+uUUfDDibXi98CyaPGyN2wYX5sqUtBSk5OqCIw3X4pTIGA3RuF5mwJcXK+sHUUuTjKs2T6FrXy/dj073hj7o0fU5dO3xEp52tFaXqIEWvfvDE3uxLvgkzu9Zh6UnO2Bo/7awz325UVEJmnpPojmScOHcFcg0O9mlIe7MKVxHbdSr/WD2K5ZG1k3ciEdMtu46M7shSUQtOD/dC0PGfoq5a/ch7vwO+PVOw7oPv8Gqo0W4BZaoAmPgSJRDREREVpcakj5DKgNGKo9atWqVlYlV0nflUZYzsVpp2mDEN1NQ78f38PFfZ5Qw0cBDDnBuFoWjutvrjBNxpxB2+jE8Yl9VLSGLZuOM5/o2xZG1S/Dj5qOw69IBzXJkNbWq0xo9BzyG47sDsWZnKrq97ApH3RmQQHrcWRy+Dti2bgHnGobLpSEmeBuCCnyr6m3cTLldwFsqCzNvEV3fgsAd57P1iSiuhWPNsjBoPF+E2xOmO+C3cmiO57s1wPVlv2HDyWy9YAIpEfjx1Tawa/EBNsTpr8xboaqTO15/uTKC1v6M75dvRbpnf/RuUUOdnlulBm3R18MOJ1aswe6s98kkru3Hbwt2Adl+CKgCmxrK6+uncCbOMKJXPquwEIRlRZ8CdyLno7Ptk+gx/173HHJ5Tf226N6tqTpORIXBwJFIJU+UZdcFrVu31nVlEBMTwy41qMLQd+UhEz3J/d/Nza0Md+WhnMA27IPp87rin/emY9k5g9DRpgleHFgD83/ahgtGrzqm4OTf67B7sBe6NTB9Yk2W4iE0bu8Ku9CVCNhUGS92aYo6Oa9wWdVBiy7tkb56GX494YKurvWR+bOAsq84NkEnF5lE5Tf8FnIKcXFxiIs5gZCVMzF64gZoG5i+Miffo4qNLWrhHIJWLcfK1UE4diOvPkULM29xncCSD33x+e/7lSDrEs5GbsK88T748mI3fDylj9FkNdlUfQpvzJqGQQ7rMPadKfDfGoGzyraJid6NgA8n4sO/a2PQ1GF43sHgBxYrR7i/0QtV182BXyDyTIqTpVpTvDH9PXSPW4T3xs9GYMgJxOjauh5fjXpfaWsnfDT/HYOkRbZw7ugGF+zC/C/mIXB3OCIj9yPolxkYPSMYNRrpPysrVGvyIsYMboCQTz/CZyv+QXSM8rnGnUHklp/w9fy9cBr8Nno1MXHLOhHlwsCRKjR9hlR5giwzTj7//PNZGVLr1aunzkVUcegzscrjQB4P8riQx0fZy8T6ABw8xuP7/9lg1+4YtUx6CG2GfogPzn8L32+34kyywUm7uIkzG2ZhhJ8tvpzogbr5nFeTpaiCOi064kUZM2g6w7PjY0rYkFNVOLR+Ft3kPM2eRXunewGDlX0XTAn8CROcgzHiGSfUrVsXdev3xfSD9TFu8yb8MKAFEBqGI5fzeubVCjatvPDJuI6IC/DF6/0mYOnBvC5TFmbe4noJUyd1wn+z+6JR3Xpo2GooAlJfxrKdP2BcW3sj2ygnK1g7v4Z5mwMx3eUovnihNRoq26Z+4574LPJJfLx+Oea91QT6G1UzKZ/FMy/jf0ogjjyT4hiqjBptR2N1+Ar8r/oGDHrmKdTXtfUd/P7Aq1ix82dM7WaY/bgy7N0/wNo/J6HNqXl4pXNbtGr1PN75ozIGL5uHkY0MblGu6oRX5y7HnxNrYdtwNzSur3yudRuh1SsrUel/v2DD3FfQML/gmYiysZJ9cqiviSoMeQK8adMmzJw5UzcuM02+9NJLTHZDlIPFHitxqzGw7lZ4xs6Hl4OJxBvpJ7HynQH4sMkinPjAVT0BlR2b74X/l9Pg5x8Plz5NUavSLVz4Zztimo7FbL9x8HR+qAAn1hWDlZWV7ExOHSvPMpB89SqSlPiwqm1t1NYUNqGLFmk3ruJ6hg3q1NYYBDvGFGbewrqK7RNeRLdZDeEfFYAhDTNwNT4J6VVti1FX5vOC8Umy643qsHukJqxL/ABRt0nqXaUKOzxS09r0MZiRXOD1Emk38N/1VGUtKqO6XW3UtC4b100qzrFHZQUDR6pQZObI5cuXY/To0brMcKNGjUKnTp0YMBLlQwaQBw8ehJ+fH9auXYt58+bhjTfeKONd0Sgnw1dPIfL8Td1Y1Ycbo7mjhgFjDjx5LWtyBI7O2a8JUtnBY48sDW9VpQrh4sWLWV1qyC4I9BlSPTw8GDQSFYA8TvSZWOXxY9iVR9nNxGqFKrWd4OrqqhtaMGgkIiLKEwNHKtf0XWo4OjrquhyQmSPZpQZR8egDSHk8yeNKn4m1zHflQVQuVMVDTzwDb++meLg6T/OIqOTwVlUql2QmyCVLlmDx4sWYPn06XnnlFWZHJbpPZMC4detW3S3gw4YNw6BBg/jjTDnC2+WIzIPHHlka/hRF5Yq+Sw3ZlUDLli11mSEnT57MoJHoPpLHlz4TqzzuDLvyKFuZWImIiCgvvOJIZZ6xrI9dunQp40k7iMoumYRq586dzFpcTvCqB5F58NgjS8PAkcoseXK6YcMGXXIOiSenRJZF/6NOQEAAYmNjdVcle/XqxR91yhievBKZB489sjQMHKnMydmlho+PD5+nIrJw8rbV8tWVh2WQz5fa2NigXr16aknJ48krkXnw2CNLw8CRygx5gvTHH3/gww8/ZAIOojJKBpAyeJRBpPzRRx7LfAa56FavXo1+/fqhXbt28Pb21j1f2qpVK3VqyTD/yasWaXFHsHd3MHaFhOPc9QylzAaPNu+A59y7o1ubx3J0Ri+QcmwtFmw8pbwyrpq9Ixo+8RRcOzaDg9HO4AtbZ2m6iWOrl2LjWUf0GOmJJjb3oyElVIdIwY2bVVDzoWpqgfq+Z2zR4c030cmhqlpeWsxdf+EwcCRLw+Q4ZPH0XWrIlP83btzQdQGwaNEiBo1EZZA8bmfNmqU7jiV9Vx4RERG6cSqa0NBQ3V0YrVu3Rvv27XW38JeL5EQiEcdWTsRLzi3RbdhPiNA+hmbNm6PZ45VxYsVk9GrbET0mrUZ08l11AUkg4/IBfOXzKRb+tQ///vtv9iFyJwLGvoaXu7aEc48ZCIq7rS6nKlKdpekOLu9fCp+vDuByxv0KKopbh/IZxO3C3CFvYmb4TbVMUt/XZyNOJplj+5m7fqIyTl5xJLJEwcHBwtPTU/7FEvPmzRMxMTHqFCIqL+RxLY9veZzL410e91RwgYGBum1napg+fbpuu6akpKhLFY58D7PQ3hBH/IcLJziKLuMCRNiVNHVCJm3qORE0vY/QKNPdP94hrmjVCeKuSAyaJBzgIDz8jytjuWlTL4qQhcOU99YIp3Gb7i1b5DpLU7wI8nUVcJgkghKNrV1JKG4d+s/AVfgGxatl0l2Rev0/ERt7VSSlm2Pjmbv+wjHbsUeUB15xJIsifx2X/cHpu9R4/vnndSn+ZVKN+/kMDxGZhzyu9V15yON9/PjxuuNffg+wK4+SIW/vl9+n8lnI4cOH67atfFbcsgmknwzEh2MXIa73FMz/4i241nlAnZbJyvpxdPWZjjmelbHjq/kIPHZLnZI/K+vH8PTbQzCwGXBy5W78m6RVSu9vnRBpuPHfDaTJcMAkLdJuXMHVZHl7bBEUuJ7iKko7K8G65sNwcKgFTRVjt79mIPnGLeX/BSPSEpFQYvXL9bmG5Pt2FZeo7GPgSBZBniDKZ3U6d+6MKVOm6J7VSUlJ0Z1QMoEGUfknj3N5vO/atUt3/MvvAfl9IL8XGECWnMWLF+OFF15ArVq1dEGk3L4XL15Up1qSRISv+gVrk5vhreE90SSvBwqrNobXjOXYs282+j2ePcgrvPtRp7xlMwQ/fTQY7k51YPeoHarXaI9XpwZgX7ZbZG8jPnINZo/ri7a2lVHd7hHUsbXDk11HYMbKcMTnG8wUpB5l/RaOwcChPyI8Jcf7pYRj4dCBGLowHClqkXEFaaesZxz+7+utSEIsgr4ei4EDP8WGmDvqNKUNWeOSErDFBGe2/Uk72NppUNVWtv0n7Dh7U3fZPJO67KT1OBOrrOuEPnCqXhO1dfWPwuwNJ5Ccb8yXu36RfApbF76PXk8+pKxPLdhWfQxtPccV8P2IKhYGjmRW8ldv+SyOPEGUKfunTZumO3H08vIqf91qiGTEHA5HeHgEoq/meKbGBJEcg8PhynKHY+7bH7GSqsNS23pf21XEz7U4LG4blCB53MvjX34PyO8D+b0gr5TJ7wnLv0pWtsggUibWcXR01F3lldvaYoJI7WUc2x0FaNqjS4s6yDs1S2XUbNIRbk0boI6milpWAOIWLmwNxLIjgFOfjnjKVjkdKvE6lWDuwp8Y3dkDYzdbo+83fyE0LBQhfwxH3eAp6P7mV9gdL6+WZSB+91cY4DYGf8EDn2zcj7CwMITu+glDHt6HD18bjgmBp5Ce+aZGFLSedCSe3YuATeeQmDMQzUjE2U0B2HQ20cTVvoK20xqPdx2EYb1aoCoeQtNegzFmTD+0tKusvIfahoCjuJIqr/LeRfLRXzCy20tG2v4JunYfgfnh19TgUV32b39MfOtD7Kk9AD+EHEDItu/whu0O+Lzsjalb4wwCTWNy1C9isfUjb7zw9WU88+V6pe4whIUsxRiXKHz68hsY8/tJZQkiyqLeskpUqhISEsz8XNMFEejdSFd/7sFBuPYeK/zWHxdJukcgTM0rByfhPmKu2Hw6UeR+YiJNXAlbKaZ5PyM0OZbTtBtiUEcO2kRxessCMa6nS7ZloHlGDPLbIKKSMtQZi9G2AteRD0tta6GWSRJhfl2yz5dreEcExqar8xfxc81Gvz0M39eUNBEbskT45lwfuIie4xaILcXebqbao9S97XPhrlHWz/1jsd7ovn7/GD7vzOH+D3Jby+/nQ4cO6ba/LCt1iUHC10FpT5GesdM/X6cRTv19xCw/P+GXbfhc+PRvpzt2Ne6fi22x6nOMxarTCO1/ImjCM8rxNkAsOJKkFkoZIiFoinCBo/BYEClu3zkq/D0bCLhMEUEJ2b/LtOdXiNflcff6CnE+66DL8fxhQesx9dyiuu4OvkEiUVdgZN5CtTOvZxzV90V/4R+Veu89nUaKFadvqfNk0v63SYx30QhN97ki4pZ8U/2yDYSn/1FxJ3M2hVbcifIXnkr999qflxz151pv1a0I4T9ymBg7N1jEl+aXXQ5mOfaITOAeSWYhkzXIL8Rhw4bpgsjSpz9J7ii8p36Z/aRi2mjRs5FGmeYqRgSeEelZ83oIX/9VumQUWcOKxcJvbG/RSFkXtPtc7L5m+Mf0ljj9x3jRTvljhka9xbg5S0Xg5t0iNCRIrAv4Rj2ZbyB6zw3LHmRkJWfQiEY9x4s5y/4Su0NDRUjQH2KBr6dSl3IyNGiJOKI76S9i2wpVhwmW2tZCL6MPHBuJnmOnZd8fsoZVIiJJnkAV8XPNxVSglkPW+sjAdJD4fPEKsT5oj9i9+Xex+PNBmW1xekvMDb16L6Ar9DbIoz0y+Fz/sRo0GpxklzL5PaH/3uBQeoP+B75SVyKBY+71yRzkjy3fihVBkSI21eC9SzpwVN8ve9CnSr8hYmMui+tZ9aeLpOvJyv8N3RWp51eJd+yUNnn4i6isJuUI6gpcj5FgUC9XAJXXvAVtZ8ECx7unA0QfjUa4TNgmEnJ9XyaJiDk9lXl7ijkRMiDOEfQZ0n922baTMTne49ZeMa2Z8vfeabCYsylURMUm5Vg385L7K5El4R5JZpMza2rpBpCmTtq1Iv38SjFI/hFsPUdEZORzgq9NECHTPZTpTmJQ4Hn1xF0rUo/8IHqbONnWJkWIhQOcBDRviYDT+un6X4iVP6RjV4lTOQM37XURMbe/0GT94lqUthW2jrxYaluLsow+cOwi/MIMf7HPqaifqzH5bI8sGeLa7s9FO2V9jAfzGSLpyBIxyEk5+XGZIDb/J9+rKNvASHsMgk/jdd9/Oe9OuHfyz+F+DTmzsMqyUnf3uPD3cBCwGyvW6/bpwtAHLTmyqmpTxZWIVWKCu6PQdPERK47eUL9nVMWqM7e7Uf7CQ9l2+V8Fk5TgKzZSbF+3TCzw+1z4vvOm6OmqtEX/uZgIHAteT17BoKLAgWNB21mQwPGW8c8pS7r4b/1YYYdmYsT6i8pnlSPoM1TUwFH3/blMjGinXweNaOQ+XHz0/UoRFBkrUnMFs6VLtonIkvAZRzIb2Z/bmjVroJyg4MKFC7pkDTNmzND122heVqhStxGaypw8h47h9JV8MrZZ1cDjLk8oL67i1JWbkE9tANcQuvIXrEt+ER/7jUY3h9wJFKw0LfD2+NF4c7ALqiapyT+0Z/DXvGU4oemDyWNeRiONfCbEgFVNtHhrPGZMGIIX7LW4Jf+smGKsbSVVh6W2taTblU0RP9fiEBewdcEShGp6Y+Kk/miac31QGZqmAzB16ivQnAjA1xtOQVsS20Ak4ujPPug79Ddg0Hz8Oe8tI3XfP/J7QH4fyO+FyMhI3feE/L5Q/m5xMBgCAwPVLVZ07dq1gxKc49ChQ7r3nDx5su772azPmVeqA6cOjYDrkYg8k6wWGiOQcngVZi5Yji2RV0xn47SyRp2W/fDJwi/wyqUFeK3PJPx+xiAVzP2os0BuIy5oBno4t0TX8f4IiQfqtHoBQ6avwpF/V2Gsgzqb2ZWVdhaG/P58E9/vjkRUyHr4f/seetgexNejBqBby64Y8EUQ4phllSgLA0cyO8MOwWUH/5bQIbi4eRWX5PlEyyfxuL3pk2WRfBTrft+uvGoK96YOyp8hxa1j+HtJsLJ8N7g3qyFLjLCCTYfRWDb3Q7zWsmZmUUIU/tl2DnjGHR0aGM/WZ2XXEaNnTsXIPs1QM+/sDTpG21ZSdVhqW0u4XdkU9XMtjqtHsWP9aWV9usHtSRu1MCdrPNHlRfREHLauC8X5q8XcBumxCJk/XgkaN6PeR6uxa5F3qQWNMmCUx7/8HpDfB/J7YdGiRbrvCSo5np6eWLp0qS5YPHDggC6jbatWrdSplsAerj16oBnCsDRgD+LyOncX8di3/FtMGvUtNl++m/m9YZIVrJ37Yurnb8Pp5AIMG78MR7P6rSjZOq1qPoyGdkDazZTcXWOkn8X25SuxZkc0kq78jc/6T0Vox28QevBvLP1yCj4Y8Ta8XngWTR62xu00dZk8FLSerKRYaSlIScv8iVNP3IhHTJI6kgdRzHbmVgmaek+iOZJw4dwV5A7V0xB35hSuozbq1X5Q+eTuB4GM5GtIRC04P90LQ8Z+irlr9yHu/A749U7Dug+/waqjhehyhaicY+BIFsPZ2VkXQMbExKB+/fpo3bq1LtPfP//8o85xP5zF/k1rdCnp9UPgL9/iPe9x+DauNQZP8kSLB/R/rrZj3tjBGDhw4L3hVXc42bbCiJWV0XvGNIx2q5U56814nI9R/m3ZEHWzlldkZeDMPhyOSZb3yOBu7BkckH89H60JmeSv4AretqLXkZ2ltrV467cTPm1tYWVllX2wHYMN8XeL/LkWR8aFE9hWgPWxcngSbRspL478hysxxdkGx/Hn1EHwGPMzTiqnbBevJJVKVkF5nMvjXQaM8viXAaP8PpDfC1Qy9MGi/I6VV29ltyeWFSwasoKN6yuYMtgJJ39ZgIVbzxnpl/A24rb/iGnf7YWm+9sY1OnRAgYXNmjYzwczR7gied0XmLzkXyVEkUq2Tqs6rugzsB2ur9yAHTGGUZVQ4rkdmPvOMEzdm4CMuLM4fB2wbd0CzjUMw9A0xARvQ5AyzZSC1lPJqgpsatgC10/hTJzhfEo9YSEIk98ZeVLeq0jtvI2bKbfz/B6s1KAt+nrY4cSKNdgdl/2bRlzbj98W7AJc3NDRWWn3fXAncj462z6JHvMNuyGpAk39tujerak6TkR6hT6lILrfcnYILjuuvn8dgm/FrKH9dSnp9cMr3uPx7YnG8PX/DtP7PYmq6pzZaBNwdHUAAlaFoeo7C7Dt6G4ETuqMOvmdtdyNwkqvtmjbNvvgtTIKSlgCVK2GB3UzFkN+bSuJOiRLbWux2tUIPcdOg5+fX/bh4+fgWN3Eh5vf51oC7OwehPFrh0ZUKc422I1lATfwyuIN+GNCW5xcOFE5Fg7fly485PGsDxjlcS6Pd3ncy+OfAWPJGDZsGLZs2aLbrvpgUX7HlglVn0S/6V/io3ZH8NmLz+C5ITPxy+Y9CAsPw77tq+H/0UB0fn4qQtv6Ysn8wWhpk98XsIEqDdB70mSMcLqKdT4zsOSoGjWVZJ1Wj6LzyLEYVPt3fDh6JlaGnEBM3AVEh/yGqSM+wVqHofj07dao6dgEnVw0iPvzN/wWcgpxcXGIizmBkJUzMXriBmgbaNQ3zEMB67GBLZw7usEFuzD/i3kI3B2OyMj9CPplBkbPCEaNRqbqsULVQrXTClVsbFEL5xC0ajlWrg7CsRtGvg2rNcUb099D97hFeG/8bATq2n4JZyPX46tR7+PLi53w0fx38Fw+d/4UVbUmL2LM4AYI+fQjfLbiH0THKOsUdwaRW37C1/P3wmnw2+jVpET+YhKVD4LIwskEDTLzZrt27XSDfK1P2lB0+kQgXsJv8z4RFhamDv+KC7kSgBhLYqIV6VdCxFxdEpSXxEfbYrJnYtM/qN/ST4SlGTxdr70iIv768142UX9f0UU5DBv5hWUun7BZjM2VQS+nNBF/9lKOrkIK0bZC15EHS21rkdavgMlxivq5GmVse+SmjQ0Ug2TWVM8AccbE55E1n1zv+KJsA317WotB/pG6cm3iPuHX3VH5bHqK6XvjsycSKYb7c0xXTHLbyT/lhoNMbqMEiyWWcMzcpwrapFNiu/8U0d8wCYscGnmIEX5/iogrOZNQ5ZEcJ5dUcT5wbGa24t7fiQiD7/7C15mXDJEUtUH4DTLsuidn10PKPEd/FxOydZvjInr6+ovtp6PFNtnVht1IEXhJn6rMWOKagtSj0N4QUX9OFwOy1ksjGvX+RPx5fK9Y7OGQT3KcQrYz9YT4Y1x3tT36JDnGEtwYa7uDaOc9XawIu2zwHXo/kuPIz/q4+HPam8JVfn/q6y9st1T3iWwLkSXhHkllhjyxlCdDMrOiPNksXibWgp20Z8prXpl9NVCMkNks7byF/wmDgEN7Uawf0UxZ5kUlELmhFhqhnOx7K38YsgIM7Rmx4nWlLs0QseL8bd0suej/QDp+LHYnny9C2wpbRx7hgqW2tUjrV8DAsaifq1EF3AfvRouAPg2U9XlDOdHJ3s/ZPXfEpcCRwg524pk5h8TtIm0DY+1RTugivtNlkYXTWBF4PsfJWiHJ41Uet/L4lccxA8bi0weOOTOhliTLOXlNF0nxcSI2NlYZroqk9Dy+m0pUSdV5V6Re/0/3PnHXU+8Fctno64oT8UkmvhNMKkg9ivQkES/XKb4o3U8Upp1qewpUTwHbfp9oU6+LON3n/J9BNynmxcCRLA33SCqTcnblERMTo04pqJIIHKV08d/mCcJFaYem9w/iSFbubq24FTFXdDfRbYO84nNl95fCXVn2XoBh0I3CuPXiUs6TlKxuFOxER78D4laR2lbYOvJiqW0tyjIF746jaJ+rMQXdBwvQHcepVWKsi+yLbLxYHyt/7S/KNsirPbfE6RUjdVdl7AYsEv8W4Rd4fcAoj1d53Mrjl0pGSV1VNIUnr0TmwWOPLA33SCrTDh06JHx8fHRfrvLfqKgodUp+CnrSLuUzr/aS2Dy+ozK9gei9IFLcuyZj2FG8vL1pqVgXtFeEhe4Wm1f+KD73Vm/L0XQX7206f+92Km2c2PXxS8o02XG7r1gQuE2EhBl23K4ELd2/EaGJ8gS+iG0rVB2SDF6+EYO8Rwi/3VfUMoVFtlVR6GUKGjhKRflcjW0//fbwEL7+q3RXjrIPW0REvLqdsvpTVNrdboiY9dtWZX3CRFjIVrFiznjRs5ESNOa81bfQ28DE55N+XqwfJz8bR+E+fY+4liMOzYs8Hg2PT3m8UtnDk1ci8+CxR5aGeySVC/IEVd6qpT9Bzf+KRj5BTDb5z6v9b5MYL6/4aPqLuRHXDW6xSRNXIv7M8eyGOmieEd6fLxXbzxg8f6KXflmELZuUGRBkW85F9P7oT4PnLorRtgLXIaWL2MB3lGmNhHfgBbVMZXFtVRVqmcIEjlJhP1dj20+/PXIsnzXkaIs2UZzZ7i98sz1fJAcH0W6Qn1gflaMzc6lQ28D056O9tkdMd3dUpncU49afN3ElNfOOgKL9oEOWSH6ORFT6eOyRpbGS/1N2TKJy4dq1a1i+fDlGjx6tSz2vnLRaTv9vGVcRHXkeuq6ybB9HS+faqKKbYMpdJMccR9SV28rrGni85ZOoXaUQmQMLpKTqsNS23ud2FelzLQ6hVHkKkedvKq8tZBuoZIZUmYV27dq1ug7l33jjDdjb26tTqaySXdLwVIGo9PHYI0vDwJHKJRlAbtiwAfPnz9eNT5w4ES+99BKqV6+uGyeikiG71Ni0aRMCAgIQGxur60qjV69eDBjLEZ68EpkHjz2yNAwcqVzTn9TOnDlTNy4DyC5duvCklqiY5I8zO3fuzHZs8ceZ8oknr0TmwWOPLA0DR6oQZAB58OBB3kZHVEzGbgdv06YNA8ZyjCevRObBY48sTSX1X6JyTZ7Uymcd16xZg+DgYERGRqJWrVqYMWMGoqOj1bmIKC/yOJG3fsvjZtu2bbrjSB5P8rhi0EhERFT+MXCkCkee6C5atAhRUVG4ceMGGjduDF9fXwaQREbI40IeH/I4uXDhgu640QeMRFSW3MSx1fMw+6s1OJZSjKtYIgU3Eu+oIyUo5RhWfzUbX60+hhS1iIgsCwNHqrCcnZ0xa9Ys3Ylw/fr1dSfGffr00WWGJKro5HEwfPhw3XEhjw95nMjjRR43RFQW3cHl/Uvh89UBXM4oSuAokBG3C3OHvImZ4TKrcwnLuIz9X/ngq/2XkaEWEZFlYeBIFZ48EZaZIBMSEvD888/Dzc0tK4CUz0YSVRRyf5f7vdz/5XHQsmVL3XEhjw8GjEQVnUDK8S2YuSRG1yEsEVU8DByJVDJRjjxBTklJgbe3N8aPH4/OnTtj9erVDCAtxm3E7Z6Hwe3r6pIGWFk5o+u4xQiJk/0TUlHJ/Vvu53J/l/u93P/1ASMTSBEZIdJw478bSMs3gspA8o1bBbyCJpCRnIDLN9JyB2YZyUgwVp6LfI9ruJGmVccLS4u0xJsFWK+8FG55kZaIhGReXyQqKxg4EuUgE314eXlh165dui4GZP908oRaJgaRGSXJXO7ieshcvNlzMv556j38EbQT234biIc3jofHm3MRcv2uOh8VlNyf9fu3/Ffu73K/l/s/A0ainOStmiH46aPBcHeqA7tH7VC9Rnu8OjUA+7L9eKUETzHBmfM9aQdbOw2q2sr5fsKOszcNgr9EhC8cg4GT1uNM7D/4YVwPuNjWhoNdQ7R7bQbWRCdCJJ/AhtlD0d7OFrXt6sCp67uYt/uSQSCqvsfQ7xF0cD1mD3aDnW0t2FWvh7avfoxfw/8rQNCqrFd8BFbPHoWuTz6E6jWVQbdeSxEcc0ttr6xnHP7v661IQiyCvh6LgQM/xYYY+axjQZY3lI7rR2Vbn0WN6jVR27YJuo6chy2nrhuZl4gsiuyOg4hMCw4OFp6envJvmpg3b55ISEhQp1CpuRstAvo0EGj2mdidmKEWZojEkC9FRzQSr684I7RqKZkm91+5H8v9We7Xcv8mygtPFSStSD8fKEY4aYSm3QgxZ90uERoWKkI2/yjGdnEUGvfpYteVdGW+DJF0ZIkYlMd8aPS6mBuWoH5XxYsgX1cBV0/R391dDPJbJXaF7he7/pghBsjl3UcIn7c8xIBpv4ptIQdEyKbvxDvtHAQ0bwj/qFu6d8h6D00D0aiBq/Ces1FEnDkrokLXCL8BLZXynmL63vjs9TlMEkGJd3UluvWK3So+clfWod0Q4ffHjsz2blsqpvZ2EXB6RwREJSnzpYn4qHCxc8FgYQcX4b3gbxEW9q+4kJRRwOX1lO/s0G9Ed41GNOo9VQRs2yvCQneJdXNGiHaNGolGGggH3yCRqM5d0fHYI0vDPZKoEA4dOiR8fHx0X+by36ioKHUKFUjqGbH7z0ARGJjXsE7sPpOszpyd9sIKMUDZ7o5Td4tscyTvFlMdITSvrxDnGTmaJPdXw/2XASMVBE9eFdr/RNCEZ5RAbIBYcCR7IJQQNEW4wFF4LIgUt+8cFf6eDZSAaaRYcVof3GXS/rdJjHdRAsLuc0XELfllpQZyaCB6K8umZs6muC5CpnVRyjXCZcI2kZD1vXZHXAocqQRuhj+U6d/DUXT32ycSDb4DtQnbxARZn8dCceS2QX2GgaP2glg/UgaehsFopqzlPf1F1B25/F2RGDRJOMBV+AbFqzMVZnmFfvu4TBCb/5OBtl6SOLJggNAo+xoDx3t47JGl4a2qRIXQqlWrrEyskr4rD2ZiLaDrh7C4bz/065fXMB6LDxm/HfjulRiEwRFtnBxgo5bp2Dii6TMNkHwgBvG8W9WoiIiIrC41JH2GVHapQVRASUewJWAvNC/3RY8mSniTpTLsn/sA22NCsXJQM1SJCcf6oKtw8eqH7k9k+6aC1cNuGDiyM5L/3oJdJ2+ppVI7eHZ1hrU6BuWVvUMd5d/G6O3REvZWmaWyLk3NmsrUFCTcup39tk5Ndwx9tTVqZM2r1Gfvij5vtUXy1vUIOm5Y3z0iPhJ/rQiH3Vuvo5dTjvbqlw/agf26W1JzK+zyIu5fbJPbp38PdHy4iq4skwZNevTFy4ablogsDgNHoiLQd+UhE4jIrgoMM7GSCQ5eWJp5p0Mewyks9XJUZzYkcDslGXdQDQ89+AAMzo2Us5PKqPpAZeDaZVy9ycjRkD5DauvWrXX7aUxMDLvUICoC7eVziIgDbB3roGa2LyBFlYfgUO8R1FQiv+Rzx7E/2Rb1nR/LPZ8S8jk0fBJ2OI/jMYkl+zyf7SOoU9MwEJP0AehlXEpIyyzKQdy4gjPXgfTQhXh/0EAMHGg4jMbX2y4pK3UcR84lqUtkV7jltUg6FYmdcvs0eFgJFbOzql0fTRswciSyZAwciYpBn4lVBpCyKw+ZkVKeqDMTa0kTuJt+h317FYA+Q6rcD+X+KPdLfYbUevXqqXMREelp4NC0M3p6esIz29AXr42eicDAT9HXyVRAV9zlVVWqw7ZGVXWEiCwRA0eiEqAPIGVGStmVwcyZM9mVhzHxGzDCVnajkdfwFEZsiFVnNlQJNg/ZZ79FNSf7R1G7RmV1pOIx7FJD7n9yP5T7I7vUICo+q5oPo6EdkHYzJXdXE+lnsX35SqzZcQqi3pNojiRcOHcFyerke9IQd+YUrqM26tV+MPudE8WVloKUXF1wpOFaXLzyb0M0rmc8cLOyfhC1NMm4avMUuvb10mVUvjf0QY+uz6Frj5fwtOO9G2kNFW75StA0eAodNMa3j7hxEcePX1fHiMgSMXAkKkGGXXl88803ui4ObGxs2JWHXpWH8OQr3rqgxvjQBU8+ZPwX58r2j6AZTuOfM1eyX3nMuIIz/5wGmj0C+woYN8r9Su5fcj+T+9u0adOyutSQ+yMRFZ9VHVf0GdgO11duwI4Yw9s+hRI37sDcd4Zh6t4EVG3QFn097HBixRrsjktX58kkru3Hbwt2AS5u6Ohsq5aWkOtbELjjfLbvRnEtHGuWhUHj+SLcnnhALc3OyqE5nu/WANeX/YYNJ1PUUlVKBH58tQ3sWnyADdnW5TZupmQ+Y1nY5Ss5uuLlbrVxYtVGhFwxbG06Lh/YjiDGjUSWTRDRfZWzKw9mYi2i24fEnGfsBLovFEf1GfqEVtw5ulB0h514Zs4hcVstrQhiYmLYpQaVCp4qSFqRGrVMDHKyE416fyxW7D0uLsSeF1F7fxUT3B0FnMaKwPMyL+q97iacBswQf+jmuyjORKxTu8d4SXy0LUZk5hPVZ0TtL/yj7uVUFSJVRPn3V8oNspfq6LOaOggP/+PKmKR/DyWOa+QlPlq5T5zW1bdRzPFurdTnKfxCc3T/kaM7jsz10ghNl/Fi8ZZD4kxsrLgQtUssHdddaNBaDAo4qmZ81YpbITNEMyjr5j1L/Ba4TRy9nl6I5SXD7eMn1kecFrGxp0XEej8xwNWJ3XHkwGOPLA33SKJSkrMrBAaQhXVHxK4fL5zQSPSetlYciU8U8UfWimm9GyknbePF+tg76nzlG/cjKm08edXLEElRG4TfoGd03UbogjU4CfcRc8Xm04lqcCYZm89BtPOeLlaEXVaDRqkkA8eXxNTF32T286jW59r/I7HMWH3ZAkdJae/pLWLOCA/RKKu9GtHIfaTwW39cJN1bMaVpJ8QfuoBQzqNvXyGW17kjrkWsEBN6uqjzQmjajRQL/lokRjswcDQktw2RJbGS/1N2TCIqJdHR0di6dStGjx6NYcOGYdCgQewWoaBEIo4um4rBo+YhVH1ARtNuNL7/+XO81fShkn1myMLIDKlLlizB4sWLMX36dLzyyivMjkqlQj5/zFMFQ1qk3biK66l3YVXdDo/UtM7ju6eg8xXHVWyf8CK6zWoI/6gADGmYgavxSUivaos6tTXImWfVNIGM5GuIT7qjfOjVYfdITVgbbbC6Xhk2Oeoo6PJ6GUi+ehVJ6VVhW8cemirl+Ru8aHjskaVh4EhkJvLZtOXLl+sCSJmBzsfHB23atOFzaQUgkmPwb9QV5eToYTRu7ghNOT7fkAGjn58f1q5di3nz5uGNN95gshsqVTx5tWQ5Akdn40lsqGzisUeWhoEjkZnJAHLnzp26TJjSxIkT8dJLLzGArMBkhtRNmzZl2ye6dOnCgJHMgievloyBY3nGY48sDQNHIguhDxZkZszY2FhdNwq9evVisFCByB8RNmzYoMuSKvFHBLIEPHm1ZIkIXzgVc0Nqof+0SejlWE0tp/KAxx5ZGgaORBaItydWLMZuW+Zzr2QpePJKZB489sjSsB9HIgskg4Y1a9YgODgYFy5cQK1ateDr66tLrEPlh/w8Z8yYoft8IyMjdZ+3/NwZNBIREZGlYeBIZMFkADFr1ixERUXpxhs3bqwLICMiInTjVDbJgFF+jvLzvHHjhu7zXbRoEQNGIiIislgMHInKANntggwgY2JiUL9+fbRu3Rp9+vTR3dJKZYf8vOTnJgNG+TnKz1N+ruxWg4iIiCwdn3EkKoP0z8TJRDp169bFqFGj0KlTJyZRsUAy6dGePXvw/fff85lVKpP4nBWRefDYI0vDwJGoDDPWbQOzcFoGfjZUXvDklcg8eOyRpWHgSFQO8KqW5eDVYCpvePJKZB489sjS8BlHonJABiUeHh5ZmVi3bdumy9Qp+wO8ePGiOhfdT3I7y+0tt7vc/t98843u85CfC4NGIiIiKusYOBKVM/quPGSmTtmVh6OjI7vyuI/0GVLldpbb+9ChQ+xSg4iIiModBo5E5ZQ+E6sMIGvWrKnL5Dl8+HBmYi0hcjvqu9SQ5HaW27tVq1a6cSIiIqLyhIEjUTknA8jJkycjISEBLVu2hJubG7vyKAZ9lxpyO8ouNeR2ZZcaREREVN4xOQ5RBSOTt2zYsEH3PJ7EbJ/5y5kh9d1330WvXr2YfIgqBCboIDIPHntkaRg4ElVQDIbyJ4PsnTt3sksNqtB48kpkHjz2yNIwcCQi3e2Xfn5+7MpDpe9SY/To0fD09ISPjw/atGnDgJEqJJ68EpkHjz2yNHzGkYiyMrHKrjwiIyN1XUrMmDGjwmVileur71JDbge5PfQZUhk0EhERUUXGwJGIssgAadGiRboMoTdu3NBlDK0IXXnou9SQ6yu71JDrL7cDu9QgIiIiysTAkYhy0XflERMTo8scKgOq8piJVZ8hVa6fXE99lxrMkEpERESUHQNHIspTvXr1dElzZJcTzz//fFZXHlu3btUl1ymLZLsNu9SQ6yXXT64nA0YiIiIi45gch4gKLGcm1rKUZbQst53InGSCDiIyD56mkyVh4EhEhSaDsD179uD7779HbGwsvL29LTYTqz5DakBAAOrWratrKwNGIiIiosJh4EhExZKzKw95C6i8xdXcjHWpwWQ3REREREXDZxyJqFj0XXkcOnRIl5HU0dHRrJlY9RlSZZcasj2GXWoQERERUdEwcCSiEtGqVStdRlKZmVTSd+VRWplYIyIisrrUkPQZUhkwEhERERUfA0ciKlH6rjxkplLZxYU+E+v9CiD1GVJbt26tq0/Wyy41iIiIiEoWn3EkovtKPmu4YcMGzJ8/v8SS0+gzpMqEN5aenIeIiIioPGDgSESlwlh3GF26dClUsMcuNYiIiIjMg4EjEZUqGfwdPHgwWybW/K4WGsuQ2qZNGwaMRERERKWEzzgSUamSwZ4+E6vMeBoZGanLgCpvZc2ZiVWOy3I5fdu2bdkypDJoJCIiIio9DByJyGxkALho0SJdBlTZdYY+E6uVlVVWhlRZLqezSw0iIiIi8+GtqkRkMeQVRn13GpIMGJkdlYiIiMj8GDgSkUWRVxv1+PVEREREZBl4qyoRERERERGZxMCRiIiIiIiITGLgSERERERERCYxcCSiCkog5dgafDVvI6LT8n6WUiQfxZp5C7Ah+pZaQkRERFTxMHAkogrKCtUftUX89xMwc2OMEkYak4KTv8/AkKAH4PyEjVpGREREVPEwcCSiCsvKviOGT26HNbNX4WBK7tBRXAvBT37xGP3+y3Cqei/bKxEREVFFw8CRiCowGzTqNxKT8Qu+25zzquNNHF42HwEdR+Adtzpg2EhEREQVGftxJCKLUvr9OKYjdvVYNJvdCH9vew+uNpn1i9jVGNr2d7T/ezFGNNXoyiSRfAbBf/2N/TFJypgtHDt0R0+3htBkiywFMq4ex+6gPTiom08Dh+bPwKNbc9SpwhCUiIiIyh5ecSSiCq4q6r44OMdVx0QcXL4YId7D8WoTfdB4G3G7v8Xr7QZi8dEMPPLEE3C0v44dH/VE70/+RlyGPsgVSItejuGd3sHSk5Xg2FDOl4TQeR9haSQT7BAREVHZxCuORGRRSv+Ko5SOuA0T0HnGowjY/D5cLy9F/y5h8A6bA6+6VZXpAumnl2Og+2Z03jgf/2v2UNatqyI5HPPffAf73vgdvwxoiEriEjaM8sTclkvw14hmSlhKREREVPbxiiMRkRLeObwwDBMfXo4v1wRj50/LkDJxGF7UBY0K8R+2z5+Dc2PG4G2DoFGy0rTCm6O6Ysf8rThxVynQXsWZ/Tfh8PBDDBqJiIio3GDgSEQkVW2MPmNexomPh2LkX89i4lstkdUBR9IxbF/5AHq6Od8ry1IZds7N0T7iGM5cUyLHyk+g86Cm+HvpCuyKu63OQ0RERFS2MXAkItKpDPtOAzDWqRKajn8Tz9lXVssVt27gclwwpnSsqbuVNudQqaE31ibfwR3dc4410HLUfKzoFg2fpp3w6tSfsPVYPDIy34mIiIioTGLgSESkV/UhPOxQAzVrPogqatE97yAwNl333KXxYSG8HNSlqjyG58b8iL1RP+K1h/7BlA7Pod+MIIMEOkRERERlCwNHIqL81KiDxx0PI+LUTbWgIKxQpU4reH2wWAkg/dDwl/fx2ebYHH1FEhEREZUNDByJiPLzYHP0eMcaq/46hGuFjvyUALJuS3Rqn4y/T1yGzJ9DREREVNYwcCQiytdDaPv2u+iyegLe/3E/4g1vOc24gsjVMzHih8jMoPDuaWz9LRgXkvUhokBG3FEcOO6INzo0MHILLBEREZHlY+BIRJQvK1Sp7wm/NRPwyPpBeNilK14dOBAD3+6FtnZuGL/bDq96PJH5hWpVGcnbxuBxhw7o9bac52U83XQ6EkfPga9bLd27EREREZU1VkJmdSAishAyS6meZX493cbV6OM4nySvKD6Ahxs/BUeNQQZWnYLMQ0RERFR2MHAkIoti+YEjERERUcXDW1WJiIiIiIjIJAaOREREREREZBIDRyIiIiIiIjKJgSMRERERERGZxMCRiIiIiIiITGLgSERERERERCYxcCQiIiIiIiKTGDgSERERERGRSQwciYiIiIiIyCQGjkRERERERGQSA0ciIiIiIiIyyUoo1NdERKXin3/+wX///aeOZdevXz/1FRAYGKi+yu6RRx7Bs88+q44RERER0f3GwJGISt3q1auzBYiFJQNKLy8vdYyIiIiI7jcGjkRU6q5du4ZatWqpY4WXkJAAe3t7dYyIiIiI7jc+40hEpU4GfcOGDVPHCkcux6CRiIiIqHQxcCQis+jfv7/6qnCKuhwRERERFR1vVSUisyjq7aq8TZWIiIio9PGKIxGZhQz+pk+fro4VjJyfQSMRERFR6WPgSERm07lzZ/VVwRR2fiIiIiIqGbxVlYjMJjU1FTY2NupY/lJSUlC9enV1jIiIiIhKC684EpHZyCCwoLeryvkYNBIRERGZBwNHIjKrgt5+yttUiYiIiMyHt6oSkdm1b98eoaGh6lhu7dq1w4EDB9QxIiIiIiptvOJIRGbn7e2tvjIuv+lEREREdH8xcCQis3Nzc1NfGZffdCIiIiK6vxg4EpHZtWrVSnc7qjGyXE4nIiIiIvNh4EhEFuHdd99VX2WXVzkRERERlR4mxyEii3Dx4kU4OjqqY/fExMSgXr166hgRERERmQOvOBKRRZDBoaenpzqWSY4zaCQiIiIyPwaORGQxvLy81FeZco4TERERkXnwVlUishg5b1flbapEREREloFXHInIYsggcdiwYbrX8l8GjURERESWgYEjEVmU/v37Z/uXiIiIiMyPt6oSkUW5du0aatWqhYSEBNjb26ulRERERGRODBzJLKysrNRXRESFxz9dREREpYuBI5mFDBy56xFRUfD7g4iIqPTxGUciIiIiIiIyiYEjERERERERmcTAkYiIiIiIiExi4EhEREREREQmMXAkIiIiIiIikxg4EhERERERkUkMHImIiIiIiMgkBo5ERERERERkkpVgL8pkBgXrwFuLtLgj2Ls7GLtCwnHueoZSZoNHm3fAc+7d0a3NY7C2ypzz/rqL5Ogt+Pmn9QiLSwEqPYn+n45Aw7AV2HjGFh3efBOdHKqq8xLR/Vaw7w8iIiIqSbziSJZJJOLYyol4ybklug37CRHax9CseXM0e7wyTqyYjF5tO6LHpNWITr6rLnD/iGs7Mc1zAMZ8dxio/xSaN22A2jZ3cXn/Uvj4bMTJpPvfBiIiIiIic+IVRzILk1cMlKDx6M8+6Dt0Mx4bNx2zJ78K1zoPqBOVyWnnsePrcfD8MBztPg7Ayo+7oM59vPKojf4JLzX+AEl+W7Dtg3awySxF2o2ruJ5aGbZ17KGpUiqXPolIwSuOREREpY9XHMnCCKSfDMSHYxchrvcUzP/irWxBo2Rl/Ti6+kzHHM/K2PHVfAQeu6VOMZSB5Bu3lP8XjEhLREKysbm1SL54Cv/CGrb2tsr/9SrBuubDcHCoZTRozPv9SoC4jeRbxtualngTaTyfJiIiIqISxsCRLEwiwlf9grXJzfDW8J5oktdDjFUbw2vGcuzZNxv9HtcHlkrgFBOMnz4aDPcn7WBrp0FV2/Z4depP2HH2phKS6il1LByDgZPW40xsCH6a0AdO1Wuitq0dnuw6CrM3nECynFmcx4ZJw/F/X29FkvLf6V+mYPDAoZi04bzyXup7DPwUG2LuZL6t7lnIvzB75Avq+9VH21c/xq+hIQicNFSpbwNishqhLj/0R4Sn5Ij0UsKxcOhADF0YjhRdgb69a3D0yK8Y2eEJ2GqaoOv763FBK5ARH4HVs0eh65MPoXpNZagh13kpgmNuGaxzJhGzAZMGDszRFiIiIiIi0xg4kmXRXsax3VGApj26tKiDvG8ArYyaTTrCrWkD1NFUUcaVoO3oLxjZ7SWM3WyNvt/8hdCwUIT8MRx1gz9B1+4jMD/8mhpIpSPx7F4E/O2PiW99iD21B+CHkAMI2fYd3rDdAZ+XvTF1a5wyby20fH0khvVqgarKfw93eh3vjhmF11vWuvceAUdxJVWr1r8Mo3u9jYWxHfDxtr0ICwvE9BeSsPiFNzBhxe8IOHgFqVnBmrr8pnNIzMgRwWUk4uymAGw6m6heMVXn3fIN3vWaiZhnRsJvWm+0avUkav+3DZ8P6I2Bv99Gjy/XZ67zmnfhcngmOnV7H8uik3XvoCdSr+BgQECOthARERER5UM+40hU2vLc9RKDhK+DErM5TBJBiXfVwgK4c1T4ezYQcBopVpy+pRZm0v63SYx30QhN97ki4pZWKYkXQb6uShsaCE//o+JO5mwKrbgT5S88NRAOvkEiUVd2V2nSJOEAB+Hhf1wZ09O/R3/hH5V6r36XCWLzf+nqPFKqOB84Vjgp6wsPfxGV9Qbq8sbWU90G99qgr8tRdJ8TLrLWTntBrB+plGveUNqQY50TtokJcp09lTrvyHUmKj/4p4uIiKj08YojlQvamHCsD7oKF69+6P5EZvoaPauH3TBwZGck/70Fu04aPg/ZDr3dGuJeRxpWqPpoAzS2BeIizuGyvJBYQPr6m73liU4Pyyugetao/7wXXnPRqOPF0QK9OjuryXmUM+f4SPy1Ihx2b72OXk451tneFX3eaovkoB3Yn3UrLRERERFR0TBwJMuiqYvGzR2AtBSkpBU0ctMi+dxx7E+2RX3nx1Az1/2t1nBo+CTscB7HYxJzPfdXfPfqr+tgZ5BAR6V5GA3qK9FocWkewSN21dQRJXC8cQVnrgPpoQvx/qCBGCifXcwaRuPrbZeA5OM4ci5JXYKIiIiIqGgYOJJlqVQHTh0aAdcjEXkm+/N52QmkHF6FmQuWY0vkf0hXS8s120dQp6bh1UxJA4emndHT0xOe2Ya+eG30TAQGfoq+TiVxtZOIiIiIKjIGjmRh7OHaoweaIQxLA/YgLq/LgyIe+5Z/i0mjvsXmy0DNek+iOZJw4dwV5A430xB35hSuozbq1X7QRMKdoqoETYOn0EFjvH5x9RRCQ+PUsRyMXFkVN+IRU4CLhFbWD6KWJhlXbZ5C175e8PIyHPqgR9fn0LXHS3jaMdc1UCIiIiKiQmHgSBbGCjaur2DKYCec/GUBFm49Z6RfwtuI2/4jpn23F5rub2NQp0dRuUFb9PWww4kVa7A7Lvv1R3FtP35bsAtwcUNH5xK4ZdSISo6ueLlbbaX+1dh2IU0tlVJwdsdGBF1XR7NUgU0NpS3XT+FMnOH8aYgJC0GYqYutKiuH5ni+WwNcX/YbNpzM7LgjS0oEfny1DexafIANObYHEREREVFhMXAky1P1SfSb/iU+ancEn734DJ4bMhO/bN6DsPAw7Nu+Gv4fDUTn56citK0vlswfjJY2VkC1pnhj+nvoHrcI742fjcCQE4iJu4Szkevx1aj38eXFTvho/jt4zr6yWkkJq/oU3pg1DYPgj4Gv/B/8ftmI7UHrEOA3Gq99uBXaXHeL2sK5oxtcsAvzv5iHwN3hiIzcj6BfZmD0jGDUaFSA20v1dTqsw9h3psB/awTOxsUhJno3Aj6ciA//ro1BU4fheYd76X/YjyMRERERFQUDR7JAVqji0B2frNuB7f5D0eDfufB+6Tm0a9sOHbv1w7Dl19HN708E//4Z+jnrA6zKqNF2NFaHr8D/qm/AoGeeQv269dCw1Tv4/YFXsWLnz5jarR5yPiFYcqxg7fw6FgRtwveeVbHp0wHo1mcaNtx8Fl+u+hJeuS50Voa9+wdY++cktDk1D690botWrZ7HO39UxuBl8zCyUUGujMo6X8O8zYGY7nIUX7zQGg3r1kX9xj3xWeST+Hj9csx7q0m2ZD3sx5GIiIiIisJK9smhviYqNVZWVrIjNnUsPxlIvnoVSely/mqwrWMPTRVTTypqkXbjKq6n3oVVdTs8UtP6PjzXmINIQ+JNoMZDRuq6uR0TXLrhl7eDcOLLrqihFmfJSMbV+CSkV7VFndqaIga3Qnmba4hPuqNs3Oqwe6QmrO/7ShOZR+G+P4iIiKgk8IojlQFVoKn9KBwcHJShVj5Bo1QJ1jUf1s3/aGkEjVLqIcx3q4MafX5CtC7A1cvAlZCtWBfXCF3aPAGj1xGraFBbrluRg0bJSnmbWpnb6FEGjURERERUsnjFkcyi/F0xSEb0Lx+gl/cuOPuOwZAXWqF+1UScObIFC3wX49Ir8/HnvLfQVHOfnrEkqkB4xZGIiKj0MXAksyiXJ37iJs7uXIPlf/6JP39eg/BkJ3QZ0APP9+iDN7w64QkGjUQlgoEjERFR6WPgSGbBEz8iKip+fxAREZU+PuNIREREREREJjFwJCIiIiIiIpMYOBIREREREZFJDByJiIiIiIjIJAaOREREREREZBIDRyIiIiIiIjKJ3XGQWeSdTj8dcXt+xa/7r6rjOVSzR/3GTdG2Qxs0rFlVLRRIObYWCzaeUl4ZV83eEQ2feAquHZvBwdrY7yUCGckxiNy1A8H7DyHi/HVoZXF1BzRv7wa3Ls+ibUM7VNHNa4wWaXFHsHd3MHaFhOPc9QylzAaPNu+A59y7o1ubx2BtlTlnppJoc2HrzE9ZW4fCLJt/WzM9gIY9BsKrSQ11XK+4+weVJHbHQUREVPoYOJJZ5H3il4bon7zReOgqdTwPjfph+o/fwrdrPeVkXYub26fApds82HR5Ac/Wf1CdSaVNwNE1fyE8GdC4f441v/qgm8MD6kTpNuJ2L8D4YVOx8qQtXHv2RLeOzqjzwF3cPLUDy3/YitMaN4z4/jv4vdUCmpyBjEjEsd+n4/+G+WEnXNF7cA+41VcCj5vnELxxNdaFV4H7hG+xcIonnDWV1YWK2eYi1WlCWVuHQi+rb+sXiMt8hzy4wjdoM77sWlsdl4q5f1CJY+BIRERkBjJwJCptee96qSLKv78y3UF4+B8Xd9XSLNpbIjbkBzHISSPgNF6sj72jFN4ViUGThENeyyi0qRdFyMJhwgka4TRuk7iiVSeINBG77XPhroHQuE8Wf0RcFqlZ06S7IjV2nwgY111o0FoMXhEtZI1ZtDfEEf/hyvs6ii7jAkTYlTR1QiZt6jkRNL2PsqyjcP94h0G9xWhzkevMQ1lbhyItm39bjSvm/kH3Bf90ERERlT7+9SWzKHLgqHNDhPm9qMzTSLy+4ozQFjQouLVXTGumBJwOk0RQYuZc2oRtYoKLDELHisDzqboyY7Lme2auiLidFf2IO1H+wlMGFb1/EEeyRxT33Dkq/D0bCGj6iQVHktXCora5OHUaU9bWoajLFi1wLN7+QfcLA0ciIqLSx+Q4VAY9AFt7W+XfFCTcup3PM2um3EHM38vx3Yna8Jz4P7xc31otz83KvgOGfLcSQXN74fGsoyYR4at+wdrkZnhreE80yethvKqN4TVjOfbsm41+jxveIlsUJV1nWVuH0mxvcfcPIiIiovKDpzhU9oibuBh9SXnxBFo3sEceoUN24hYubA3EsiOAU5+OeMpW2fVFPA7vPIBkNEVX1/rQp9oxTgPnrj2U+Z5AzSpqjdrLOLY7SpnUHl1a1DHRjsqo2aQj3Jo2QB1NIdKnGGtzSddZ1tbhfrfXUHH3DyIiIqJyhIEjWSyRnIDLcXGIyxou4ezRPQj8YjxGfLkXmu6v4fWnDYOHJJzd/BO+mj0bs7MN0+A7wB1N+36Fi+4TsGCqBxzkQiIJV84kAHZPoqFD3leT8pQci6h/4wDbR1CnZhGDk8K2uUTqNFDW1qHY7U3C6V+mYPDAgRiYaxiDheGJ6nyK4u4fREREROUIA0eyUHH4e6wbHqtbF3Wzhnpo2Ow5vPLhDtQcNBd/Lf0fWtoYXt1JxslVfvD18YFPtuFXHHvsTSwOikT0xsn3MntmpCE5OQ2wtoFNrq4irmL7hLaQ2RuzD20xYXseXYUUSSHbbJHKwzoYYRH7BxEREZFlYOBIFsoO7cZ+hz8CAxGoDn9u3o3QsEhExUZj78+j8VyuQMQBHv7HcTcz6ROENhVXIlZhgvst7Iq4BDz6OB41DACqWEOjsVZi1FM4d/mOWqhXDY92GAg/Pz91mAHf/i3VaSpNXTRu7gCkpSAlTderXxEUss0lUqeBsrYOxW6vLRq9PQ0/L12KpbmGuRjh+pA6n6K4+wcRERFROcLAkSyUNexadEVfLy94qUOfFzqhrWsLODtoCtbRupU16rTsh08WfoFXLi3Aa30m4fczKepERaV6cO3ZRnlxHKHRCTmS7NRAE6/R+OCDD9RhPIa+6KxOU1WqA6cOjYDrkYg8k6wWGiOQcngVZi5Yji2RVyC7qc9Tvm0u4TrL2jrcj/bmpbj7BxEREVE5wsCRyjkrWDv3xdTP34bTyQUYNn4ZjqbpQ4AH8VS3l+GhOYJli/7CsazygrKHa48eaIYwLA3Yg7i8Fhfx2Lf8W0wa9S02X76L/LvjN9Xmkq6zrK3D/WqvMcXdP4iIiIjKDwaOVAHYoGE/H8wc4YrkdV9g8pJ/kaYrt0K1Jv3wyaSewLppGD1jPaJvpOumZKdFWtwh7NhzSh3Xs4KN6yuYMtgJJ39ZgIVbzyF3bHEbcdt/xLTvZDKftzGo06PKUgWRd5tLts6ytg73s705FXf/ICIiIipHZGeORKUt710vVUT591emF6aj9oJ07q4V6ecDxQgnjYBmgFhwJEktV6THiKDp/UQjpU0a1wHCd06AWBe0V4SF7habA5eKOb4DhKtG3qnYUgzw2yxOJ2WoC0rK+8ZuFR+5O+ra3G7QFyJg024RGhYqQoICxeKpA4STfN8uvuKPKIM6i9XmotapLHlhvZjo7S28J64XF7L6qS9b61C0ZQvS1jwUa/+g+4F/uoiIiEof//qSWZR+4CilivOBYzODit7fiQjDE3ztLREb9qeYmxUEGAyNPMQIv9/ErqgEka7OnpM26ZTY7j9F9Hd1MLLsnyLiSpo6p17x21z4OpVao/yFh5zHw19E5ai0rKyDXuGWLUbgKBVz/6CSJbc7ERERlS4r+T/ljzBRqZJdF1jsrpeRjKvxSdDdlGhVHXaP1IR1ge91zEDy1atISpfrVg22deyhue8dwpd0nWVtHUq5vcXaP6gkWPT3BxERUTnFwJHMgid+RFRU/P4gIiIqfUyOQ0RERERERCYxcCQiIiIiIiKTGDgSERERERGRSQwciYiIiIiIyCQGjkRERERERGQSA0ciIiIiIiIyiYEjERERERERmcR+HMks8u6HLR1xe37Fr/uvquM5VLNH/cZN0bZDGzSsWVUtFEg5thYLNp5SXhlXzd4RDZ94Cq4dm8HB2tjvJQIZyTGI3LUDwfsPIeL8dWhlcXUHNG/vBrcuz6JtQztU0c1rjBZpcUewd3cwdoWE49z1DKXMBo8274Dn3LujW5vHcnQSXxJtLmyd+SkL61CU/cOQUt/VaBwI2o6grPqqwK6BKzp264pu7Z1RO1c79XUmoWGPgfBqUkMtV4n/sG/pbwhWmmTfoT+8Oz2W534i4vdh6dJgXIUD3AYOwNN18t6jKG/sx5GIiKj0MXAks8j7xC8N0T95o/HQVep4Hhr1w/Qfv4Vv13rKSboWN7dPgUu3ebDp8gKerf+gOpNKm4Cja/5CeDKgcf8ca371QTeHB9SJ0m3E7V6A8cOmYuVJW7j27IluHZ1R54G7uHlqB5b/sBWnNW4Y8f138HurBTQ5gzGRiGO/T8f/DfPDTrii9+AecKuvBBc3zyF442qsC68C9wnfYuEUTzhrKqsLFbPNRarThDKzDkXZP1RKfdFrv4XPB7Ox7rTyOff2Qg+3BrBNuoDwPZuxcmccGvX+ALP9xsHT+SHc+5j1dZ6Bb9BmfNm1tlquJ5Bx4U+Mfn4gFuJtrNg8GwMa2qjTDGScxerR/dFvYTWMW78Cfr3qm/ghgkxh4EhERGQGMnAkKm1573qpIsq/vzLdQXj4Hxd31dIs2lsiNuQHMchJI+A0XqyPvaMU3hWJQZOEQ17LKLSpF0XIwmHCCRrhNG6TuKJVJ4g0Ebvtc+GugdC4TxZ/RFwWqVnTpLsiNXafCBjXXWjQWgxeES1kjVm0N8QR/+HK+zqKLuMCRNiVNHVCJm3qORE0vY+yrKNw/3iHQb3FaHOR68xDmVqHouwfUpKICngnsx0D/MSmqASRrk7RSU8QUZv8xADdcu+IgKgkdYKkr9NV+AbFq2U5pYlL632Ei3z/wSvE6Ts5N3qqOB84Vre+BfpMyCT+6SIiIip9/OtLZlHkwFHnhgjze1GZp5F4fcUZoS1AAKNza6+Y1kwJDBwmiaDEzLm0CdvEBBcZLIwVgedTdWXGZM33zFwRcTsr+hF3ovyFpww6e/8gjmSPOO+5c1T4ezYQ0PQTC44kq4VFbXNx6jSmrK1DUfYPg/q6fyNCEzPU+XLKENf2zsr8EcHTX0RlBX8FCRwV2kti8/iOynw5f2BQ6j+9QgxWglLT9VNBMXAkIiIqfUyOQ2XQA7C1t1X+TUHCrdt5Pl+XvzuI+Xs5vjtRG54T/4eX61ur5blZ2XfAkO9WImhuLzyeddQkInzVL1ib3AxvDe+JJnk9UFi1MbxmLMeefbPR73HDW2SLoqTrLA/rkFPO/eMWjm1enVnfmP5wrZHXrbuVYff0a3jvbVckr/0Fq8IT1fICsqoLj6mzMN39Kn6e+hVWRCdnlqefwuppX+LnuJ7w+2YY2uZZPxEREZHlYuBIZY+4iYvRl5QXT6B1A3uDZ9FMELdwYWsglh0BnPp0xFO2yq4v4nF45wEkoym6utaHsVQq92jg3LWHMt8TqFlFrVF7Gcd2RymT2qNLizom2lEZNZt0hFvTBqijKcRTbcbaXNJ1lod1yCnn/qG9iPC/DhagPoWVA9r3cIMdIrHxwDncUYsLysquI96d9R66x/2AUT7LcTTtFs6s/gZTfwYGL/4cQ5tq1DmJiIiIyhYGjmSxRHICLsfFIS5ruISzR/cg8IvxGPHlXmi6v4bXnzYMBJJwdvNP+Gr2bMzONkyD7wB3NO37FS66T8CCqR5wkAuJJFw5kwDYPYmGDnlfbcxTciyi/o0DbB9BnZpFTXNSyDaXSJ0GyvA6FHj/KFR9laGp/Qgew3WcvXQNaWppwVVGDVdvzPjYE1i3ELNmf4lPp64ARkzBJ/2ezOfHCSIiIiILpt6ySlSq8t719M+T6e5AzWNwEO0GzRW7YvUJVfTP2hmbVw4uoue4b8WKoEgRm2rwVNztQ2LOM3bZnnm8J14E+boaeS+D59wSg4Svg1JmdPn8FLHNxarTiDK3DkXYPwpVn1bcCpkhminv4+AbJBJ1ZQV8xtFQaqRY0LuBrj0a9+li15VsqXiomOR2JSIiotLFK45koezQbux3+CMwEIHq8Ofm3QgNi0RUbDT2/jwaz2XrUkNygIf/cSihgTyrhNCm4krEKkxwv4VdEZeARx/Ho4Z99FWxhkZjDcSdwrnLOW9KrIZHOwyEn5+fOsyAb/+W6jSVpi4aN1fCprQUpKTpen0sgkK2uUTqNFBm16EQ+0eV6qhRq6C3iApkpCQhARrUqlG96N1lWDfDG2NfV7aMA555ywtu7K+RiIiIyjgGjmShrGHXoiv6ennBSx36vNAJbV1bwNlBU7ATeitr1GnZD58s/AKvXFqA1/pMwu9nUtSJikr14NqzjfLiOEKjE3SXq+6pgSZeo/HBBx+ow3gMfdFZnaaqVAdOHRoB1yMReUZNhGKUQMrhVZi5YDm2RF6B7HI+T/m2uYTrLLPrUIj9o3ojdOzZAog7hIMnk9TCvCTh5MFDiEMDuLWsj+pqKREREVFFx8CRyjkrWDv3xdTP34bTyQUYNn4ZjqbpQ8QH8VS3l+GhOYJli/7CsazygrKHa48eaIYwLA3Yg7i8Fhfx2Lf8W0wa9S02X76L/HNqmmpzSddZHtYhH1a10MqjK1wQjB8XB+FCRl4VKlXG7Yb/j8GASx/0f+ZR04l0iIiIiCoQBo5UAdigYT8fzBzhiuR1X2Dykn/VpCdWqNakHz6Z1BNYNw2jZ6xH9I103ZTstEiLO4Qde06p43pWsHF9BVMGO+HkLwuwcOs55I49byNu+4+Y9p1M1vI2BnUqaDCSd5tLts7ysA75qQx795H4dnxznFw4DR8HHML1XMGjQMb1g/h58sdYcNIJgz/xRid7dptBRERElEU+6EhU2vLe9QrSwXtOBemIXivSzweKEU4aAc0AseBIklquSI8RQdP7iUZKmzSuA4TvnACxLmivCAvdLTYHLhVzfAcIV40SWaClGOC3WZxOMuzAXXnf2K3iI3dHXZvbDfpCBGzaLULDQkVIUKBYPHWAcJLv28VX/BFlUGex2lzUOpUlL6wXE729hffE9eJCVr/7ZWkdirJ/ZNIm/StWjOsuNNCIRj19xYLAbSIkLEyEhWwTgYs/E97tHJT3bS0G+UeKpKxtI+nrdBRd3vlY+Pn5GRlmix92X1LWSq8g24aKin+6iIiISh//+pJZlH7gKKWK84FjMwOS3t+JCMMAUHtLxIb9KeZmBYkGQyMPMcLvN7ErKkHklRtTm3RKbPefIvq7yuAj57J/iogr+gywesVvc+HrVGqN8hcech4PfxGVo9KysQ5FDxx10hNEVJC/mNK/nRJAGtSnaSf6T/lRbD561chnrK/TYP5cQ872MHC8n+Q2JyIiotJlJf+n/BEmKlVWVlbyzE8dszAZybganwTdTatW1WH3SE1YF/g+yQwkX72KpHS5btVgW8cemipFv8myYEq6zvKwDvnRIu3GVVxPvau8rozqdrVR0zDzK1k0i/7+ICIiKqcYOJJZ8MSPiIqK3x9ERESljz+xExERERERkUkMHImIiIiIiMgkBo5ERERERERkEgNHIiIiIiIiMomBIxEREREREZnEwJGIiIiIiIhMYuBIREREREREJrEfRzKLvPthS0fcnl/x6/6r6ngO1exRv3FTtO3QBg1rVlULBVKOrcWCjaeUV8ZVs3dEwyeegmvHZnAw2tG7QEZyDCJ37UDw/kOIOH8dWllc3QHN27vBrcuzaNvQDlV08xqjRVrcEezdHYxdIeE4dz1DKbPBo8074Dn37ujW5jFYZ+vPviTaXNg681OW1iEdN6JDsCVoB0IOnMF13YeV13L5tzOL1ZPoMdITTWzkwkVZLsPE/lsZmkcexxNOLdGhbUPUrFKoD4cMsB9HIiKi0sfAkcwi7xO/NET/5I3GQ1ep43lo1A/Tf/wWvl3rKcGcFje3T4FLt3mw6fICnq3/oDqTSpuAo2v+QngyoHH/HGt+9UE3hwfUidJtxO1egPHDpmLlSVu49uyJbh2dUeeBu7h5ageW/7AVpzVuGPH9d/B7qwU0Oc/3RSKO/T4d/zfMDzvhit6De8Ctfg3g5jkEb1yNdeFV4D7hWyyc4glnTWV1oWK2uUh1mlCW1kFZ7uiyqRg8ah5CleV6vt4NHZ3tcPviYezZsB47T9dD7+nzsdC3Kxx0wZm+nV8gLvMd8uYwCUEnpqFrDRnkFmW5OwXYfzVo1HsS5nzzLno0rAGGj4XHwJGIiMgMZOBIVNry3vVSRZR/f2W6g/DwPy7uqqVZtLdEbMgPYpCTRsBpvFgfe0cpvCsSgyYJh7yWUWhTL4qQhcOEEzTCadwmcUWrThBpInbb58JdA6Fxnyz+iLgsUrOmSXdFauw+ETCuu9CgtRi8IlrIGrNob4gj/sOV93UUXcYFiLAraeqETNrUcyJoeh9lWUfh/vEOg3qL0eYi15mHMrUOWnH7yELhoVHeb5C/iLiW7dMQ2qRosX7qS8pyDYSn/1H1s8q/ncYVZTlT+6+yL107I0JXTNLtb3AaKwLPp6rTqDD4p4uIiKj08a8vmUWRA0edGyLM70Vlnkbi9RVnlFCigCf4t/aKac2UgNNhkghKzJxLm7BNTHCRQajpk/is+Z6ZKyJuZ0U/4k6Uv/CUQWfvH8SR7BHnPXeOCn/PBgKafmLBkWS1sKhtLk6dxpS1ddDvH67CNyheLctOeylQDLZT3vv1FeK87q0tJXDUSxXnA8fmDqapwBg4EhERlT4mx6Ey6AHY2tsq/6Yg4dbt/J8/y9MdxPy9HN+dqA3Pif/Dy/Wt1fLcrOw7YMh3KxE0txcezzpqEhG+6hesTW6Gt4b3RJO8Hiis2hheM5Zjz77Z6Pe44S2yRVHSdZa1dagE6wdtoUECos5dQbpaasjKwQOf7oxE+CwPPKyWWRZr1H/xTfyvY1WcXLoZ++Plc51ERERElo2BI5U94iYuRl9SXjyB1g3sC/aMmLiFC1sDsewI4NSnI56yVXZ9EY/DOw8gGU3R1bU+9Kl2jNPAuWsPZb4n7iU10V7Gsd1RyqT26NKijol2VEbNJh3h1rQB6mjyTq+Ti7E2l3SdZW4dqsHRvT+Gu1zF2rHD8T+/3xAUHo2LN9Lu/YBgpYFjixZwrmdXyORApcjmCbTp1BC4HonIM8lqIREREZHlYnIcMov8k+MEo/ucVVjSv6FBYKFF2rUzOLh2ISZ9uBxx3ecieM27aGkjspK0aPqPxPD2D+cIRtJw5cA6LFgVChgmadGewE8vdcXQ0Fex/sRs9Hq4EAGRdHM7Jrh0wywYJlQpqHuJZQrV5mLVaUSZXIe7SD4TBP/PP8WUJXuVwF9ygGtvL/R88Tl0fqYj2jetB01W1tJ8kvhkqYK6/T/CjF6Pq+tRlOXu7b8e/tuxaYhLHr/O6ec7iNdX/I1fBzyRY9uRKUyOQ0REVPqKedZJdL/E4e+xbnisbl3UzRrqoWGz5/DKhztQc9Bc/LX0f0rQaHi6nYyTq/zg6+MDn2zDrzj22JtYHBSJ6I2T72X2zEhDcnIaYG0Dm1xdRVzF9gltdSeo2Ye2mLA9j65CiqSQbbZIpb0OlaFp6IGxPwXhbHQYggL94efbHbZHl+KzUQPQrVUTtHlrDnbH3Vbnv6dSnYZo1rw5mhsdmuCJh4xfdy7qcvmrjocerKa+JiIiIrJcDBzJQtmh3djv8EdgIALV4c/NuxEaFomo2Gjs/Xk0nssViDjAw/847gpd0icIbSquRKzCBPdb2BVxCXj0cTxqGCBWsYZGY63EqKdw7vIdtVCvGh7tMBB+fn7qMAO+/Vuq01Saumjc3AFIS0FKmq4jwSIoZJtLpE4DZXkdrKxR28kVXb2G4IMvl2LHiTjERu3FH9N7AyvHo+fAHxGZYnhVyhZPvDgE73/wAT4wOryP/3Wqa+TKX1GXMyUN1+LilX8fQA2bB3i1kYiIiCweA0eyUNawa9EVfb284KUOfV7ohLauLeDsoDHREb8BJbCo07IfPln4BV65tACv9ZmE38+kqBMVlerBtWcb5cVxhEYn5EiyUwNNvEYbBAfjMfRFZ3WaqlIdOHVoVIDn1ARSDq/CzAXLsSXyCkymQsm3zSVcZ1lbh4wriNy6Fmt2RCM5552KVTRwcO6IfpO+wcIJzyD579XYcDhRnWhh0mNxLPScEkQ/hWYNZKInIiIiIsvGwJHKOStYO/fF1M/fhtPJBRg2fhmOpukjjgfxVLeX4aE5gmWL/sKxrPKCsodrjx5ohjAsDdiDuLwWF/HYt/xbTBr1LTZfvov8u+M31eaSrrOMrcOd09jw/lvoO+oXHLh+VzdbLlY1UM/5MeVFEm6mWGLGUiUgPhaEFUHnoOnmjg6OvFWViIiILB8DR6oAbNCwnw9mjnBF8rovMHnJv0jTlVuhWpN++GRST2DdNIyesR7RN4x18KBFWtwh7NhzSh3Xs4KN6yuYMtgJJ39ZgIVbzyF37Hkbcdt/xLTv9kLT/W0M6vSoslRB5N3mkq2zjK2DTVP0Gv48NCeWYc6yMFzPyB11ipuRWLdiH+DUDV2b11RLLYWyL13Ygi/H++FveOLjKX3gVJU3qhIREZHlY1ZVMou8syIWNCulIX32yyVonucyAhkX/sTo5wdiYVxPLNi3GCOaajInZVzE9lnj8L8PA/Gf6wCM8u4Jt2ZPom6NDFy9cBZR+zci4PuVCE9uiQF+X2LGiOfRUKO/5qa8b9w2fP7mUHy2IwPtBo3B6AHP4qk61ZGReAFHd/6OLz9fibguvljyw1T0c1brLFabi1qnsmTMBkyesgqxdftj2oxecNTFLGVsHZIP4+fRgzB0yUk06jkcYwZ0QTMnB9ik/IfzZw9h4w8LEHC8FT5a8yOmdquHKlntzCv7q6EH0LDHQHg1qaG8Lspy1dT9dxOcci2TgZsX9mPjz2sQjpcM2keFlff3BxEREd03MnAkKm1573qpIsq/vzLdQXj4Hxd31VLT7orEoEnCId9lUsX5wLHCSalb0/s7EZGUoZYrtLdEbNifYq7vAOGqUaIaGdnoh0YeYoTfb2JXVIJIV2fPSZt0Smz3nyL6uzoYWfZPEXElTZ1Tr/htLnydSq1R/sJDzuPhL6JyVFpW1kHSpp4XewKmi3fcnbIvByfhPmK2CIz4z+Cz0rfTcL68BlfhGxRfjOX0+6+xeZxEl/7viAlzVprclyh/cnsSERFR6eIVRzILi75ikJGMq/FJ0N20alUddo/ULERH8hlIvnoVSely3arBto69QX+C90tJ11mW1sFwOStUta2N2hpewyvveMWRiIio9DFwJLPgiR8RFRW/P4iIiEofk+MQERERERGRSQwciYiIiIiIyCQGjkRERERERGQSA0ciIiIiIiIyiYEjERERERERmcTAkYiIiIiIiExi4EhEREREREQmsR9HMou8+2FLR9yeX/Hr/qvqeA7V7FG/cVO07dAGDWtWVQsFUo6txYKNp5RXxlWzd0TDJ56Ca8dmcLA29nuJQEZyDCJ37UDw/kOIOH8dWllc3QHN27vBrcuzaNvQDnl3La9FWtwR7N0djF0h4Th3PUMps8GjzTvgOffu6NbmMVhn68++JNpc2DrzUxbWIf86Mz2Ahj0Gou+jJ/HbzzsQKx5GhzcHoJPDA+p0Q3eRfOwv/LwxGnDpjeG9nGGtTtG172o0DgRtR1BW+6rAroErOnbrim7tnVE713qVxHYhU9iPIxERUelj4EhmkfeJXxqif/JG46Gr1PE8NOqH6T9+C9+u9ZTTeC1ubp8Cl27zYNPlBTxb/0F1JpU2AUfX/IXwZEDj/jnW/OqDbtkCiNuI270A44dNxcqTtnDt2RPdOjqjzgN3cfPUDiz/YStOa9ww4vvv4PdWC2hyBmMiEcd+n47/G+aHnXBF78E94Fa/BnDzHII3rsa68Cpwn/AtFk7xhLOmsrpQMdtcpDpNKDProK/zC8SpJca5wjdoM77sWhPxu2dhQM8vcPGVhdiw4A04Z4tEBTJi/4JPt9ex2OEjbA18Dx3t1LqU9kWv/RY+H8zGutPKftHbCz3cGsA26QLC92zGyp1xaNT7A8z2GwdP54dw712Luz9Sfhg4EhERmYEMHIlKW967XqqI8u+vTHcQHv7HxV21NIv2logN+UEMctIIOI0X62PvKIV3RWLQJOGQ1zIKbepFEbJwmHCCRjiN2ySuaNUJIk3EbvtcuGsgNO6TxR8Rl0Vq1jTprkiN3ScCxnUXGrQWg1dEC1ljFu0NccR/uPK+jqLLuAARdiVNnZBJm3pOBE3voyzrKNw/3mFQbzHaXOQ681Cm1iH/OnPRJohQP0/de3X32ycSDbaHNilS+A9qrexL74iAqCS1VEoSUQHvZLZ7gJ/YFJUg0tUpOukJImqTnxig2w9zLluc/ZEKgn+6iIiISh//+pJZFDlw1LkhwvxeVOZpJF5fcUZoCxpM3NorpjVTTvQdJomgxMy5tAnbxAQXefI/VgSeT9WVGZM13zNzRcTtrOhH3InyF54y6Oz9gziSPeK8585R4e/ZQEDTTyw4kqwWFrXNxanTmLK2DkUIHKXUoyJABojoKMatP58ZBGrjxK6PX1ICSlcxIvCMQWBo0L7u34jQxAy1PKcMcW3vrMwfHTz9RdQd/XoUfX+kgmHgSEREVPr4cA2VQQ/A1t5W+TcFCbdu5/Osmyl3EPP3cnx3ojY8J/4PL9e/92RbTlb2HTDku5UImtsLj2cdNYkIX/UL1iY3w1vDe6JJXg8UVm0MrxnLsWffbPR7vLi3JJZ0neVhHQrA+im8NnUCBjv9i2/f+xrrLlzDmd8/w7BPj6Ddx7PxWd8nDJ5fvYVjm1dntm9Mf7jWyOtW38qwe/o1vPe2K5LX/oJV4YlqOREREVH5w8CRyh5xExejLykvnkDrBvYGz5aZIG7hwtZALDsCOPXpiKdslV1fxOPwzgNIRlN0da0Pfaod4zRw7tpDme8J1Kyi1qi9jGO7o5RJ7dGlRR0T7aiMmk06wq1pA9TR5J1eJxdjbS7pOsvDOhSIFao27INpX4+Ey0l/THxvDHyn/oK43hPxzQedUMewEdqLCP/rYAHap7ByQPsebrBDJDYeOIc7anG+jG0XIiIiIgvG5DhkFvknxwlG9zmrsKR/Q4MTdy3Srp3BwbULMenD5YjrPhfBa95FSxuRlYxE038khrd/OMfJfhquHFiHBatCAcNkJNoT+Omlrhga+irWn5iNXg8XMji5uR0TXLphFiYh6MQ0dK1RmJP/ewlUCtXmYtVpRJlbh3wSz+g8hI5jPscI14fUcQPiKkK+GASPD/9CsuYN+IcvwhBnG3WiqlDtE0jZNxMdOk5Ggm8QTnzZFTWKul2owJgch4iIqPQV86yT6H6Jw99j3fBY3bqomzXUQ8Nmz+GVD3eg5qC5+Gvp/5Sg0fCUPBknV/nB18cHPtmGX3HssTexOCgS0Rsn3ztJz0hDcnIaYG0Dm1xdIlzF9gltdSeo2Ye2mLA9j65CiqSQbbZIZWgdMq7jwqlYpcWK5LP4N/oqZAcb90d5+GyJiIiIMjFwJAtlh3Zjv8MfgYEIVIc/N+9GaFgkomKjsffn0Xgu1wm3Azz8j+Ou0CV9gtCm4krEKkxwv4VdEZeARx/Ho4YBYhVraDTWSox6Cucu57zJsBoe7TAQfn5+6jADvv1bqtNUmrpo3NwBSEtBSpqu18ciKGSbS6ROA2V2HWzR6O1p+HnpUizNNczN42rjDUQu/BDDfr6Onj6+8NY97zgTgWdS1BlUVaqjRi2NOpIfgYyUJCRAg1o1qufo57OQ24WIiIjIgvGshSyUNexadEVfLy94qUOfFzqhrWsLODtoTHTEb8DKGnVa9sMnC7/AK5cW4LU+k/C7YZBQqR5ce7ZRXhxHaHRCjiQ7NdDEazQ++OADdRiPoS86q9NUlerAqUMj4HokIs/ormHlQSDl8CrMXLAcWyKvmL7ClW+bS7jO8rAOBXIbcdvnY/zkTXAYPBNzp3+KL3TPOy7AsPFLEJl8V51PUb0ROvZsAcQdwsGTSWphXpJw8uAhxKEB3FrWR3W11Kj8tgsRERGRBWPgSOWcFayd+2Lq52/DSRckLMPRNH2I+CCe6vYyPDRHsGzRXziWVV5Q9nDt0QPNEIalAXsQl9fiIh77ln+LSaO+xebLd5F/d/ym2lzSdZaHdciPQPqZNfhw5JfYUW8kvp7WBw2rWqNuT1/8NL0nsG4mxs8NwXV9O6xqoZVHV7ggGD8uDsKFjLwaqLxz3G74/xgMuPRB/2cezfEsozGmtgsRERGR5WLgSBWADRr288HMEa5IXvcFJi/5F2m6citUa9IPn0ySwcM0jJ6xHtE30nVTstMiLe4Qduw5pY7rWcHG9RVMGeyEk78swMKt55A7BpBXun7EtO/2QtP9bQzqVJDgQsq7zSVbZ3lYB9PEzQOYM8IHP8d1g98vE9GzrnqLs1VtPD3mU8zoXRk7PvTF51tjlRBTqgx795H4dnxznFw4DR8HHML1XMGjQMb1g/h58sdYcNIJgz/xRif7goa2eW0XIiIiIgsmiMwg710vVUT591emF6aD94J0uK4V6ecDxQgnjYBmgFhwJEktV6THiKDp/UQjpU0a1wHCd06AWBe0V4SF7habA5eKOb4DhKtGxhQtxQC/zeJ0kmGH8Mr7xm4VH7k76trcbtAXImDTbhEaFipCggLF4qkDhJN83y6+4o8ogzqL1eai1qkseWG9mOjtLbwnrhcXsvrdL0vrUMDO9fWUz3bbR7KT/9ZiUMBRZe/KSSvunF4hBsv2OY0VgefvzaFN+lesGNddWVYjGvX0FQsCt4mQsDARFrJNBC7+THi3c1Darryvf6RIytqWUjH3R8oX/3QRERGVPv71JbMo/cBRShXnA8dmBiS9vxMRhgGg9paIDftTzM0KEg2GRh5ihN9vYldUgkhXZ89Jm3RKbPefIvq7ymAi57J/iograeqcesVvc+HrVGqN8hcech4PfxGVo9KysQ6FCBy1N8QR/+FKvRrhMm69uJSeLbozoG+fRjgNWiKOGO4X6QkiKshfTOnfTgkgDdqnaSf6T/lRbD561cg+UQL7I5kkPwMiIiIqXezHkczCovthy0jG1fgk6G5ataoOu0dqwrrA90lmIPnqVSSly3WrBts69tBUKepNlgVV0nWWh3UoaVqk3biK66kyiU5lVLer/f/s3QucTeX+x/HvFIVGGaUax0jJpSjkUkQulS6EdKRUQ8U/OS45J3RTnROS0SmX0ql0onJ0GRGVZJRLVAYzhYwijGbKXcadef7r2bP22DNmtj33PTOf9+u12Gvttdd61uXZe/1mPev5qRI9ohaZoP7+AACghCJwRJHgwg9AbvH9AQBA4eNP5gAAAAAAvwgcAQAAAAB+ETgCAAAAAPwicAQAAAAA+EXgCAAAAADwi8ARAAAAAOAXgSMAAAAAwC8CRwAAAACAXwSOAIKOTfAOAACA4BFiHO5roNAQGADIC366AAAoXASOAIKK7x8V+HoCAAAIDjRVBQAAAAD4ReAIAAAAAPCLwBEAAAAA4BeBIwAAAADALwJHAAAAAIBfBI4AAAAAAL8IHAEAAAAAfhE4AgAAAAD8InAEAAAAAPhF4AgAAAAA8IvAEQAAAADgF4EjAAAAAMAvAkcAOTZ06FDNmzdPu3btcqcAAACgJAsxDvc1AAQkJCTEfSX17t1b3bp1U5MmTVS5cmV3au75LpuvJwAAgOBA4Aggx3yDO1+dO3dW165d1a5dO1WrVs2dmjMEjgAAAMGHwBFAjmUXOPryBpFXXnmlGjZs6E49NQJHAACA4EPgCCDHAgkcfTVt2lSRkZFq2bLlKYNIAkcAAIDgQ+AIIMdyGjhmNnLkSLVu3VpXXXWVypcv705NQ+AIAAAQfAgcAeRYXgNHXzaItB3reDvXIXAEAAAIPsUucMzPC1YAwcX20Prmm2+6YwSOAAAAwYI8jgAAAAAAv4r1HUfuRgBFIz/v/GfOA0kdBwAACD4EjgByLK+BI53jAAAAFC8EjgByLKeBozcdR6NGjbIMFn1RxwEAAIIPgSOAHAskcMxJ7kZf1HEAAIDgQ+AIIMeyCxw7d+6srl27ql27dqpWrZo7NWeo4wAAAMGHwBFAjvnWQ9u5zS233KJmzZrlOlj0RR0HAAAIPgSOAHJs6NChuuGGG9J7Qs1P1HEAAIDgQ+AIIKhQxwEAAILPae7/AAAAAABkicARAAAAAOAXgSMAAAAAwC8CRwAAAACAXwSOAAAAAAC/6FUVQKHbunWrDhw44I5lVKdOHfeVlJCQ4L7KqEKFCvmSMxIAAACBIXAEUOgmTpyoAQMGuGM5N2HCBPXv398dAwAAQEGjqSqAQteyZUv3Ve7k9fMAAADIGQJHAIWuYcOG6ty5szuWM/Zz9vMAAAAoPASOAIpE165d3Vc5k9vPAQAAIPd4xhFAkbAd5ERERLhjgUtMTKRjHAAAgELGHUcARcIGfzltrmrnJ2gEAAAofASOAIpMTpudRkZGuq8AAABQmGiqCqDI7Nq1S+eee647dmo7d+5U5cqV3TEAAAAUFu44AigyNgjs3bu3O+afnY+gEQAAoGgQOAIoUt26dXNf+RfofAAAAMh/NFUFUKQCba5KM1UAAICiwx1HAEXKBoNDhgxxx7Jm3ydoBAAAKDoEjgCK3KnScuQ0bQcAAADyF01VARS5gwcPqkKFCu7YyQ4cOKDy5cu7YwAAAChs3HEEUORsUDhy5Eh3LCM7naARAACgaBE4AggKrVu3dl9llN10AAAAFB4CRwBB4aqrrlLTpk3dsTR2/Nprr3XHAAAAUFQIHAEEBdscNTIy0h1Lk3kcAAAARYPAEUDQaNmypfsqTeZxAAAAFA0CRwBBo2HDhunNVe3/dhwAAABFj8ARQFDxNk+lmSoAAEDwII8jgKCydetWRUREKDExUdWqVXOnAgAAoChxxxFAULHB4pAhQwgaAQAAggh3HFEkfI8jAOQU3/8AABQuAkcUCXscOX4AcoPvDwAACh9NVQEAAAAAfhE4AgAAAAD8InAEAAAAAPhF4AgAAAAA8IvAEQAAAADgF4EjAAAAAMAvAkcAAAAAgF8EjgAAAAAAvwgcAQAAAAB+ETgCAAAAAPwicAQAAAAA+EXgCAAAAADwi8ARAAAAAOAXgSOQr/Yo/v3xGjv2dX3x6wF3mq8/tXbGBOf9sRr73grtNu7kdEZHf52nCfb99+OV4k49mXc5b2tx8lF3msMc0J69R9yR/JLNuoJFXrf5wFrNeHGsXpyxVlkdsYAUyH53FeSyAQAAAkTgCOSrUIWftVGjhjyv15b8plR3aroDa/TxM09oyJAhGjJiplbtPu6+4XVUyd+/ryeGTNGGs87TWe7Ukx3R799NcZbzmX7eZ5dhdCx5ocY/cI9Gr/gzbZZ8k3ldwSKftvnY7/ruxSF68bvfdcydFLiC3O8FuWwAAICcIXAE8lUZnXd5Y7UO3aSFSxO0I8MdRaMjP8fqs9V1dE9kB4WtW6Jl6/e577nMdv3w9fdKCW2mNldWUYg7+WSV1eLxz5SUNEl3XnKmM2504KcvNPrtROdVfsu8rmBRkNscqIIsQzBsHwAAQBoCRyCfnVbtCrW9Mky7l/yojQd9L/n366eFX2hpWEt1/8cD6h4Wq+kxP2VsHnlwi+KXbFLoDW3UtNoZ7kSXOayU/d57YqepXKXzFR5+rkLLZB9enixVh/b+qUM5ikROvS5zaK92pgRyv87oWMou7Tl00r3YQhV4eS1nn+3Zph0Bz5+V/FhGVo4pZc/+XNwpBQAAyBkCRyC/nVFDzW5tIK3+Rt//vN+d6Di6RSsWrFHozc3VoF4jtbn5Aq3+LFY/H/FGcd47kmV1ZdsrVO20vVrx2kD1fHym1qx+Tw9ffbEqhl6udv+YrS2p7ns9/6k5iduc14/ob/+ep31KUsy/B7nTvc/FOcHa9jjNGNtP7S49R+UrOcPZzXTn8Clakrg/gLtZvuuyy/SWa7Y2Ji3TW8O6qFb5SjqvYpgubddPY+esU0r6Qt15H3xVMStna+z9LRVW8VyFla+mJnc+o/dW/JEp6PHO/7pWHMhUsgMr9NqDPfXgayucYNvO52+bs3JUu9fYMlyrsz3ldfblwxP0xS+7s9gHh7U9fqbGPnK7mlQ8XeXDLlAVz/b11aj3V2j7MfuJU5UhkGVkx9+ynSA0cYneevp+tb00TBXDQlW2oj2eb+mrX/8M4HgCAADkHIEjkO/O1uXXtVFdrdO367anX8ib5B81P+Z03da5mSJOr6qmtzRX6NIvtPAnb3B5VL+vi9MPaqHurS/VGc743l+XauoXL6l/19FKbPGwokZ0UsOGtRR+mvve1DXadvBMXdSul3p3vFJldY7qdbxfAwfeoQZhpzvLtM/Jzddz3Tup5weHdesLs7U8drmWzeyvuj+MVqvr/6F312ffBU8a33XZO4Xu+JeT9di9T2rxed31n2Xfa9n8V9Sj4lcaclukhs9LdrfbnfeDKD10xz/1Y6OntGTjr0pYPkl3nTZL97Z5UGOW7fAJdtz5P9+kvZkDq2N79evnU/X5r3udYLOcn23OynH9GfuKul/TQ6/tul6vzl+q2OVvavBlazX8zmGakaHF8DFtX/SiurccqE/VXs9+9p1iY2O1fOFbeuD8b/XkXX00LPoXp6T+yhDoMrKT3bKllDXv6OHrb9GgueV0+0ufph3Pj/qo6pJn1e7Gvpq4YhfBIwAAyH+mmLFF9g4ovkr68Uv9Y7bpGyYT1ne2+SPVTjlsNk9/wISG9jCTE/bbOczhuPGmhWqYzpPXmCOeD201s/vWN6o/yizbbz+03cQMbezsqwhz47gVxn7qBO973ZzlHXTGj5u9MY+bcDU2Q2O2p81ipW4xsx925ktf7wmpO+ebYXVDTWjnySbhiKeQ2ci8Lu+4T9k9Us2RhMmmc6hM+NAYs9czzWcbor41e31Wk77+9q+Z1Ye9b7jzhz9uYvYed6e59saYoeG+y85mm7NyZI2Z3LmGUd1hZu4fR92J1j6zelJ3E+qcj+nLTZ/3KROz85hnLq/UzdPN3c72hd493Wz2FDmbMuRoGdnJYtne5dZ62EzfkOl4/vG5GWz3543jTZzn/Cm5+P4HAKDwcccRKAAhVeqpzc01Tzzn6O305spr1LhGeTuHzrislbq32KuY+T8q2V4K79ug77/+TXU7NFPt8r7PEl6pjq1rq4I7lhNme7w+nb5CYfferY61Mi4hpHJjdbm3iVJivtJ3fpt4ZqepOrW8RGXdMbtNZS+soToVpeS4Tfrd9zHG0Bv14J2NdLbPZqWvf95sxaTfdS0YaXd7d6hut1vV/Pwy7lQrVJffertucyLHdGUv1wMzf9a+ZY/pusq+dzBTdVin62xng1N27vf/nGh+LCMLqYkrNNtuR9c7dOPFmY7n+S3V8+HWSvnyCy30bSINAACQDwgcgYIQ4jZFXb1Ka7celtm9TkucoLD+rU1U6ww3enKfhUyZu0w/bD+mI7/GK2bdX9SmZV2F+caNoRfogrBMHeUEyOzZpo27paPLX9M/evVUz56+wwD9e/5vTgTzk1ZvytS7a36reIGqVPIN2Kxyqhxexfn/d/2281DapAKRqn2/xOvrlIqqXuN8J1TMKOS86qpXI/PU01Tm4AYtnv2eXhs7QsP63quOTaqp/EXd9B9nfwYmP5bhK1Upm37Sd3Y7av9FlU7qp6icwi+5VGHarJ8S99JcFQAA5CsCR6BAnKFqVzbTlfpJy9dv1741SzRrXQPddf1lPncO3Wchd6/Q9wl/aOsP3+uHrNJwZBl05USowuu1VofOndU5w3C77howWtHR/9TttTIHTqVImfKqaG8Bpjus5JhRurV2A7UbPFnLtktVGt6kB0Z+qNU/fqhB4e5sfuXHMgAAAIIHgSNQIEJ0Rq0murX+b1oSv0Y/rlqudXVbqnntiu771mmqWKex2oStUczK5Vq5NE7KKg1HHoSUO0vnhqZoR4XL1O72rura1XfoolvbXad2t96iayLKuZ8oIIcO6MBJKTgOaVeyE1HpEtWplilwzWJ+s2e7EnN1Y/Q0hda4TFeH7tOWTduUuSsgs2erfvrpxC1As+1L/avbcC1v/pKWr/xSU154So/2vU9db7pWl59fTocDuDmaH8s4mbMd1S7VFcp6O+z+TN74i3brPFU77yw/OUABAAByjsARKCgVauu62+tp9ay39frcNQprc7XqZ+r1M6RKI3Xo/hf9tChaM78+qOtva6yIPNXKw/rzwOH0Zooh4VfohutraPe7/9OcnzNkjJQOxOn1O69S2JWPak5y9v175ovdXyj6q80ZUm+YXSs0891YhXa+WS0vPtOdWkYVznaC692/aGOyb3R1SImxyxSbZQewGbc5K6dFNNZt15+ndR9+pmXbfEtxVL9/v0Ax6XGj0dHkX/WDM16x0ZWqfbbv8XLKsGS+z7y+fMuQ22Vk58SyT6vRRLe3D9O66TO1KNMxM7u+0/8mLZRO+gMFAABA3hE4AgXmHNVp1lhhy9/X1M9P181t6qlK5ttAIVV0ZZtmOjrjXb23rq7aNa7u09lMToSoTIWKOlebFPPhNL0/I0Zr9xyXyl6mHmNGqFf4Jxr00FOaPC9OvyYnK3H9Ik198jE9+eV56jW8t24Iz91aA7dObz85VM998J0TEP6mX+M/14TBQ/TC1uv1zFNdVKusd8dUVO3mLVVXCzXx+QmKXrRC8fHfKeadURowaonOrul7ZzKbbc5K2Tr661ODdOPWVzRg4MuaE79RyckbFT9nnAY/O0ep6YsNUdmIy9WqbqiSP/6f/rfsF2e+ZCUnrtOy90drwGPOvBmeh8yqDKk5XEZ2slj2gbrqMfLvujH5Df198FhFL1unRM/+nK0X+/3D2Z+t9PTEhzJ1yAMAAJAP3N5Viw1bZO+A4qu0HD9v6gWFPmCmbz7sTvV1IoXFiTQcXn5SU5yUIsNxcJ356JEbPakllCE9xDGzb8MXZlzf9qZmev0JNTXbPmyiZv9k9p0yc0PmdWWxbi83ZYbaTzYJniJ7573FDH/zJfNQ03B3/eGmcbenzbuxvxvf5BgeqXtMwscjTffG3nmdsnZ61nz801LzZvtwn3Qcjmy3OStHzK646WZYh7rucmVCmz5sJn36hhmQIc2Hs7/WfJBhPqmu6TB0slmwYb2ZP6yFUdjDJvo3NxFJlmXI4TKyk92yE+aYqF4t3Ol2CDdNI0ea6VntzxLIbjMAAChcIfYf50e42AgJOXHLppgVHT7sceT4FYRUHdqzQ7uPVVCV80KVsUsdo2Mpu7R93xHnAJRX2AWVVK7AH4TboQXDbtb1Yy7R5ISpeuCSY9qxfZ+Olq2YRfkyOZYS4Lz+tjkrx5SyY4f2HS2rilUqK7RMdjvBO59UtuJ5Oi/U35KzK0NOlpGd7JbtTj943DmcYbqgUjkV+OEMEnx/AABQ+AgcUSS48CstMgWOtQu4Ex6UCnx/AABQ+HjGEQAAAADgF4EjgAJUVudc3EKRkfV0fnm+bgAAAIormqqiSNDUDEBu8f0BAEDh4xYAAAAAAMAvAkcAAAAAgF8EjgAAAAAAvwgcAQAAAAB+0TkOikTJ6tziqJIXv6f3vtvhjmdyRmVVr1NPTa6+SpdUKutOtIwOrJ2lSZ/94rzK2hmVI3TJxZepcfP6Ci+X1d95bFL/RMUv/EpLvluluM27lWonlw/XFc1aqmWba9XkkjD/yfOTV2vpoiVauGyFNu0+5kyroAuvuFrXtb1R11/1F5VLr3L5UV4rJ+sMRLBvwx7Fvz9VXyaW0xV33KubLq7gTvf6U2tnTNFnGw9L4W31YI/GCsuw/UZHf/1Sr0X/oMMRNyjyik16J8/lL97oHAcAgMJH4IgiUbIu/A5p/VuRqvPgh+54NmreoZGvv6yh7aq5gVyq/lzwlOpeP0EV2tyka6uf5ZmaLnWn1sz8VCtSpNC2z2nme0N0ffiZ7pvWYSUvmqTBvYfr/Z8rqnGHDrq+eW1VOfO4/vzlK037zzxtCG2pvq++oqh7r1Ro5mDM7NXaD0bqb72j9LUaq9P9t6pl9bOdOGaTlnw2Q5+sKKO2w17Wa091Vu3Q050P5LW8jhyv8xSKxTYc07Y5j6rubbPUeuo8Rd9XK2NTjwPLNPLq9npqtbPSuk8p5ptn1a6y77Yf0Zb3H1a9u77XvbM/0+gKk3RZXspfAhA4AgBQBGzgWJzYInsHFF8l6/gdNAmTuznbFG7aT/7JHHenpkvdb5KW/cf0qhVqVGuwmZ10xH3juNkb87gJz+5zjtSDW82y13qbWgo1tR753GxLdd8wh0zS/OdM21CZ0LZPmI/ifjcH09+zjpuDSd+aqY/caELVyNw/fb3xrtUjdY9ZPbmPs9wI0+aRqSZ22yH3jTSpBzeZmJFdnM9GmLbPfOWuNy/ldeRqnX4Uo204vmGq6eIcq7C+s80fGbYr1RyOG29aqLG5J7KDCVMbM2LZbvc9V+pWM7tvfaPQB8z0zQfzVv4Sgu9/AAAKH4EjikSpChw99pjYqJudeWqau6dvdMIF69RBjMf+pWZEfSfoDH/cxOxNmyt153wzrK4NRAeZaCeYyE76fC3Gm7jD3ggi1RxJmGw626Cz03/M6owR5wlH1pjJnWs4AcsdZtLqFGdC7sub+3Vmp5htw+FVZlyLMKP6o8yy/b6f22fixnUwChtkPomPNn3DQk39EUvNfvddD7csoV2mmg3H81L+koPvfwAACl/JfAAGCDpnqmLlis7/B7Rz/+Fsn08LzBElfjlNr6w7T50f+z/dVr2cO/1kIZWv1gOvvK+Y8R11UXpt36sVH76jWSn1dW+fDro8uwcKy9ZR11HTtPjbsbrjorw2d8zvdRazbTijhprd2kBa/Y2+/3l/2jTr6BatWLBGoTc3V4N6jdTm5gu0+rNY/XzEe4YYHfk5Vp+tLqsr216hanxjAwCAIsJlCFAYzJ/auv4358XFalSjsrIJOU5m9mvLvGi9u1qq1aW5LqvoVFmzXT98/b1SVE/tGleXb3c7JwtV7Xa3OvNdrEpl3LWm/q61ixKct5qpzZVV/JTldFW6vLla1quhKqHZd6+TQVbltfJ7ncVuG87W5de1UV2t07frtqf/4cAk/6j5Mafrts7NFHF6VTW9pblCl36hhT95g8uj+n1dnH5QC3VvfanOcKf6lV35AQAA8oArCiAfmZSd+j05Wcnpw2/6dc1iRT8/WH1fWKrQG+/S3ddkDjr26de5b+nFsWM1NsMwQkO7t1W921/U1rbDNGl4e4XbD5p92rZxpxR2qS4Jz/5uY7ZSkpTwY7JU8QJVqRRgMJVBDstr5XmdmRS7bThNFes0VpuwDZr79Rpt90SOR5S4bJ5m62rd0OgC55w4Q9WubKYrtUYLVmxxQkaH948E9a9Vs1q+HeHkovwAAAB54TZZLTZskb0Diq+Sdfy8zzieODdPHsJN017jzcIk385UvM+rZTW/HeqaDo+8bKbHxJukgz7PqXmfl8vy+bXtJmZo4yyW1dgMjdmeNsveGDM03JmW4+ffclleK9frzEZx3IbUjWb63TVPPOfo7fTG9/lT99iG3j3dbLaT9i40w+uGmbrD5pudnlnyUP4SxG4rAAAoXNxxBPJNmJoOekUfRUcr2h0+nrtIy2PjlZC0Xkv/O0DXZZkaIVztJ/8k5zLfXg3LpB7UtrgPNaztfi2M+0268CJd6JuPr0w5hYaWk5J/0abfj7gTvc7QhVf3VFRUlDuM0tBuDdz3XKFVVecKJ/Q4dEAHDnmyPuZQDstr5XmdmRTHbQhxm6KuXqW1Ww/L7F6nJV//pvq3NlGtM9zbgu6zkClzl+mH7cd05Nd4xaz7i9q0rJspt2Muyg8AAJAHXFkA+aacwq5sp9u7dlVXd+hyUys1aXylaoeH+knCn0lIOVVpcIeefe15/fW3Sbqry+P6YOMB903HadXUuMNVzouftHz9Ts+tphPO1uVdB+jRRx91h8F68Oba7nuu06qo1tU1pd3xit+Y4k7MitGBHz7U6EnT9EX8NtkU91k6VXmt/F5nsdwGb1NUe9y2a9+aJZq1roHuuv4yVXDnSH8WcvcKfZ/wh7b+8L1+OOUzlY5Ayg8AAJAHBI5AUApRudq3a/hz96nWz5PUe/C7WnPIGyKepcuuv03tQ1fr3Tc+1dr06YGqrMa33qr6itWUqYuVnN3HzXZ9O+1lPd7vZc39/bj8p+P3V14rv9dZHLchRGfUaqJb6/+mJfFr9OOq5VpXt6Wa17a97Xp5n4Vco5iVy7VyaZx0Qxs1rRZItzinKj8AAEDuETgCQauCLrljiEb3bayUT57XE2//qEOe6U4AcvkdevbxDtInIzRg1Gyt3+PpSiWTVB1KXqWvFv/ijnuFqELjv+qp+2vp53cm6bV5m3RyfHFYyQte14hXbIc+96lXqwudT51KduW18nudxXQbKtTWdbfX0+pZb+v1uWsU1uZq1Q/LGM6GVGmkDt3/op8WRWvm1wd1/W2NFRHwN7W/8gMAAOSBKWZskb0Diq+Sdfy8neOcIin7SQJJ5p5qjm6ONn1rhRqFdjeTVu9zpzuOJpqYkXeYms6+DG3c3QwdN9V8ErPUxC5fZOZGTzHjhnY3jUNtXWlgukfNNRv2HXM/aDnLTZpnnm4b4Sl3017Pm6mfLzLLY5ebZTHR5s3h3U0tu9w2Q81HCd515rG8uVqn86kts81jkZEm8rHZZotv7vxitA0nHDV/zB5kwpx5pJrm7ukbnSVmdthsnv6ACfXM08GMi/NdTl7LXzLw/Q8AQOEjcESRIHC0AgkCrINmc/SgtICk0ysmzjcATN1vkmI/NuPTg0SfoWZ70zfqf2Zhwk4nXMla6r5fzILJT5lujcOz+OzHJm5bVr3A5qG8jpyt01lrwmTT3r7ffrJJyGKlxWEbfKVunm7utscq9AEzffNhd6qvVHPE2ebOdh5vD6zp8qf8xZ3d1wAAoHCF2H+cH+FiIyTkRMOvYlZ0+LDHkeOXz46laMf2fWn5/0LKK+yCSip36raZrmNK2bFD+47aY3KGKlaprNAyAX84l/J7nSVhGxAIvj8AACh8BI4oElz4Acgtvj8AACh8dI4DAAAAAPCLwBEAAAAA4BeBIwAAAADALwJHAAAAAIBfBI4AAAAAAL8IHAEAAAAAfhE4AgAAAAD8InAEAAAAAPhF4AgAAAAA8IvAEQAAAADgF4EjAAAAAMAvAkcAAAAAgF8EjgAAAAAAvwgcAQAAAAB+ETgCCCohISHpAwAAAIJDiHG4r4sF34vJYlZ0+CAoAJAXfP8DAFC4CBwBBBXqOAAAQPChqSoAAAAAwC8CRwAAAACAXwSOAAAAAAC/CBwBAAAAAH4ROAIAAAAA/CJwBAAAAAD4ReAIAAAAAPCLwBEAAAAA4BeBIwAAAADALwJHAAAAAIBfBI4AAAAAAL8IHAEAAAAAfhE4AgAAAAD8InAEAAAAAPhF4AgAAAAA8IvAEQAAAADgF4EjAAAAAMAvAkcAAAAAgF8EjgAAAAAAvwgcAQAAAAB+ETgCAAAAAPwicAQAAAAA+EXgCKDU2bp1q/sKAAAAgSBwBFAqxMXFaeLEiWrWrJkiIiLcqQAAAAhEiHG4r4uFkJAQ95VUzIoOIAD5VccPHjyolStXatWqVZo6daqWL1/uvpOG7w8AAIDAETgCCCp5qePeYHHhwoV68skn3alZ4/sDAAAgcASOAIJKTuv4rl27FBsbq/nz5ysqKsqdemp8fwAAAASOwBFAUAmkjtvObdauXasPP/xQb775pjs1Z/j+AAAACByBI4Cgkl0dt8HiggULNGPGDM2aNcudmnt8fwAAAASOwBFAUPGt47ZjmyVLlniaoeZHsAgAwYprGgDBjsARQFDxreMAUJpwXQMgmJHHEUDQsnccJ0yYoKZNm7pTAAAAUBS44wggqGRXx20C//xstsr3B4BgwHUNgOKCwBFAUAmkjudHRzl8fwAIBlzXACguCBwBBJWc1vHcpubg+wNAMOC6BkBxQeAIIKjkpY7v2rVLsbGxnuasUVFR7tSs8f0BIBhwXQOguCBwBBBU8quOHzx4UCtXrtTChQv15JNPulNP4PsDQDDgugZAcUHgCCCoFEQdt0FkQkKCp3OdqVOnavny5Xx/AAgKXNcAKC4IHAEElcKo4+vXr1ft2rXdMQAoOlzXACguCBwBBBXqOIDShO88AMXFae7/AAAAAABkicARAAAAAOAXgSMAAAAAwC8CRwAAAACAXwSOAAAAAAC/CBwBAAAAAH4ROAIAAAAA/CJwBAAAAAD4ReAIAAAAAPCLwBEAAAAA4FeIcbivi4WQkBD3lVTMig7ANWPGDH377bfuWEZRUVHuK2nIkCHuq4yuueYade3a1R0DgOKL6xoAxQWBI4BC980336hly5buWM4tWbJE1157rTsGAMUX1zUAigsCRwCF7uDBg6pQoYI7lnMHDhxQ+fLl3TEAKL64rgFQXPCMI4BCZ4O+kSNHumM5Yz9H0AgAAFC4CBwBFIlbb73VfZUzuf0cAAAAco/AEUCRaNiwoZo2beqOBcbObz8HAACAwkXgCKDIREZGuq8Ck9P5AQAAkD8IHAEUmZz2rJqXnlgBAACQewSOAIpMTpqrdu7cmWaqAAAARYTAEUCR6t+/v/vKPxL+AwAAFB3yOAIoUlu3blVERIQ7lr3ExERVq1bNHQOAkoHrGgDFBXccARQpGwzaZqj+2PcJGgEAAIoOgSOAIneqZqg0UwUAAChaNFUFUOR27dqlc8891x072c6dO1W5cmV3DABKDq5rABQX3HEEUORsUNi7d293LCM7naARAACgaBE4AggK3bp1c19llN10AAAAFB6aqgIICtk1V6WZKoCSjOsaAMUFdxwBBIWsmqvSTBUAACA4EDgCCBq9evVyX6XJPA4AAICiQVNVAEHj4MGDqlChgjsmHThwQOXLl3fHAKDk4boGQHHBHUcAQcMGiSNHjvS8tv8TNAIAAAQHAkcAQaV169YZ/gcAAEDRI3AEEFSuuuoqde7c2fM/AAAAggOBI4CgERcXp2eeeUazZs3y/P/NN9+47wAAAKAoETgCKHI2QOzSpYsaNWqk6tWrKyEhwfN/y5YtPdMJIAEAAIoWgSOAIuMNGG2AeMMNN3iS/ffv31+1a9f2/G/H7XTfANL2vAoAAIDCRToOAIXKBn6ff/65Ro8e7Rl/7LHH1KZNG7+J/rP6zC233EKvqwCKPa5rABQXBI4ACkV+BH8EkABKGq5rABQXBI4ACtSuXbs0bdo0TZ06VVWrVlW/fv3UqlWrPAV7NoBcuXKloqKilJSUpMjISPXo0cPvXUsACEZc1wAoLggcARQIb8A4YMAAT3qNIUOG6Nprr3XfzT/2uUcbQNqeWCdMmEAACaBY4boGQHFB5zgA8tXWrVs1ceJEnXvuuYqPj9eSJUs0c+bMAgkaLbtcu3y7ni1btnjWa9e/fv16dw4AAADkFYEjgHxhA7WhQ4cqIiLCE8DZlBpvvPFGgQWMmdn1jBkzxrNeu/46dep4ykMACQAAkHcEjgDyxBsw2kDNsoGbDeBsSo2iYNfrDSAtbwAZFxfnGQcAAEDOETgCyBVvDkYbmNlk/YmJiUUaMGbmDSBtLkhbvkaNGqXnggQAAEDOEDgCyJHskvZXq1bNnSO42I5ybPlsOW15bbkJIAEAAHKGXlUBnJI3f6JNqWHTX9hArGPHjsWy91Lb2+vXX3/tyQVp04PYVB7kggRQVLiuAVBcEDgCyFZJTrhfkrcNQPHBdQ2A4oLAEcBJStNdORtALl68WK+++mqxv5uK0sn3dxFA0eG6FCUdgSOAdIWVtD9Y2eceo6KiNGvWLE2YMEE9evQggETQs7+L/B4CRYt6iNKAznEAeAJGb9L++fPnF3jS/mBlt9dut91+ux/s/rD7ZevWre4cAAAApROBI1CKeXMw2gDJJs1ftWpVqQwYM/MGkDYXpN0vERERnv1k9xcAAEBpROAIlELZJe1v2LChZxxpvLkg7f6x7P4igAQAAKURgSNQithn+Pr06ZOetN8bMAZL0v5g5Q0gExMTPfvN7j+7H8kFCQAASgsCR6AU8E3a36BBg/Sk/QSMOVOtWjXPfrP7z+5Huz/tfiWABAAAJR29qgIllE0zsXLlSk8voTbNhE2pQS+h+ct2KjRnzhxPBzo2bUm/fv3UqlUrckGiUNGbI1D0qIcoDQgcgRKGxPaFj32OosQFK1D0qIcoDQgcgRKC4KXoZXUM2rRpw11eFCguWIGiRz1EaUDgCBRzpT1pf7Cyzz3aZsKzZs3ShAkTaCaMAsMFK1D0qIcoDegcByimSNof3Ly5IO1xscfHHid7vOxxAwAAKG4IHIFixuYQHDVqVHrSfgLG4OYNIFetWuU5Xva42eNHLkgAAFCcEDgCxYRv0v49e/ak52AkYCweGjZs6Dle9rjZ42ePoz2eBJAAAKA4IHAEglxcXFx6wFipUiWS9hdz9rh5A8jq1aunB5DkggQAAMGMwBEIUt6k/Y0aNfIEGDbp/BNPPEHAWELY49i/f3/PcbXHt2XLlp7jTQAJAACCEYEjEGS8AaMNJG644QZPYGEDDHrkLJnscfUGkPZ4+waQNr0HAABAMCAdBxAEyMEIL84F5BRpAICiRz1EaUDgCBQhggRkh3MDgeKCFSh61EOUBgSOQBHwJu2fOnWqqlatqn79+qlVq1YEBTiJDSBXrlypqKgozZo1SxMmTFCPHj1ouox0XLACRY96iNKAZxyBQpQ5af9LL73kyfHXvn17gkZkyZ4X3lyQNmenPW/s+WPPI3s+AQAAFAYCR6AQbN26NT1gjI+PJ2k/csU3gNyyZUt6AEkuSEdKvN6f8InWphx3J2Rnj+Lfn6BXFmxRqjsFAACcGoEjUIC8SfsjIiI8F/o2d98bb7xBwIg8seePNxekPa+8uSBLdQC5b4M+G9hf/ccv026/rcX2acNn4/TSyu0EjgAA5ACBI1AAvAGjvaC3SNqPgmDPJ28AaXkDyLi4OM946ZOor558RE98/KuOuVMAAED+IHAE8pE3B6O9gPcm7SdgREHzBpD2fLPnXaNGjdJzQZYuvfTq/7ooof/Tmrx6r+imAgCA/EPgCOQDkvYjGNjzzZ539vyz56E9H0tXAHmmLmj9sMY/I/1z4Ov6dvepnnc8mUnZrO/mTtNrY8dqrDOMf2umlvz6J0EoAKDUI3AEcsmmSZgxY4bnwnzw4MHq2rUrASOCgm8AGRkZ6Tk/mzVr5jlf7Xlbsp2j+g/+SxPrfKgH/vW5ko4FGvIdVvKyV9XrqlYa8L8NKhtxsS65pJpCd32t0Te20wP/+U7bA14WAAAlD3kcgRwiMTuKm1JxzibPUM+q89Q5aaK6hpeR2b1Ez98xUD/c+47efqCeyrmz2ecgZ/Rsq6FXvK91jzZWGc80o0MJU9Sr7Qeq887rGn59NXe6ZXQseb6eu+df2tZ/qiZ0vdjnveBA/jig6FEPURpwxxEIkM2ZZ+/YtG7d2pO43158L1y40HOnkaARwcyen/Y8tefriBEjPOev9zwuqbkgQ8Kaa+BLvXXw0WH697Id/puamiTNf/llrenzmP7RzjdotEJUJrydBj3VRl+PnaH4A1wYAgBKJwJH4BR8k/bbC21v0n4CRhQ39nxt37695/y157H9Q4g3F2TJCyBPV2iDBzThzUv19gNj9GnSYXd6FvYlaPGsirrrlgY6+0SjFh+nq3LDlrpp3WIt31TSm/oCAJA1AkcgG74B4/z580najxLFnsf2fLbntT2/vQHk1q1b3TlKgnKqfvswvdYlVn9/8iOtP5TN3cL9e/R7cj1ddtFZ7oQsnH2eqlXeqZ1/HnUnAABQuhA4Apl4czDaC2lv0n4CRpRU3gDSnuf2fI+IiPCc/7YelAgh4Wr7ZJQG7Bqt/hO/15/ZtjQ9oqOn7PymjM4se7r7GgCA0oXAEXCRtB+lmTcXpD3vLVsPSkoAGRJ6lfq+9JSqvf53PfPpRidEzOSccNWun6A1m/a5E05mkn9R7Ia/6ILKZd0pAACULgSOKPVsjrs+ffqkJ+0nYERp5g0gExMTPfXB1ovinwsyRGUv6aKRE9rpm7+P1LubMoWOFS7XzT3P1sS35mtLlncdD+jnLz/Rovu76voaZ7rTAAAoXQgcUWr5Ju1v0KBBeg5GAkZAqlatWnouyBtuuMFTT4p3AHmmwtsP1qv/V0ELFyW607zO0VUPPqlHN7+soS/P08aU4+50h/lTG+eMUd+oinrhsfaqmmXnOQAAlHzkcUSpYvPZLV68WK+++qqSkpI8ydF79OhBwn7gFGxnUXPmzPF0oFO1alX169dPrVq1Cp6ehTPlcczW0Z/1/kPd9eTlb/jkcbRsvsalmvzCCEVN3q66Xerp3NP2a8s3C5RYb5DGRj2izrXPUTDGjeSPA4oe9RClAYEjSgWS9gP5o+TXJSeA3PGL4jf/6Rkre34dXRERGpQBoxcXrEDRox6iNCBwRIlGwAgUDG/dsrlN7d17W7fatGnD3fsiwAUrUPSohygNCBxRItlmddOmTdOAAQPUuXNnDRkyhHQaQAGxzz1GRUVp1qxZmjBhAs2/CxkXrEDRox6iNKBzHJQoJO0HCp83F6Stb7be2fpn66GtjwAAoGQgcESJYHPNjRo1Kj1pPwEjUPi8AeSqVas89dDWx5KSCxIAgNKOwBHFmm/S/j179qTnYCRgBIpOw4YNPfXQ1kfL1k8CSAAAijcCRxRL9pkqb8BYqVIlkvYDQcjWR28AWb169fQAsvjmggQAoPSicxwUK8W6Ew6TosQfE7Tt6OmqeNFlqn3eme4b/pmURP2YsE1Hy56vOldEKLQA8gLk1zqCtawFWq5cHte8CLp9EKDS2GnVjBkzPL3PduvWTU2aNCmQ76vC65QjVYeSV2vpoiVauGyFNu0+5kyroAuvuFrXtb1R11/1F5VLP6+MDqydpUmf/eK8ytoZlSN0ycWXqXHz+govl93fsXOyzmD2p9bOmKLPNlbU1ffco1bhZd3phSm/y3BUyYvf03vf7XDHfZ2pytVr6/ImzdTkkjCffKklF53joFSwgWNxYovsHVB6LFmyxDgXmp7j7gSMZufOne47ubXFREfWzHA+nRjCTeNOg0zU7J/MvtRTzWuHWqZt3/Fm7oa9xjN7BofMttj3zYjIFiY00+dCmz7gs45MUveaDV9MMo90qJvhMwptYXpFzTEJ+465M+ahbAGv4xSCtaw5+sw+ExvVJuN8Jw0Pmeiko+78uTyuGXj3h+9y/Tlkkpa9bYZm3h7VNR0emWS+yPN+81ceZ93znzNtQ53ta/uMmZ3luR44W39tPW7atKmnXtv6feDAAffdkiU6OjrDvu/du7dnWmJiojtH3tnlFrjUPWbN9CGmjXMOKLSx6TRguBkTFWXGDP+b6dQ43ClDhGk7LNrnnDpu9sY8bsIVamq2ucNERkZmHO7tYBrbZTllD237nJmfdMj9nI8crzOYbTcxQxs7Ze5mJiccdKcVtvwuw0GTMLmb5xhmPzQyvSbHB/B9WPzZ7QVKOgJHBC17IWkvsOzFpR3s6/y7uPReJDc3kcNfMFHOxUj6MGKA6VAz1HmvsekbvdEcTZ+3vRk6+UNPOdKH6W+aqEGdTE17TjZ9ziza5XsBs99s+GiwaWovemp2Mo+Mm2Ki5y4yy5fFmE+mvuRezNcwncbHZvxRdS6WVk/uY2rZC64Og824dz81i5YvN8tiPjKThnZ21hVqavV626z2XCzlsmw5WocfwVrWHH/GGzjWNB0Gjch4PqQPH5q4fcedeXN5XE/iL1DLJH17bGDayzz35nQzO2axWTT3A/Pmc73SylLrXjN++Y4TAV2O90E25bHB5+xn3KAxmwv8XCrYOh4c7Db5/m75DjZonjJlSp6DSLusApV+LkWYNo9MNbHbMp4DqQc3mZiRXUyoDeSe+cps85yE3sAx3LSf/JMzdrLUg1vNstd6e87RWo987n7Olat1BrPj5uDuP0xS0g6z72hRFTa/y+ANHBuboTHb3WleR82+zYvNa70aOe+3MMNi/sjTH5uKgwKvh0AQIHBE0Cmci0l/F+2p5ujm902vMOc8azTOxB07xQV+6k6zbGR75/1aplf0ZvfHMdUcXP0f08nPxXbqvjjzWvdaRqH3mqkbvO8fMztjnjJ1nQupuoM+NL9kDtxSd5u48d2ci6UapvPkNebIqYKPLMuW03VkJ1jLmpvPeAPHNiYqdp9nStZye1yzcor9ke6Y2bXoOdPU2Z6sg/ljZt/qt02vWqFGdYeZuX/YZeVmH2RRHp/gM+t154+SHED6Cxx9B7vd9i7sqlWr3E8Gzn6+4KSaIwmTTWd7znf6j1l9MJvL/yNrzOTONZzz/g4zaXWKM+HUgaPH/qVmRH3n3A1/3MTs9c6V23UGygmg9uw12S02s9SDe8yOff7qaJpA5/Mn8GXkbBtOzQaVO3MYUPoLHC3nHFj0rOd7qP6IpWa/OzX3clPGwlOw9RAIDnSOg6DhzcHYunVrTZ06VSNGjNDChQvVtWtXlS9f3p2rMISoTNWaqmcfRVq1Vhu22Wdq/Ag5WxfVvdh5sUO/bPtTqZ6Ju7T8/Xf0ScrNeiZqgK4PP/m5t5DQK3Xf4AG65/66KrvvYNrE1I36dMK7WhfaRU8MvE01Q09Pm+4VUklX3jtYo4Y9oJsqp2q//anyJ6uy5dc6grWs+V2uDHJ5XPPCbNG8SW9reWgnPfZ4N9XLvD06XaH1umv48L8qdN1U/XvOL0rNj31g9mrNf4fo9gf/J/WaqI8n3JvFuvOHrd+2ni906vtLL73kqf8VKlQoVbkgly9f7nn2s1GjRmrWrJln2+0z3QcP5sM5lCd7teLDdzQrpb7u7dNBl2f3QGHZOuo6apoWfztWd1yU1+d8C2KdRse2x2nG2H5qd+k5Kl/JGc5upjuHT9GSxP2e6D2Ns+7XBqrn47O1MWmZ3hrWRbXKV9J5FcN0abt+GjtnnVIy1JfjSln/qcY+fJM7X3U1ufMZvbd8maIff9BZzhwleuZ3l9vzn5qTeMTzyZyvK9BtyM7JZTApv2jea/9QR7u8sHNVsexf1KTzI1msOy/K6uyK5d3nHN0yPPi6VhzItIIDK/Tagz314GsrdMCdZJ26jIf164zhznY5+2zxtpP2g9m+QKPu76kHxn+rP91pAHLJDSCLDVtk74CSwfu8kz2m3uedCp7/uz2pO+eaR8Kd86xBlIk9tNn/vN47TGpphi/akTYxZZEZHuH9fA7+Orpttnko1Plc+8kmIds/0fs6xXZkVbYcryMbwVrWXG1fgHccc3tcsxTgHccAtyd1y3TT3X43dp5qNv6Rm33gU57Nm83S8fd7mgm2fXqeSSqCv/Dn/3PNRSPQO47+hpEjR/p9DtTOU2CO/2Qmtw83Cn3ATN982J0YiADuOKammM0f/8NzR6rWw5+YJO9plut1ZifVHE2aZ55uG5H2DPJHX5nlscvNsvlTzPBOdY1qPWSmJnjrvfscYOPOplvbtqbXmGlm/rLvT8yrpuaRuUnpLSLS7vaHmZqdhpup85ea2NilZu6bg02bsBqmZo1QnzqY1fOFOVlXTrYhO5nKkPqbmTu4ufPZHmakZ3mxJnbZPDNl6M0mVI3M/dPX+2lxYvm743jcHExamtZUtdYg5zsl0zZnuMPs2htjhjq/u+FDY8xed1KgZUzdPN3c7XznhfWdbf7I8HV1xPwW/bAJK4TmsgVaD4EgQeCIIpOQkJAeMNoOIwonYPTyXiSf/LzdR+nPqXl/lLzz1jJtut2bsYOHbm3SnstTXdNp1NcnnrNJijaRdnpktElyJ3mk7jNb4p0fPvvj5zPEb9nn+UE7FjfONMrqc9nKedlyvo6sBWtZc7d9p+gcJ3SAmb3tWK6Pa9Z8AjU/gePR2Ki0fXOq7Tkaa6JqOvPVjDLfxuZmH3jLc525N7Ktc1HmfN5e0PeNNpuLsGmY/V4YMmSI5zjY7wv7vXHS8SlFg/2u/OKLLzIE0nZ6gXEv5rO80PfrROc4tboN8XRqk/GZ4efMkG5NPefZSc2+c73ObKRuMbMfdoKV0B5OwJSxwWTqzvlmWN1QE9rZCfCO2PPcG1xlbqp/ovlsemDjbSqb3kTc66DZHD3I2GeSAwocA1lXjrYhO5nKkFWgZu2PM5Mf7m0GjV9itvut+qfuHCe08UNmctxun+/BHAaOgZYxNcnMfaTpyX9s8B6j5mNN7H6/G5NndnuBko6mqigStimazekWHx/vyfH2xhtvFFG3/PM05sFuuuOOO9KHv0YO1svr6mjo5Fc08o5LlWWH5ak7tWbGVE39MFZlH5qk+WsWKfrx1qpyqm7hjyfo/a5NPN3y+w5d30/Qcft+2TN0lmfGPDhV2fJjHVawljVP5aqpDoNGeFK+ZBieuU4R5f0c3FMd13wQFnaWAm4AWCYv+2CR3p26R399c44+GtZEP7/2mFMXfsjHZms5Y78XvLkg7feF/d4ozd58803ddNNNOvfcc9WnTx/NmzfPfSdYpejnD6M0dMgQT/qVE8N7WvuXe/RmTLzWf/ZEls2+84vZHq9Pp69Q2L13q2OtCu7UNCGVG6vLvU2UEvOVvktvQmo1VaeWl/h8/4eo7IU1VKeilBy3Sb+nOl9fiSs0O2aH6t/bWa3O9004UU7Vb+iqu+o6YXFATr2u3G3DKZQpr7PPDVXyx+/q7bmxWp+cIs+DGRUa6IFX39DLA67Veaf6TfOIUJuHnsn4nTlmuAZ1b6MLVrynUU+P06z1ez2RZI4FWsaQ89X0tptUN2WB/jf/Fx218zhrPPrrt/okRurc+xZdWSGgjQHgB4EjisSVV17pyeNmL4LshU/RPcfUVVFzv1VsbKw7/Kgt+47J/DJTLzzQXOFlfH9o2mnAuP9qypQpmvLObH27cZnGdw/Xuvc+0aLkw+48rrMq6cJw5//4jUo67PNzeXp13Tj+Y0VHR6cNk4eqjfuWdfqFF6txmPPi9z3al/awZBYOa8empEwX8oGXLffryChYy5q37XMugO4bpEcffTTT8Fc1CHW+LnN5XPPi9KqXqJVz/bl70zbt9XM8zPbNWvOH86JmZYX9JS/7oJF6TX5bEx7ooK5PjFbUjYf0/qNPavy3O3J34ZcP7PeD/Z6w3xdI07t3b09uyMsvv9ydUkBCq6rOFc5Jf+iADhzK9mTyI1ztJ/+k42ktnGRSD2pb3Ica1na/Fsb9Jl14kS7MnMMxz+vMyOzZpo27paPLX9M/evVUz56+wwD9e75TjpSftHrTPvcTgUhVyqaf9F1KRVUND3NCxUxCz1eN6k7kl08KZBsqNNOg6a+pb6W5GnRLU9WpGq667f5Pz0z6QAt+SNahgCv8+Wp2Z/+M35lD/qWXp8/T8uWjVG/Bs7qv/1T9kPmZxkAEXMbTVfmaTnqw+V7FfPKtfj1q3/hTP3zyoWY5vzl335DNH4EB5AiBI4pEw4YNNXPmTC1ZskTz58/3/PW8aDrCqKJLrmysxo29Q31FBNQBSIjKVLlaD48Zrb7hi/Wvbk9qakKK+56jYh216lzfCTBi9NVqn8fxQ6qowa1dPB2BeIZbrlZ19y2PsNpqfnNNaek3WrU1m78c//mNolr8RRUvelaLs+zV5BRly5d1OIK1rPm1fVnJ7XHNg5ALrlC7G2pIMXP11c++XUb4OqrkZfM1KyVMLTpcpRrn5mUfNNNtt1yu0BBn3Wc3Ud+ox9RJn+rJniP08ZZD7jyFw9thlv1+sN8T9vvCE3wUo8H+ISG/2Dt1X3zxhXbu3OlppdG+fXtVq1bNfbeAnFZFta52zqXd8Yrf6FM3T2J04IcPNXrSNH0Rvy3trlBWQsqpSoM79Oxrz+uvv03SXV0e1wcbM53X+b1Oj1CF12utDp07e/5oeWK4XXcNGO0cp3/q9lqB3iEsKvm9DbZjrXv06qJ4JSybrckv/123Vlypf/frrusbtFP352OUfCwH348nKauwxl3V5976Svlyhub8sNednhM5KGOFeurU+xZp1gzNXbtfOrBWc6csUVi3DmoVcUbaPADyhMARRco2Q7MBpG2GtmXLFs8F4tChQ7V+/Xp3jmDmBD3VO+mfE/6murunatDQaVrj/fNnSFW16/t/ujF0rv45ZIJiMt+R9Dis7b/8okR3zCOkum7sfbfqpnygZ1+ap6TMP9pmj+KnvKZXk8PUfGAHNT4ru6Y3/sqWT+sI1rLmW7mykNvjmhenXaKOf39QTVM+0ejnP9SalMyNX48rZcMsjXnyHe2u1UuPd6unM/JtHzgXbQ166aU3H1atn8ep99B3tfqk9ec/W/9HjRrl+T6w3wurVq3yfE8UTXP2ojVy5EhPwHzgwAFPk10bLFaubLt8LiyV1fjWW1VfsZoydbGSM51K6cx2fTvtZT3e72XN/f24c+b4E6JytW/X8Ofuc86rSeo9+N0Tdd4jf9cZUu4snRuaoh0VLlO7290/7qQPXXRru+vU7tZbdE3ESfcN/ThNoTUu09Wh+7Rl0zZlDm/Njl+0fHmyO5Z3BbMNRsdSdmmvzlXtazrqgUH/1PhZ3yp581eK6nRInzz5kj5c4wRgeRFypiqcnUUz5CzuJps925V40g3TnJSxgmrd0Em3hS7UG3NWaeu3n+nd1Vfq/+5tqfAcfM0D8MMUM7bI3gElj+34YojbEYb9344XjMA6Jklzinm9vb6phuk0Kd54uz3ImCi+vekbNcV8ErPUxC5fZOa+/7p5LrJFWgckoTeav3+++USvg6nJZuEztzjv2cTtQ82k6Plmme09Lz1xu0zojS+Z5XttTr1cli1H67BsLsGXTK/IviZq0TZ3miMoy+rI8WcCzeNo5ea4ZrX/vPvj5A6a0oYvTNx2dz+l51N0yt30ATPmf/Oc7Yn19C44fdxg06FmqLO+W8zT8xNN+p7N8T7wc3yObjazH7HHJsK0HbnY7CqgPiYKr/4XHnssfX+3TjX45nMMNJel/VyBOrLeTL+/Udo5NvfXLHIHHjJJ858zbZ06EXrjeBPn6YQkgF5Vj2400X3TOofJ+N3pyNU6s5Ge7/HkjmXM/hVm3I0RRrUGm9lJtnuarDqxcXk77fF2eONdboZeQy3nO2L6wznoHCcH6wpoG7KTcX2H48abFgozzaO+z5RjcZ+JG9fBma+DGRfn7/vwVHkcbU7kaNPX5pitNdTM3Wa/V3abZSPsd23mZZ/oUOhERzipOS+jt5Oc+r3N0L8531n1R5llBdwpjleB10MgCBA4IijZC8aC7XH1FEFMBqeeN/WPz83guvbivZsZn6EHuUNmW9zHJqqXG0z4DqEtTORzU8yCjXt95ncd/d3Evvt4WkCQ4XN1TaenPzYJ6YnY81C2gNdhHTVJ0Q8579U0kdFb3GmuoCurK0efyUngaOX0uGa1/7z7I9Pn04dMZUndazYumGyGenr89Z0v3DTtFWVmJ+zJw3lk+T8+qbsWm5FtnYtTNTePzN58IkDNB1n1nFpSBBI45iX5v2WXUbBOpIJIO9+eN1M/X5SWDiIm2rw5vHvaHzXaDDUfpaeECCBwtMv1Bhah3c2k1b51LzfrzE6qOZjwrunlrCe0zWDz5herzMakJLMlYaGZ8siNTh1uZHpNXeMGrjkI5nyXa/+gM/VTEzN/lpky5gHTtGZNU9P+cSm/AsccbUN2Mq0vPTi/2Qz73xKTsCXJJCVtMHFzx5nIWmGm1v3TzQa/vbR6A8cI0+ahZzL1mhtlxgzvY9ra754Mf9Q6ZnbGPJWWgqX7KPPRwlgTF/etmT91uOnUuLFp7MyfoQfVHJfRu3xbt8JMi3GrTH4kdAlEwddDoOgROCKoFU2OxwJydLtJ8KZqSNge4IX3MbNvy49ueof1ZnuBpEXIr3UEa1kLuFy5Oq554VxQb18fXPsgl2x9tvXa1m9bz4trrkZ/sgsc7XZPmTLFJCYmunPmnl1eYUjd94tZMPkp061xeMbt8dx5/9jEbfNJqRFQ4GiduNMU2ukVE5fpj0A5W6c/Th3Y8IUZ17e952572nJCTc22D5uo2T+ZfelVIifBnHXcHNyy2Ewd8ZAbJDU13Z6abBas/MgMyTBvXgNHK9BtyM7J60vd95P5eMQ9prENcr3LDG1hekXNyfoPchn4S8fhlKvN3WbQiMlmTtwfGb8XU/eYhI9Hmu7px9SZt9Oz5uOflpo324eflHojx2Xc/72Jah7mzJPF3dkCZMsFlHQh9h/nZC82QkJONFQvZkVHHthOMqZNmyabxqNq1arq16+fWrVqpfLly7tzACgODh48qJUrV3q67J81a5acgFE9evQo5Of2Cs+MGTM8aX4s2xPqLbfcombNmuVrpzb2d7Fwfw+PKWXHDu3z9Fx5hipWqazQDD1QF4T8WmfaM3Pb9x1xdlx5hV1QSeVyW3RzSHv/lM4+p5xOWsSfCzSs7vV6574YrXuhnc52J+ePfNwGlzm0R3/sPugs+XSVDztPlTL3dFsQjqVox/Z9Olq2oqqcFyrfhCZZCbiMR37Qa7d11JBzo7Tmve6qXtCnpqvw6yFQ+AgcUazYi87PP/9co0eP9ow/9thjngsxAkgguJXWuvvNN99o//79nryeBRUcc8FaRA4s08ir22t0zXFa8eH9ql3We31yTNu+eEqtb/5IjaZ/qfe6X3xyYIkCcly7Fjyra69foM4xH+v5ducX2r6nHqI0IHBEsUQACRQP1NWCxwVrUUnR+nceVcfIhao9dKAeuKmhqpfdq42rv9CkoW/qt79O1McT7lW9gFI8IU9St2jBpA+0cs8Wff3f/2phvRf17ft9VC+vt2JzgHqI0oDAEcWe/Yt+aWn2BhQXmZuXDxkyRFdddRUBYwHggrUImT/169czNe3jj/Xxf2dqRUottel+q264tYt6dG2liwkaC4fZrNl/66Eek3ap9dDH9NQjd+ma8CzSgBQg6iFKAwJHlBgEkEDR8waMAwYM8CQntwFjacy/WJi4YAWKHvUQpUEhPP0MFA57cWqThNtk2TZpuE0ebpOI22TiAAqWrWcTJ05MT9pv62FpTdoPAEBJROCIEsdeqI4ZM0YJCQnas2eP6tSpo6FDhxJAAgXA1itbv2w9swGjrXe2/hEwAgBQshA4osSqXbt2egBZqVKl9ADSNmlFcXNYyYsm6P5mVT3NgUJCaqvdI29qWfJh930Utri4uPSA0fIGjLbeAQCAkofAESWevZB94okntHPnTlWvXl0tW7ZUly5dCCCLjePavWy87unwhL657O/6KOZrzf9fT53/2WC1v2e8lu0+7s6HwmDrja0/jRo18tQnW68IGAEAKPnoHAelDp13FDOpP+udO9or8pcHtOibJ9TqbNtL4XH9+e2Lurn566pBnrRCQedTwYtOOYCiRz1EaUDgiFKL/HKF6NCvWjx3lbanuuMnKasqjdqp1cVnueMnmMT3dXf1u7R0+CL99K9WSp9j/2I9fdl1eqnldK15r7uqEznmO28dsSk1kpKSPHWkTZs2BIxBhgtWoOhRD1EaEDii1COALATJM9Sz6h2a6o6erKYio7/SlK4R7vgJx1aMVd0m41V/6gJ9fN+lJ+4smk16/+62uiv2b4pd96gal3GnI8+oE8ULF6xA0aMeojTgGUeUevZiuGvXrlq4cKFGjBjhubvSunVrT2oB26wV+SC8q6Y4P6j2RzXr4Zcsg0YnOtThAyk6ojN0zllnZmyOGnK6yp55urTrd+34k+cc84M9373nv/3f1gdbL2z9IGgEAKB0I3AEXPbCuH379p7ccy+99JLmz5/vyUlHAFmUjI4fPaJj7hgKhj2/vTkYZ8yY4Tn/bT2w9YGAEQAAWASOQBZsZzn2wtkmMY+Pj08PIMkFmUvb56hvRZtGI7vhMvWdk+TO7Os0VTinsiq4Y1mqfKHO83SYg5zaunVresBo/1BC0n4AAJAdAkfAD3sB/cYbb3hy1Nnk5t5ckASQOVTmHF3610hFRmY3tNGl55R1Z87o9MoXqL426JuN2zLeeTy2TRu/2SDVv0CViRtzxJu0PyIiIj1pPwEjAADwh85xgBywF9xvvvmmJy2BTePRu3dv8tcVtCNxGt+2nQad9bzWfPp/urys/Q4wOrr2dXWo97j2j1ugrwY21Blpc8MPzt+Syf4u8nsIFC3qIUoD7jgCOWAvsm2yc5v03CY/t3cgbTJ0m+MOBeSMeur2eC/V+jJKj4+ZrTU7/tSONbM15vEofVmrlx7vVo+g8RS8Sfvt+WrP28TERJL2AwCAHCFwBHLB5rHr37+/J4C84YYb1LJlSwLIAlNW4R2e0cdTb1Xy6M6qX+UcVanfWaOTb9XUj59Rh/Csm7jiRMBoz097ntrz1Z631apVc+cAAAAIDE1VgXxge6X8+uuvPXnvqlat6nluj7x3+c+kJOrHhG06WvZ81bkiQqEZ8nPAsjkYFy9erFdffdWTtN8Gih07diRpfwlGEzmg6FEPURoQOAL5iMTpKCqce6UXF6xA0aMeojQgcAQKgPci3iZR564PCpLv3W6LgLH04YIVKHrUQ5QGBI5AAbPPmdleLGfNmqUJEyaoR48eBJDIMxswTps2TQMGDFDnzp09vaSSTqN04oIVKHrUQ5QGdI4DFDB7MW9z5Nnk6jbJuk22bpOu2wt/IKfseUPSfgAAUNgIHIFC4g0gbbJ1m3TdXvjbJOw2tx5wKt6k/fa8sefPqlWrCBgBAEChIXAECpk3F6QNIC2bW48AEtnxBoz2PLHseWPPn4YNG3rGAQAACgOBI1BEvAGkTcZuk7LbwKBPnz7kgoSHPQ+8AaM9P7wBI0n7AQBAUSBwBIqYTcZue121ydkbNGjgSdZuk7YTQJZOvkn7bcDoTdpPwAgAAIoSvaoCQcbbW6ZN5VG1alX169dPrVq1Ir1CCWbTt6xcuZLed5Er9OYIFD3qIUoDAkcgSJHQveTjGCM/cMEKFD3qIUoDAkcgyBFclDwcU+QnLliBokc9RGlA4AgUI/b5N5ozFl9ZJe2/6qqrCBiRJ1ywAkWPeojSgM5xgGLEmwvSJn23yd9tTj+bDN4GJAhe/pL2EzQCAIDigMARKIa8AaRNAm+TwduAZNSoUeSCDDL2eHgDRnucfANGAACA4oTAESjGbBJ4m9vP5vjbs2ePJ+efzf1HAFm0fJP224DRm4ORgBEAABRXBI5ACWBz/HkDyEqVKqUHkOSCLFxxcXHpAaM9DiTtBwAAJQWBI1CC2ADliSee8CSNt8njbRJ5m0yeALJgeZP2N2rUKD1pvz0OBIwAAKCkIHAESiDb02r//v09AcwNN9xAAFlAvAGj3b92P9v9bfc7Pd0CAICShnQcQClA3sD8k9W+bNOmDcEiigxpAICiRz1EaUDgCJQiBJC5x75DsOKCFSh61EOUBgSOQClkg6CVK1cqKipKSUlJioyMVI8ePbhrlgWbg3HOnDmetBpVq1ZVv3791KpVKwJGBA0uWIGiRz1EaUDgCJRy9jk9G0DOmjVLEyZMIIB02YBx2rRpGjBggDp37qwhQ4aQTgNBiQtWoOhRD1Ea0DkOUMrZYMgmpbfJ6ePj4z3J6u3dtdKaC3Lr1q3pSfvt/iBpPwAAAIEjAJcNjN544w1P7kGbtN6bC7K0BJDepP0RERHpSfvt/iBgBAAAIHAEkInNPWiT1tvAyfIGkDa5fUnkDRjtdlok7UdxZJvJMTAwFN0AlAY84wjAr5L6rF/mZzttPsZq1aq57wIAAMAXdxwB+GU7yrFJ7W1ye5vk3ia7t0GWDbyKo+yS9hM0AgAAZI87jgByxN6B/Prrrz35DG16CpvKI9jzGdr0I4sXL9arr77qST9iA8WOHTvSeywAAECACBwB5EpxSIhP0n4AAID8QeAIIE+8wdnUqVOD5m5ecbwrCgAAEMwIHAHkm8wdzvTo0aNQA0iS9gMAABQMOscBkG9skGaT5duk+fPnz/ck0bfJ9G1S/YJkA0Zv0n67XpL2AwAA5C8CRwD5zhtA2pyINpm+TapvcyXanIn5yZuD0QaMdj2rVq0iYAQAACgABI4ACoxNom+T6dsA0rJJ9vMjgMwuaX/Dhg094wAAAMhfBI4ACpw3gExMTFT16tU9AV+fPn1ynAvSzm8/Zz9vl+MNGO3yAQAAUHAIHAEUGptk3/a6apPuN2jQwJOE3ybjP1UA6Zu0337Om7SfgBEAAKBw0KsqgCLj7QXVpvKwaTP69eunVq1aedJm2DQfK1eu9PTSatN82JQahd1LKwAAANIQOAIocr6J+pcvX+5OlZo2bUrSfgAAgCBA4AggaNgAskKFCu6YdODAAQJGAACAIEDgCCCoUMcBAACCD53jAAAAAAD8InAEAAAAAPhF4AgAAAAA8IvAEQAAAADgF4EjAAAAAMAvAkcAAAAAgF8EjgAAAAAAvwgcAQAAAAB+ETgCAAAAAPwicAQAAAAA+EXgCKAUMTqwdqZenPCZ1h8y7rSTmZQ1mjlhkuas3+9OAQAAKN0IHAGUIiEqf2FFbX91mEZ/luiEkVk5oJ8/GKUHYs5U7YsruNMAAABKNwJHAKVKSOXm6vNEU80c+6FWHjg5dDS7lumtqO0a8I/bVKtsiDsVAACgdCNwBFDKVFDNOx7WE3pHr8zNfNfxT/3w7kRNbd5XD7WsIsJGAACANCHG4b4uFkJCTlzKFbOiAwhA4dTxo0qaMUj1x9bUl/P/rsYV0tZpkmbowSYfqNmXb6pvvVDPNMukbNSST7/Ud4n7nLGKirj6RnVoeYlCM0SWRsd2/KRFMYu10jNfqMKvaKH211+hKmUIQQEAQPHGHUcApVBZVb35/kx3Hfdq5bQ3tSyyj+683Bs0Hlbyopd1d9OeenPNMV1w8cWKqLxbXz3dQZ2e/VLJx7yBrdGh9dPUp9VDmvLzaYq4xM63T8snPK0p8XSwAwAAij/uOAIIKoVXx48qec4wtR51oabO/Yca/z5F3drEKjJ2nLpWLeu8b3R0wzT1bDtXrT+bqP+rf05601WTskIT73lI3/b4QO90v0Snmd80p19njW/wtj7tW98JSwEAAEoW7jgCKKXKKvym3nrs/Gl6YeYSff3WuzrwWG/d7AkaHeYPLZg4TpsGDtR9PkGjFRLaUPf0a6evJs7TuuPOhNQd2vjdnwo//xyCRgAAUCIROAIovcrWUZeBt2ndMw/q4U+v1WP3NlB6Ao59a7Xg/TPVoWXtE9PSna6w2leoWdxabdzlRI6nX6zWverpyynTtTD5sDsPAABAyUHgCKAUO12VW3XXoFqnqd7ge3Rd5dPd6Y79e/R78hI91bySp/ls5uG0SyI1K+WIjnieczxbDfpN1PTr12tIvVa6c/hbmrd2u46lLQkAAKDYI3AEULqVPUfnh5+tSpXOUhl30gkPKTrpqOdZy6yH19Q13P1Umb/ouoGva2nC67rrnG/01NXX6Y5RMT4d6AAAABRfBI4AkJWzq+iiiB8U98uf7oRAhKhMlYbq+uibTgAZpUve+Yf+NTcpU65IAACA4ofAEQCyctYVuvWhcvrw01XalePIzwkgqzZQq2Yp+nLd77L95wAAABRnBI4AkKVz1OS+/mozY5j+8fp32u7b5PTYNsXPGK2+/4lPCwqPb9C8/y3RlhRviGh0LHmNvv8pQj2urpFFE1gAAIDihcARALIUojLVOytq5jBdMLuXzq/bTnf27Kme93VUk7CWGrwoTHe2vzjtSzTkdKXMH6iLwq9Wx/vsPLfpmnojtXfAOA1tea5naQAAAMVZiLE9PBQjtjdDr2JWdAABCM46flg71v+kzfvsHcUzdX6dyxQR6tMDq0cg8wAAABRPBI4Aggp1HAAAIPjQVBUAAAAA4BeBIwAAAADALwJHAAAAAIBfBI4AAAAAAL8IHAEAAAAAfhE4AgAAAAD8InAEAAAAAPhF4AgAAAAA8IvAEQAAAADgF4EjAAAAAMAvAkcAAAAAgF8EjgAAAAAAvwgcAQAAAAB+ETgCAAAAAPwicAQAAAAA+EXgCAAAAADwi8ARAAAAAOAXgSMAAAAAwC8CRwAAAACAXwSOAAAAAAC/CBwBAAAAAH4ROAIAAAAA/CJwBAAAAAD4ReAIAAAAAPCLwBEAAAAA4BeBIwAAAADALwJHAAAAAIBfBI4AAAAAAL8IHAEAAAAAfhE4AgAAAAD8InAEAAAAAPhF4AgAAAAA8IvAEQAAAADgV4hxuK+LhZCQEPeVVMyKDsC1detWHThwwB3LqE6dOu4rKSEhwX2VUYUKFVStWjV3DAAAAAWNwBFAoZs4caIGDBjgjuXchAkT1L9/f3cMAAAABY2mqgAKXfv27d1XuZPXzwMAACBnCBwBFLratWurc+fO7ljO2M/ZzwMAAKDwEDgCKBJdu3Z1X+VMbj8HAACA3OMZRwBFwnaQExER4Y4FLjExkY5xAAAAChl3HAEUCRv85bS5qp2foBEAAKDwETgCKDL9+vVzXwUmp/MDAAAgf9BUFUCR2bVrl84991x37NR27typypUru2MAAAAoLNxxBFBkbBDYu3dvd8w/Ox9BIwAAQNEgcARQpLp16+a+8i/Q+QAAAJD/aKoKoEgF2lyVZqoAAABFhzuOAIqUDQZHjhzpjmXNvk/QCAAAUHQIHAEUudatW7uvsnaq9wEAAFCwaKoKoMgdPHhQFSpUcMdOduDAAZUvX94dAwAAQGHjjiOAImeDwuyaq9rpBI0AAABFi8ARQFDIrjnqrbfe6r4CAABAUSFwBBAUrr32WjVt2tQdS2PHGzZs6I4BAACgqBA4AggakZGR7qs0mccBAABQNAgcAQSNli1buq/SZB4HAABA0SBwBBA0bLNUb3NVmqkCAAAEDwJHAEGlf//+Gf4HAABA0SOPI4CgsnXrVkVERCgxMVHVqlVzpwIAAKAocccRQFCpUKGCunTp4vkfAAAAwYHAEUBQWL9+vUaNGqVzzz1Xhw8f9vxvx+10AAAAFC0CRwBFKi4uTkOHDlWdOnW0Z88eJSQk6LPPPvP8b8ftdPu+nQ8AAABFg8ARQJH45ptvPE1SGzVqpOrVq3ueaRwzZoxq167ted/+b8ftdPu+nc/Obz8HAACAwkXnOAAKzcGDB7V48WK9+uqrSkpK8iT479GjhypXruzOkb1du3Zp2rRpmjp1qqpWrap+/fqpVatWKl++vDsHAAAACgqBI4ACZwPGzz//XKNHj/aMP/bYY7rllltyFfTl57IAAAAQGAJHAAXGe5dwwIAB6ty5c77eJfS9ezlr1ixNmDAh4LuXAAAAyBmecQSQ72wuxokTJ3p6Rp0/f76WLFmimTNnqn379vl2Z9Auxy7PLtcu367Hrs+u164fAAAA+YfAEUC+sakzbA+oNoH/li1btGrVKk9gd+2117pzFAy7fLseuz67Xrt+Ww5SeQAAAOQPAkcAeWZ7OvWm1KhUqZInlYbtEbVhw4buHIXDrs+u167flsObyoOeWAEAAPKGwBFArnlTarRs2dKTMmPnzp164okn0lNqFBW7flsOWx5bLls+UnkAAADkHp3jAMiRzL2a9u/fXx07dgzqTmlsJz1z5szxPP9o0RMrAABAzhA4AgiIDb6+/vrrYp0GI6tUHm3atKEnVgAAgFMgcATgV+aUGkOGDCnwzm4Kg222GhUVRSoPAACAAPCMI4As2R5JR40a5UlxER8fn55SoyQEjZa3J1a7XXb77Hba7aUnVgAAgJMROALIwJtSw/ZIumfPHk8PpW+88UaJCRgzs9tlt89up91eb0+sBJAAAAAnEDgC8PD2kGoDJ9sTqTelRlH3kFpY7HZ6U3nY7bf7gZ5YAQAA0hA4AqWY7SzGN6XGDTfc4ElhYXtKLS0BY2Z2u+322/1g94dvKg+7vwAAAEojOscBSqGsehclPUXW2FcAAAAEjkCp4u0hderUqapataoiIyMJggLkDSDtvktKSvLsO3piBQAApQWBI1AKlNSUGkWFVB4AAKC04RlHoATz9pBqU01s2bKlxKXUKCreVB6rVq3y7Fe7f+mJFQAAlGQEjkAJFBcXl55Sw/L2kErAmL8aNmyY3hOr5U3lQU+sAACgpCFwBEoQbw+pjRo18qSUsD2DlqaUGkXFm8rD7m+73317YgUAACgJeMYRKObotCX40AkRAAAoaQgcix2jA2tnaVLMGbqtzy2qXe7E/vBlUtZo1n8XqcxNkepY+yx3KkoS0kQEP44RAAAoKWiqWuyEqPyFFbX91WEa/VmiE0Zm5YB+/mCUHog5U7UvruBOQ0lh72ZNnDhRFSpU8NzReumll7Rw4UJ17dqVgCTI2ONhj4s9PvY42eNlj5s9fvY4AgAAFBcEjsVQSOXm6vNEU80c+6FWHjg5dDS7lumtqO0a8I/bVKts1nckUfzYHjttwGF78Jw/f36GHlIJGIObPT7enljtcbPHzx5HezzpiRUAABQHBI7FUgXVvONhPaF39MrczHcd/9QP707U1OZ99VDLKiJsLP68KTVsj5029YPtwZOUGsWXN4C0x9EeT29PrASQAAAgmPGMY7F1VEkzBqn+2Jr6cv7f1bhC2n4xSTP0YJMP1OzLN9W3XmjatJSNWvLpl/oucZ8zVlERV9+oDi0vUWiGqNLo2I6ftChmsVZ65gtV+BUt1P76K1SlDOFnUbA9cr799tt68803NXLkSP31r3+ld9QSyAaM8+bN04ABA9S7d2/16tWLPwoAAICgwx3HYqusqt58f6a7jnu1ctqbWhbZR3deboPGw0pe9LLubtpTb645pgsuvlgRlXfrq6c7qNOzXyr5mDfwNjq0fpr6tHpIU34+TRGX2Pn2afmEpzUlfr87DwqLN6WGTenQoEEDT4qHJ554gqCxhLLHtX///p7jbI+3byoP27kOENyOa/eCJ1U7JEQhIVfpgfd/1lH3nTTHlDyjr/PeZeo7J8mdlgMmRYk/xGv9jsPuBABAUeGOY7F2VMlzhqn1qAs1de4/1Pj3KerWJlaRsePUtWoZHd0wTT3bzlXrzybq/+qfk95s1aSs0MR7HtK3PT7QO90v0WnmN83p11njG7ytT/vWd0JSFLaset9s06YNKTVKIdtpztdff01PrCgmbGDYX1Xv+E/aaNjDil5tf4O8vyTe9+crMvorTeka4U4PzLEVY1W3yRApKlbrHm2sMu50AEDh445jsVZW4Tf11mPnT9MLM5fo67fe1YHHeutm+4Nt/tCCieO0aeBA3ecTNFohoQ11T792+mriPK077kxI3aGN3/2p8PPPIWgsZDZIsD1ttm7d2hMo2CDB20MqQWPpZI+7tydWez7Y88KeH/Y8oSdWBK9wtezQXnV3v6Mnxy/SrtL+d10AKIEIHIu7snXUZeBtWvfMg3r402v12L0N5EnAsW+tFrx/pjq0rJ02nsHpCqt9hZrFrdXGXU7kePrFat2rnr6cMl0Lk2kOVBi8KTVsz5ozZszwpGr4/vvvSamBdN5UHva8sOeHPU+8PbESQCL4VNAl9wzWE3eHa90rE/XuD3+607NzWNtXTNPTdzZTRU8zVztcpo7Dpuhbz+/QNi0Y1kJlmwzRBmdsw5AmKmvnqfiwZiQf8yzB8zjGt1M0rONl7ued4dIueuyD1UrxCVxtXuOZE17UhJlrMkwHAOQMgWOxd7oqt+quQbVOU73B9+i6yqenTd6/R78nL9FTzSud+EH1GU67JFKzUo7oiOc5x7PVoN9ETb9+vYbUa6U7h7+leWu3y/vTjPxjO0IZNWqUJwCIj4/PkFIDyI5vKg/bE6s9f+x5RE+sCCpnXq47/vGQmqfM1LMvzNaGo9lFacf1Z+wk3dPmHr206Qo9PWWm5s6dqSljWmjbq7104z3jtWz3marR7kGNGdRBYc4nwjoM0gtRUYoadZvqh9nfubRl9Lyxvz4OjdRHC79T7LJ5mnLHYb3SPVIDPzjxrOXxhM/16MBHNfDRz5VgW9kAAHLHPuNYnNgiewd4bTHRkY1NZPQWd9yRFG0i9ZCJTjrqTghEqjm6bZWJjnrANA2tazqNnG+Sjqa67yEvEhISzJAhQzznrf3fjgO5lfl8WrVqlfsOUNiOOj83DznnYs2036DUP0zMsBbOeAszLOYP+6uS8X3r+HoztUsNo7CHzPTNB9Omeew3CZN7mFDVMF2mrjfHnSlHY6NMTec8rxkV6yzJh3cZdZ8yMTuPuRMdh1eZcS3CjFqMN3GH036/UnctN5OHDTbD/rPUbOMnDQByjTuOJdXZVXRRxA+K++VUzYV8hahMlYbq+uibWpoQpUve+Yf+NTfJ7bEVueHtIdXm6qtevboSExM1ZswYekhFntjzx55H9nyy51WjRo3Se2IFilRIFV3Xb5B6hS3VC0+9o5UHsvgF2Zmgb+Zvktq3VYuIcu5Eq4IubXm9WmiT5n+ToJ3u1Cx5l1HzHB39NU4rVqxIG35M0pGwUGnpGm3YmXZ7MSSsiR4Y/W+N/r/mqkJ2KQDINQLHkuqsK3TrQ+X04aerctFJgRNAVm2gVs1S9OW630XLnpyxPaTavHzelBo33HCDJ9WCTblQrVo1dy4g7+z55E3lYc+zwYMHe847e/6RygNFw/n9qH6rHh3VXaHLJuq56T9lSs8hHU/aqO9TpPCLquicTIHcaRUr6ULn/5SDR/w+LmFSdut3Zxn6dIhubtJETdKHDhryaaJU61xVKkeUCAD5icCxxDpHTe7rrzYzhukfr3+n7ek5Gx3Htil+xmj1/U98WlB4fIPm/W+JtqR4Q0SjY8lr9P1PEepxdQ26Pw+QvVC3HZjYHjCfeuopRUZG6sCBA54Le3pIRUGy55c9z2xPrPa8s+efPQ/t+UgAicIXqsvv7KO/1d2hWVHvav7vGTtdO63yBbJtLpJ/36PMmYLNof3a6/wfFnaWzkyblKWQcmc5v3KOyGglGeNJz5VhWD9S7TzPQgIA8guBY4ll/+rbWVEzh+mC2b10ft12urNnT/W8r6OahLXU4EVhurP9xWknQMjpSpk/UBeFX62O99l5btM19UZq74BxGtryXM/SkD1vD6nelAkjRoxIT6lBD6koTN6eWO35Z89Dez5WqFCBnlhR6EIqX6eBI+9T2Lo3NerfMe7UNCHnVtcV9UOlL7/VD7Zn73SH9OuSBYpRTd3cvLanU5yQMmfobOf/44ePZmz9cu4latzCmWPlGv3yJ+1iAKAwhBj7p7lixPYI6lXMil6EDmvH+p+0eZ/9cT1T59e5TBGhmf8SG8g88LV161ZPT5cDBgxQ586dNWTIEHpHRdCxzz1GRUVp1qxZmjBhgqcpK02mkX/8JPg/ulZvdeugB2dtckZq+rx/QBve6a+mkR/qvO5P6Pl+16vGWce1Z80sjfzbC1re/CV99dEANTnb+Q3a9YUeufRmjbt0mKaPu11Vd+3Xua3b6PLQQ9r4/qO6+a6ZqvTQU/pXr+a65IKKOrQzSVt++EZLjt6opx5qIic81fH1b6lj4wc1t9Y4xS0fqAb8tAFArnDHsVQ4U+fVbqjGjRs7Q/1sAsJA5oFlUyAMHTpUERERntQIq1atIqUGgpY3lYc9T+35as9be/6SygP5I0RlzjjDE6CdpGwd3TnyWfWqZd8N10VVvFmFK6jm3c9r3uReqvTpE/pr66vVpEkL3dBzqlLu+Y/mTXk4LWi0wq5Rn7F9VGv5C7qrxTW67q739OMu+/RjBV1y5/Oa+f79On/+MN3S/CrVuaSWGjRtrdtGLdLhSqE8ZgEA+Yw7jkCA7J0be9fG3r2xdxd79+5N76godmzA+NFHH+nJJ5/0nMf2bjl/9ECRMSlK/DFB246erooXXaba52X1ZKPRsR2/KH7z4axbw6Qvw4lVz6+jKyJCnXAWAJDfCByBU8jc1K9Hjx50doNizz7zOG3aNJpaAwCAgBA4AlmwPVF+/vnnns5FkpKSPD1WduzYkYARJY4NIOfMmePpQMd67LHHdMstt9CxEwAAyIDAEfBhL6K//vprjR492jPORTRKC+8fS3zP/TZt2vDHEgAA4EHgCDiyarZ31VVXETCiVKJ5NgAAyIxeVVGq2Y5CbBO9c889V/Hx8VqyZEl6D6kEjSitvD2x2vpg64WtH6NGjaInVgAASjECR5RK3pQaderU8aQoSEhI0BtvvEHnIIAPWx9svbD1Y8+ePZ76QioPAABKJwJHlCq2CZ5NgG4vgKtXr+65IB4zZgxpNQA/bP2w9cTWF1tvbP2x9cjWJwAAUDoQOKLEs51+eAPGli1b6oYbbtDOnTs9PaUSMAKBs/XF1htbf2w9svXJG0DaegYAAEouOsdBiUUvkUDByqqO0QsxAAAlE3ccUeLYHlJt/sXWrVt7/rcXswsXLlTXrl0JGoF8ZANEW69s/bL1zFvvbIdTth4CJ+xX/PhbFBJyi8bH73enZeW4UtYv1MyZC7U+5bg7LafyYxkFIat9kHlaUZU90OMTLNzyVhyoOdsD3E8mRYk/rNCKFc6wfoeOuZPzpCCWeUoFfawKYvnBWieRUwSOKDHshaq3h9QZM2bopZde8vQMaS9suQMCFBxvAGnrm6138+fP99RDAsgS7ni8xl9V0bnADPE7VOw7R9tldOzIIedDh3TkmL/WQkmaN/JB3X57X/376z/caTmVH8soCFntg8zTiqrsgR6fYOGWN+XIqctr9mrtB0+qY61wVW/QRE2aOEOdKip7aRcNe2uZkj2fP65dXzyqyiedv1XV7P6xmrN+r7NGHwEts6AU9LHKw/I9gXS81u847E7wCtY6iZwicESx5+0h1V6o2h5SfVNqAChc3lQeq1at8tRHWy/pibWEOq2Gbn7xPUVHR6cNk4eqjZ3eZqgme6dFf6zpfRorzPOBQJyv5g+P0Lhx/1Sfa853p+VUfiyjqBTnsgchs0PLnr9HV3cfr3V1+2lS9Hwti/1Oiz5/T+NuM4p+8F/6cM0BO6MO70/RboU7p+/r7rn7oaaMuUX6aIhu6/y85m1z7ycGvMzS59jK19S2QUPd+vbqTHdfOa9LDPuMY3Fii+wdULo5F6ZmyJAhnnPB/p+QkOC+AyBY2HrpW0+XLFnivoMSJynaRNrf58hok+ROOmGfiY1q45wHbUxU7D53WmmT1T4Ilv1S3I6Pt7wPmeiko+60zI6bfcueN02dczK00ysmbt8xd7rXIbMtPs78ejDVeX3UOX0fcpZX00RGb0l722OnWTS8uTO9rnlo9m/OeE6WWVAK+ljlfvlHY6NMTWff1IyKdfYoSiLuOKLY8faQ2qhRI09qgMTERFJqAEHKm8rD9sRq66tvT6wojVJ1aNMCjb//WlX0NAWsqNp3vaxFyd6mbd5n1+7SW+ttcznL6FjyQp/POMOlXfT4nA066s6RUT4uo/YTmrs6Y3kv7fikPlibqemiDmv7iml6+s5mJ5Yfcpk6Dpuib9O3LRBZld07bYCi42L87Ls0JmWdZo68V00qesvhM1w1XvF+HzE7+fhc2vmfmpneVNM+q/apxj58ky5NX25W+ySQ/X1Yyd9O0bCOl7nLSZvnsQ9WK8V355q9Wj/zn+p8qbdZdEPdNfZTrdl+iv1qkvX1lPe0XG302OM91CD0dPcNrzNV5coGqlHuRKeLJztL1Wpd4vx/VAePODsuX5bpbPeiCbq/WVV3e5z9126w/rMsSccC3r9Z8bdcy3seZX4uNLvpvk5Vrm1aMKyFyjYZog3O3BuGNFFZO0/FhzUj2a49q/PaCqTe5Oz8R8EicESxYHtvnDdvnueCc/DgwRlSalSrVs2dKxg4P7rJP2jB+6/qmUceVM+ePZ3hYQ0b+7Y+XfGbDmX41jc6sHamXhw7VmOzGca/9b7mfPWDkg+lup/JSk7WmT2TvFiv2/W+vljJAX6mUJkD2rP3iDuSCwfWasaLY/XijLXKdSOivJYhS39q7YwJGvviTK09kJsdb3/QP9OExx5OO/b3P6c5W9wf0gIpb+7Yjql8U3nYemzrs30emVQepckiDf9rX72r2/TKRx9qyohO0vvOufDoTG3xfM25z1el/KFd+9zGbqm/6H/9emnQN3U08vOlil2+ULOH1NXm+CRlfebk4zJ+fl63XHGvW96PNP3V3opYOErd7xirr3Z5L7KP68/YSbqnzT16adMVenrKTM2dO1NTxrTQtld76cZ7xmvZbr/Rmo8syp4+baL+2ug+P/vO2qXvxg3U7aO3qeXLn2lZ7FLNnfSwGjvvhHYY7nymtf7i98rP9/i427vgWd3e2bu9f+jrfw/X9J1N9KinieZSzf/fY2qyfry6d39V33m/w065v9P2Wc8b++vj0Eh9tPA7xS6bpyl3HNYr3SM18IOf3QDzuHZ9NVadb39WCyJ669XpH+mjKXep/AeD1XPMMs8c2dqXoMWzVkvhzdX88rPdiTnh7PftyxX90TfOzrtareufmw/LPKbti17UPR2e0OLz79MkZ3uiP5qohy76Xo/+7SOtOR7g/j3JqZZr5/GeR5mfC81uuq9TlauCarR7UGMGdfA0Sw/rMEgvREUpatRtqh9mg+uszutA601Ozn8UOPfOY7Fhi+wdUPIdOHDAREdHm6ZNm3oG+9pOC0qpe8ya6UNMm1Dn/AxtbDoNGG7GREWZMcP/Zjo1DnfO2QjTdli0SUhv2nLc7I153IQr1NRsc4eJjIzMONzbwTS2y3LO9dC2z5n5SYfcz/nI8Tqzdzxhsmlv61b7ySbhuDsxKKSao0lfm3G9uphhMdvdabmwN8YMDZcJHxpj9rqTApdPZcjSdhMztLFR+OMmZm/Od3zqzvlmWN1Q5/i3MJFPPW+ioqaaZduPFmB580exqtsITEBNVSPMjSO/Mn8cdZvypf5spnaOcKZ7mxxm0UzOXW7oQ7PNtrQpp5Cfy3C+Q5+eZ5K85TUpZs2krs70mubu6RudbwbH8fVmapcaRmEPmembD3rmSrPfJEzuYUJVw3SZut42csyiCWDmaf7mOdW+c6QsMsMjnGPQfbrZ4i2yd75G40xctj8FOdjek+wxy0a0dOa52YyLS0mbdKr97d1ndZ8yMTt9CnV4lRnXIsyoxXgTd9hZm3e+0B5mcnBmt/wAAFWZSURBVMJ+dyb7fTzPPN0207Zn5j0f/W63l7epqs/vcbc2nmaXqnmHGRmTmNb0MkfLzEL6ufKwif7tiDvRkbrX/Lpmq/E9e07IvH+zOEcCWq73c5n3WebpWSw/Sycf9+ybqvorc6D1JoDzHwWOO44ISt4eUitUqODp4n/EiBHpKTWCsodUs1dr/jtEXe6aLvWeqtiN32jW+H9pyKOPasi/JmrmkmWKGdlYy194RH3HLtZ256vuhIqqed8I/XfKFE3xHd6Zo+Xbt2rZa70V/tULenjMVxk/l6d1FidGB376QqPfTnReFZVgKEPWzI7NWrWurJo/87ImPfeYHn30Pl1z3mlBW14v31QetidWW89tfacn1pKuptrf1ETnl3Gb8oVcqMtbOpea2qyt27JpcnbBFbqhSw2lvPe8ho6N1rdbUnJ+Xud6GTV1a6fmCveWV2epdtPmztQNWrJma1rrhZ0J+mb+Jql9W7WIKOeZK00FXdryerXQJs3/JkE73am5F8C+O35Uh703dDL784hO3UlmANvrdWyH1ts0FCt+0M/b7X1En144T7W/vfus5jk6+mtcWjoLO/yYpCNhodLSNdqw8/iJ+a6/WW1rVXA/HKIy4c3V6Va77QE46wyVdV8G7ph2bkxwtjpCbe95SPdf9xeVcd/xyNUyHX/8qPkz7bnSWk3DfZYQcrZqXP4X+Z49fvdvZjlZbl7lpFz+5Lje5OK7A/mOwBFBZevWrekpNWyX/t4eUtu3bx/EKTWMjv4crScHvaHkTk9p4vP3qnGVM9330oSUu0jthozUuM6n66sXJyp6bWC5kULK/UXX3PeAetaXfn5/kX7c522PUXDr9Mcc2qudKdldlWRmdCxll/b4bWZbsHJW3lQd2rNNOwKePyv5sYzMnGXu/TObJsepStn6i350LgsqVq6YvxcHhcTWa29PrLa++6byoCfW0sTPxedpl+ru1z/Uu3+rosVD/qrmF9XW1fdPyNmzTfmxDNfp50eoifN/4ubt+tP5/3jSRn2fIoVfVEXneOMt12kVK+lC5/+Ug07QljapAPjsu4pXqGOfttKnk/Xifz7R4uWLNPvFkXpulnTjwHa6LEP0E5iM23tcKRvnaZx9zqxsFdWxaSiaXKfIcSvSZvY6xf42Kbv1u7PP9OkQ3exZhnfooCGfJkq1zlUl+5zgsSM6aOc75yz5fWwwK2XOUHknBtXm37Uz0Gc2dIGuHfCSpkx5T3O+/U5zh9XUV/8aqCc/cf8Il6tlnnB821bn+zrrcyVNgPs3k1MvN69yVy5/8q/e5DJwRa4QOCIoeFNqREREeLrwT0hIKEYpNfZqxYfvaFZKfd3bp4Muz+7XrWwddR01TYu/Has7LsoY5OVcYazTWcdrA9Xz8dnamLRMbw3rolrlK+m8imG6tF0/jZ2zLmMHBt75H3xVMStna+z9LRVW8VyFla+mJnc+o/dW/OHzA+Cd93WtyPzMxoEVeu3BnnrwtRU64JnvEf3t3/O0T0mK+fcg9ez5T81J9Pfc3lHtXmPXf63O9pT3crV7eIK++GV3xr94exzW9viZGvvI7WpS8XSVD7tAVTzb11ej3l+h7Z4fo1OVIZBl5JQTdG+P04yx/dTu0nNUvpIznN1Mdw6foiWJ+9O2w2zWnMf7uOXapw3vPKX7ez6ox+fEaXmO91lw8AaQtv7b74E6deqQygOOEJWp0kT3jP5Y67bFac6k7jrro4Hq0PN1xQf8XHB+LCPN8W2JinX+r1G7qio7/59W+QLZrtmSf9+jzH+eM4f2O98gUljYWcrrt35ADidrTdwW1WpdUevH3qPrmrVWp3+u17Xj3tGUfo3kvWeXExm290C83urbW498c7miFv2qfalGxuxTbJQnEYsP//s7pNxZOsfOFhmtJGOXkWlYP1LtPM/GuQ4fDeBuaSbnXqpmLcKdiPc7fbfOhvg5VCZC7QcO0P1h6/TfsR9qpT1P8rhMf+eKR8D7N6NTLjeDXdqT/pxhgHJZLn+Cqt4gYASOKFK2Z8U+ffp4LhArVarkuWAsdj2kpv6utYsSpNBmanNlFefnMjunq9LlzdWyXg1VCQ3wz75mv7bMi9a7q6VaXZrrsopulS3IdaY7qr2/LtXULyfrsXuf1OLzuus/y77XsvmvqEfFrzTktkgNn5fsE4y5838QpYfu+Kd+bPSUlmz8VQnLJ+mu02bp3jYPasyyHe787ryfb9LezFcDx/bq18+n6vNf9zqBZjld1K6Xene8UmWdy4x6He/XwIF3qIHvBUUG9mH7V9T9mh56bdf1enW+7ZThTQ2+bK2G3zlMM/a5s3mkdSbQveVAfar2evaz7xQbG6vlC9/SA+d/qyfv6qNh0b84JfVXhkCXkRNO0Jg8X89176SeHxzWrS/M1vLY5Vo2s7/q/jBara7/h95db/8Ef64a3P2wW66yOr/V3eo/sJ/ubhChGjnaZ8HH2xOr/T6w3wv2+8F+T9ATa2lng5EG6tD3SQ3v11gpX67Rhr2BdjrjldNl/ObU6Q0+fyTbr/XLl2mDaqr5pRfoDGdKyLnVdUX9UOnLb/VDeoc51iH9umSBYpx5b25eOwe5LHPveMLXev2TI7qs60h98su+tCBs3zf678DWPs1P/fG/vWV3/qylXyYqtF1n3dGqhkI9izyuo9m2j81mf597iRq3cPbIyjX65U8/+//82mre0plv3jLFbz+xDpOSoKWLN7lj2TjN2e8PdXH2+1yNivpQq1Myr+ewklcsVvyO7IOokKqtdX//ltKy9/Tu4j9k8rjM7M+Vw9qxKUkpO3K6f9Occrme4+kcizNsu5St2vTHiUbHJmWDc8x/c8eyZgI87iFlzpDtMui4E+j7OaoewVRvEDgCRxQJb0oN2zV/gwYNPD0tPvHEE8UzpUZKkhJ+TJYqXqAqlXLRDkj79Ovct7LoXXWEhnZvq3q3v6itbYdp0vD2Cvf+7ud5nTmwIl5H7p2o14fcreuvaaprrr9Pw6OGqHPocr2/4Cen9Jk4P6SX/O0VTRhwixpcXEO1m3TWP159UcOqLdTzz0Zr7ZFMgaJfZ+q82g3VqPaFTvh2li50XjduXF8RJ3WB7jqaoI9GjNOX1f6mV954Wvdd31yNm1yn2wZG6b+PNtEfNt7yOrpes//9hr6q1lPDn/4/dWzVzFl2YzW5rpseH/O47g5dpQ9nrVSy8VOGgJfhrjMQZqvmPve4/rW8lca9O0GP3tFGTRo3cfZ7pP7534kadvp76jf0A60/dpYirrzKLVc5VaxRz7PuKyPOVZWc7LMgZr8P7PeC/X6w3xO+qTzoibX0OB7/ijreP0bTY1YpMWWvtnz7mWZ/tVFqXksXnRPYeZ37Zfys9/v2VO/nP9Si2O+1aPpI9R8yQ2raSw+3r572R7sKDXTX0G4KS56kAf3GKHrR91qxYplipj6r3v3elm7sr7/f4s5bwE6vebV6tJU+efCytHQINmVC27+qZ98nNGFmXAAtIPxv72nnhKt23VClrPxKc7/dpN3b12je5H/q8dFL3M+nOeX+PqO2Og68S7VWT9I/hv7HWdYqrf/1F/0Qu0hz3npej/0nVp6v69MvUbv7b1Ho7sn6+5BXnfmW69sv3tDg227XwE9OETiqrKp2GqI3+zbW7vf7qPlt/RX11nRPT84z3n9DI3q2c36fRmnhb/6aK1fW1XfcqRZapTenLFSiyeMynXOl2+BOCrXnyuCXNXvx94pd/In+M6y7rrlhmhJCA9u/JznVcj1xWXld3Oga1dUyTRw7wTlPv3P35W3q+/7PnsVkJyTA4356RB1d50R6m2bN1Mxl32nxpwu0NiWbx1WCqN4gB0wxY4vMULwHby+KU6ZMMc4FoXtkizG3t86c94rp7VX15H2UNtQ1HR552UyPiTdJBzMtN9frzN7Jvaq6vX2qm5mckKmvN+/6M/TA6s4f+oCZvvmwO81rt1k2wvaK1sGMi7M9qvnpSfSk3k+9+6mxGXqKHkJTN083d4eGmrrDF57Uc2rae5l7VT1q9u1OydT723FzcPOH5qEw3+3zV4ZAl5GdjPsi9Y/Zpq/zubC+s80fJ3Vh6O7H0HvN1A22l11vucJN+8k/OWNege+z4sR+X9jeV+mJNUhtm20esj08Z9mraoqJG3ez8x3g0/Omh7fHRO/0k+dL3fa1GdWprjPNWbY7hLYZYqav2ZNNL5/5sQxvuRqZPs/9y/Rqanup9vO5o7+b5ZP7m6ZuT9hpQ7hp+tB/zNL0HrGz2geZpwUyj1fmfeds5754M7lXI6eMj5hX/zfFTIqKMlFRz5kh3ZqaUNsr5bgVxts3aUbuskIjzcvTxpjutUKd5Wa1vYdMUswLplNNn/eb9jevvfywifDpMTOg/W17BX//CdPBZ1meoebN5pHpP53oYfRoookZeUdaD6eeoa7p9PQHZv6b9zuvA+hR8+hWs3D830zbTOsJbfqAiZr9k9nnKdAx5/Qd4OyjmiYyeovnY+m8vX/6/hYGtMxs2M9G3WNq+XxONbuapz+2nwtk/2ZzPvhdrjuPs89XT+7jM09W+zKr5Qd23E9afvr1QHZlzm29sU4+/1HwCBwZCn3o3LmzSUxMdI9oCXD8JzO5vXNRETbIzP4jJ11CZ3PRn3rQbIv70AxrG5H9hU2u15m9fAscswxmD5qEyd2cZXkDmYIIHLMLolz7l5oR9UMzBY5OgJcUbxZ88q5zgfWcGfrQPaaDJ42Je74GFDgGuozsZNwX3uMQ2riDudc3PYtnuNd0a1PLZz9mt82B7rPiyQaQ9nvE7t8JEya4U1GypZqj29eb2NhYE79l38nfiQHJyTK8F6XuRfHR7SbB+VxswvZMfyTKJHWf2RLvzBe7yiRszyKFUoE6bDZPf8AJfpqb4Ysy/VH20DIzoobzfdRyklkTSBqJU22vdzvjt/gJkgLc3+n7zN983mXlZb8eMtsTVuXzscn9MlP3bTHxdh9ntQ8D2r9Z87tcjzzsyxwd9x/NlgBSgXkUab1BThS7pqpOmd1XKM5sJzglptv906qo1tU1pd3xit/o2xYyM6MDP3yo0ZOm6Yv4bdn3FBZSTlUa3KFnX3tef/1tku7q8rg+2JgpZX1+r7M0KFNeFc/27UD9sJJjRunW2g3UbvBkLdsuVWl4kx4Y+aFW//ihBoW7s/mVH8vISqjC67VWh86d5QRIPsPtumvAaEVH/1O317Jd+5Uu3jQ9ttdVy/bC+uCDD3peo6QLUZnzarnNsUNz2XwtD8soc55qO59rXPu8jGkZMgsJVcSVznyNG6r2eYXdrccxpezeqRQd0LYt2048p2j+1MbPZ2nWplDVbXu5qgXSuvdU2+vdzisj3OfdshLg/k7fZ/7m8y4rL/s17bGD/D02uV9mSGiErrT7OKt9GND+zZrf5XrkYV/m6Ljn4BGJIq03yIli+YyjDR4Ziu/g7XY/Pj6+hHS7X1mNb71V9RWrKVMXZ/88m9mub6e9rMf7vay5vx+X/6/TEJWrfbuGP3efav08Sb0Hv6s1Gbr+Loh15pNDB3TgpBQch7Qr2YmqdInqVPMJeLKY1+zZrsSTHpwMxGkKrXGZrg7dpy2bnIsmd6qX2bNVP/202x1zxrd9qX91G67lzV/S8pVfasoLT+nRvvep603X6vLzy+nwIXdGP/JjGZnZ3gbPDU3RjgqXqd3tXT25Dk8MXXRru+vU7tZbdE2GvFclm/1+yCpNj+2FNXjT9ACFrYIuu2OwRnU6rP/ce5kqnmafcXSG085RzdunSH1f00dDr/V0XgIAuUHnOCgS9oLvjTfeKCHd7oeoQuO/6qn7a+nndybptXmbssi5d1jJC17XiFeWKvTG+9Sr1YXOp06lgi65Y4hG922slE+e1xNv/+iEX14Ftc58sPsLRX+1OcPdTbNrhWa+G6vQzjer5cX2r4llVOHsis68v2hjsm90dUiJscsUm+VN1MP688BhT/vP7JwW0Vi3XX+e1n34mZZt8y3BUf3+/QLFpMeNRkeTf9UPznjFRleq9tm+IbVThiXzfeb15VuG3C7Dv5DwK3TD9TW0+93/ac7Pme40H4jT63depbArH9Wc5ED6aj31Pgtm3jQ99vuh+KXpQfFWThfd+LiiP35WneoUnz9OhFRprcdnLteW2AWaHR2taDt8PFeLE37Q0kn3qF4x7CQLQPAgcESR8u12v3r16p4LRG+vicVK2Ut1x8gX9HTT1frXzS103QOj9c7cxYpdEatvF8zQ5Kd7qvUNw7W8yVC9PfF+NagQYAhXpoY6Pf6E+tbaoU+GjNLba3wiqoJaZ56t09tPDtVzH3znBIW/6df4zzVh8BC9sPV6PfNUF9Uqa8tRUbWbt1RdLdTE523vbisUH/+dYt4ZpQGjlujsmr7NMENUpkJFnatNivlwmt6fEaO1e7Lp6LtsHf31qUG6cesrGjDwZc2J36jk5I2KnzNOg5+do9T0xYaobMTlalU3VMkf/0//W/aLM1+ykhPXadn7ozXgMWfeGqcqQ2oOlxGgspepx5gR6hX+iQY99JQmz4vTr85yE9cv0tQnH9OTX56nXsN764Zw32a3meVgnwUh3zQ99nuhWKbpQTFXRuc1aK+uXVqrdnELtmyzv8Zt1dHbUqHLTWp5qia2ABAIAwQR2+mF7ezCnpq284slS5YUq14TU/f9YhZMfsp08+0cxQ4125u+UR+buG2+D32fojOXdAfN5uhBnl7KQju9YuIyPWyes3VmL986x9EtZvibL5mH0nshDDeNuz1t3o39PWMnC6l7TMLHI0339HKHmpqdnjUf/7TUvNk+PGMnNgfXmY8eudE4YZgz36k6fDlidsVNN8M6nOjRL7Tpw2bSp2+YARk63Tlm9q35IMN8np5sh042CzasN/OHtTAKe9hE/3bEM3fWZcjhMrKUVUdBznI3fGHG9W3v05Ogs3/aPpypxz4/51CO9lnRs/Xc1nffTm9KRK/LAACUECH2H+dHGggqthOMr7/+WqNHj/aMP/bYY7rllluK0fNMx5SyY4f2HbXV6wxVrFJZoQElX86Lolinrx1aMOxmXT/mEk1OmKoHLjmmHdv36WjZiqpyXmj2f+0+lhLYfErVoT07tPtYhVPM5+XdH2VPsS+880llK56n80L9LTm7MuRkGTlhnN2zS9v3HZFCyivsgkoql6NDmtN9VvhsPsbPP/88Q11v06aNKleu7BkHAADBgcARQc17UTl16lQlJSWpf//+6tixIxeVQSlT4Fi79HTegpyzfxyaM2eOp9Mbq/j9cQgAgNKFZxwR1OxFpH1Gw3aI8dJLL2nGjBnpPbGWiFQeQCnjm1LD1mdbr7///ntPPSdoBAAgeHHHEcWO7Thj1qxZioqK0pAhQ9S7d286zQgKe7XiteEav+xcdRvxuDpGnOFOB9J6SP3oo4/05JNPeuqtzUtJ76hAsDmq5MXv6b3vdrjjmZxRWdXr1FOTq6/SJZW8HXQZHVg7S5M++8XzQHZWzqgcoUsuvkyNm9dXeLns7lnYpvmJil/4lZZ8t0pxm3fLk6ypfLiuaNZSLdtcqyaXhPl/nCF5tZYuWqKFy1Zo027bs3YFXXjF1bqu7Y26/qq/+DT1z68y52SdQPFH4Ihiy16Ivvnmm+kBZI8ePdSwYUP3XQDBIC4uTtOmTeMPPaXefsWP/6saDpLGxX2kgQ3OcqcXIJOixB8TtM1mrql4kRrktmfRYzu0/ofdqnzlpTovq2el7ftrD6rqFTlP1p57We3P/NjHh7T+rUjVefBDdzwbNe/QyNdf1tB21Zx9mqo/FzylutdPUIU2N+na6pnWm7pTa2Z+qhUpUmjb5zTzvSG6PjxzkvfDSl40SYN7D9f7P1dU4w4ddH3z2qpy5nH9+ctXmvafedoQ2lJ9X31FUfdeefJ+Nnu19oOR+lvvKH2txup0/61qWf1s6c9NWvLZDH2yoozaDntZrz3V2e0lNx/KnON1Bii/zltfOVlmvq/fOFXkF8Vv/jNtNNBlnqreZXBYO9b/pM37bO/hpzuruEy1z8t8jmXB37Zmu/7jSkn8WUnlL85mHTmph86y1i/R/LXS5Te0LB49ONvAESjOsuqJFUDRytxDamJiovsOSoxjcWZco1DPMfY3hD4022wz+0xsVBtnvI2Jit3nLqCApO4xa95/wnSomalsNTuboZOXmqSjx8zOuf8wYb7veYZapu2gN8zSJN+eqI+apOiHnPdqmsjoLe40X4W4XRlktd78KMtBkzC5m7OMbHr7Tt1vkpb9x/Sq5ezbWoPN7CTbY/SpewhPPbjVLHutt6mlUFPrkc/NtvSeoa1DJmn+c6ZtqHOutH3CfBT3uzmY4f3j5mDSt2aqp5foRub+6etNhn6qneO9enIfZ9kRps0jU01spp7EUw9uMjEjuzifjTBtn/nKXXcey5yrdZ5Crs/bcNO0V5SZnbDHnLSaUy7T5xMBzZtdGeyQuY44x3XZ22Zohl7H3cH2+j7+64zrz+BU9c519DezbPKwk8vsb59Yp9zW7Na/zyRMfchzTtQdvvBEz+8Z5KQebjHRkTWdeeuah2b/5k5zpO4zW+LjTML2wHrFL0w844hiz3aUYzvNcQJI3XDDDRo8eLAnF6R9fsp2rgOgcNj6Nm/ePE/9s/XQ1kdbL239rFatmjsXSozTaujmF99LSzJvh8lD1cZObzNUk73Toj/W9D6N5VxoFg6zQ8uev0dXdx+vdXX7aVL0fC2L/U6LPn9P424zin7wX/pwTYoO70/RboU7RX3dLef/9Obwq7R1XB+1v2e8lu0uPnlPC1VIBYVf0139/6+l9PMnmrZoq+eK+1RCyv1F19z3gHrWdz72/iL9uM/TCNXD7Fqicf1f0FfhgzTl7eG6o8EFmZp3nqZy4Vfr3uHD9Le6P+u/4+dq7RHvWo2O/hytJwe9oeROT2ni8/eqcZWMd4FCyl2kdkNGalzn0/XVixMVvXa/+45/2Ze5ANaZ6/P2Q00Zc4v00RDd1vl5zdtmm8q6AlrmgRzOa7Iog3eYqIHNz3eXt1dr3hmizjf20ph1dTR00keKWbZcsenLLKcvBz6r9+IDOxZZMr9r0YjeuvHBV7T+qsGaPHuhlsfGavmiTzR5+HXa87azTzo+rg82utvoFdC2ZlWuY9q+aLz69ntP6jVRHw29Vme77+Te+Wr+8AiNG/dP9bnG3XeOYytfU9sGDXXr26udtQYZN4AESgybD875EjNNmzb1DPZ1ccoFCRQ31Dl4JEWbSHtlGRltktxJJxTGnbnjZt+y501TpwxZ5by1d0C2xceZXw8eyfpuQuoOs+jp6zzT756+0b1TwR3Hk2WeJ8CcxPuXmhH1QzPlrD1sNk9/wISqhuk8eU3GO4kn2WcSYj41MbEbze70O1W7zbIRdpvrm76zt2Z9d8njmNm9ZqlZvPpXs22fzSiclzLndp3ZyeN5a3aaRcObO9N971oFukxb+pzMG8idwFSzP268udFzB/k5Mz/DHXyvY2bfrz+ZjSety+tU6zlmdsY8Zeo6ZQ7r/l+zLuMtaseJ/Ndh90eb39Lfzu2+TjUHE9713GkPbTvSLNzm73jmvR4ejY3y5HCuGRXr7Ingwh1HlDjenlgXLlyoESNGeFJ5VKhQgZ5YgXzm7SHV1i9bz2x9s/WOHlKRvVQd2rRA4++/VhVDQhQSUlG173pZi5IPu+9bh5X87RQN63iZ876dxxku7aLHPlitFOdyLFsmWV9PeU/L1UaPPd5DDU56XuhMVbmygWpk11tJyDm6tMFlzosN+j5xl/LvnqN95ukWhdR+QnNXZ9z2Szs+qQ/W7s101+6wtq+YpqfvbObOZ4fL1HHYFH2bYT8FwuhY8kKfdabty8fnbJB9rCtXzJ/auv4358XFalSjsk719JmH2a8t86L17mqpVpfmuqyie/lptuuHr79XiuqpXePq8na3k7VQ1W53qzPfxarkfeYs9XetXZTgvNVMba6s4qcsp6vS5c3Vsl4NVQk0z252Zc7vdeb1vNVZqlbrEuf/ozp4xD1rc7LMPK8/E5OkBa+9ri9TrtPf//mw2p30PKt1ukJr1NXFuX2mz/ymr995X+vUQc8+/lfVOals5VS9w736vwah2v3fGYrZ5NabXG2rrUPz9Xzfx/W2HtSUt/+u66oEcg6d/F13aed/auZ63/rufjdUvEtvrT/kjG/TgmEtVLbJEOdbyPkmGtJEZe1nKz6sGcnBce+RwBEllr1wbd++vSeVx5IlSzR//vz0VB5bt2515wKQU7b+eFNq2Hpl65etZ7a+ETDCv0Ua/te+ele36ZWPPtSUEZ2k9wery6MztcXTEvC4/oydpJ439tfHoZH6aOF3il02T1PuOKxXukdq4Ac/Zx/w7EvQ4lnOVX54czW/PDeNyA5r97btzv811SyisnNpm1+cC88jzkXhz8/rlivudbf9I01/tbciFo5S9zvG6qtd3jA1bfvvaXOPXtp0hZ6eMlNz587UlDEttO3VXroxp81oU3/R//r10qBv6mjk50sVu3yhZg+pq83xSTrVgxwmZad+T05Wcvrwm35ds1jRzw9W3xeWKvTGu3T3Nb6B0z79OvctvTh2rMZmGEZoaPe2qnf7i9radpgmDW+vcO+HzD5t27hTCrtUl4TnIvdvSpISfkyWKl6gKpUCDAgzyEWZ87zOTPJ03jrn1vbliv7oGyeQvVqt65+bNjkny8xzvclk92rNf99ZXoPb1KlZgH9YyKl9v+i7L36WIpqo0aXZdD5zZg1ddVMd58VG/bzVbXqai21N3b1SU58Ypn/FtdZrM/6p26sHep76fte59X3Bs7q9s299d78bUv7Qrn02MDxLNdo9qDGDOnia94d1GKQXoqIUNeo21Q/Lv2+kPHHvPAKlQkJCghkyZIj9Y4/nfzsOIDCZ68+qVavcdwBHQE1VI8yNI78yf3ibGqb+bKZ2jnCmP2Sik44ac3y9mdqlhlHdp0zMTp9mZIdXmXEtwoxajDdxhzM3S3N5199onInLrgWcRxbN4FL3mo0x402k7fSl7jAz9w9vA7H8aKp6YtvbPj3Pp0OQFLNmUlfPstObxnq3P+whM33zQc9cafabhMk9PE06u0xdbxvcZbHeLKa5+yStg6JAeJuhOvsx28F2PDLeLExvguht9pnVvHaoazo88rKZHhNvkg5mahTqPa4ZmoJ6bTcxQxtnsbzGZmjM9rRZ9saYoeHOtCw/708eypzrdWYjx+dtqKnZ5g4TGRlpIru18TRpVM07zMiYxBPNGgNepiMn82ZVBu/Q91WzbNcxc2zNJNPSLs/3eyB1u1k2flCG+Xs98ppZmm2Tz1PUO2+Za0aZ2Gzbcnrrg88ycrGva9SsEWBTaq8c1Pcs67GzdpqqAsHBpgEYM2aMnAtgVapUSXXq1FGfPn08uSEBZM3Wj6FDh3rqi603tv7YekT6G+RcTbW/qYnO9zY1DLlQl7d0LpG0WVu3HZZ2Juib+Zuc2c7R0V/jtGLFirThxyQdCQuVlq7Rhp2nuON21hmnaPLotUFT76ie1nzztHN0yfUDNaPS/Zr60eNqf34+3Ek6SU3d2qm5wtO79j9LtZs2d6Zu0JI1W+XpwsO7/e3bqkWE752NCrq05fVqoU2a/02CdrpTT+mCK3RDlxpKee95DR0brW+3pDhXzYEIU9NBr+gjn85PPp67SMtj45WQtF5L/ztA153UBDFc7Sf/JCeUsjclZFIPalvchxrWdr8Wxv0mXXiRLsycD7FMOYWGOtuZ/Is2/X7Eneh1hi68uqcnlU/aMEpDuzVw33OFVlWdK5zw79ABHTh0osOdwOWizHleZzYCPm+9jmnnxgTn7IlQ23se0v3X/eXkFBc5WWaO15/JoT3aa/fH0SM6uWuZQ9q709tJjVPuNV/q7Zen65sttnlmEQh4W8/TVXffp261dmhW1Nv6IiknTcUDqO/FEIEjSiUbQD7xxBOeHh8bNGigli1benqCJIAETrD1wdYLWz+qV6/uqS+23pCHEfnvkI4ccy7cU3br9xRn9NMhurlJEzVJHzpoyKeJUq1zVSm7Z63KnKHyTmypzb9r56FAwqMwNY58QlHjJmt69EzNXbxOvy4dp/vqnVMwzeuycPr5EWri/J+4ebtslrvjSRv1vbP94RdV0TmZCnFaxUq60Pk/5eCRwHtaPO1S3f36h3r3b1W0eMhf1fyi2rr6/gmZninNSjmFXdlOt3ft6nlm2Q5dbmqlJo2vVO3w0MDy+oWUU5UGd+jZ157XX3+bpLu6ZNHD5WnV1LjDVc6Ln7R8/c5MQe3ZurzrAD366KPuMFgP3pzpu+e0Kqp1dU1pd7ziN9oTJztGB374UKMnTdMX8duy338BlTmf15nj8/YCXTvgJU2Z8p7mfPud5g6rqa/+NVBPfpJ4Yv/lZJk5Xr/lLcOUE8N/H9dN4WV1etVL1Mwub2WCNh9wlxdSTTc9+7o773/0z7tsE9I8OPMshdm2nMeP6Ojx7Mq8Xzu27nb+r6XGNSunTcrxtp6u0Ea99MJrf1fTdVGK/Pv/lBDwPjpZ5vpeHBE4olTzTeVhfxhtCoFmzZqRygOllj3v7flv64GtD7ZeeFNq2PoCFKSQcmfpHPsiMlpJ3rtAvsP6kWqX3bM+516qZi3Cnauy7/TdukAuyyqrXue+enTgA+retbNualkni0TjIc41aqgTYu7Sxm17s+gw54gO/GmDsHI646TPntrxbYmKdf6vUbuqUxrnoqzyBbKhUfLve066a2MO7dde5/+wsLOUVXcjWQtRmSpNdM/oj7VuW5zmTOqusz4aqA49X1e896K+QIWoXO3bNfy5+1Tr50nqPfhdrclw4X2WLrv+NrUPXa133/hUa3N8UV5ZjW+9VfWdvThl6mIlZ/dxs13fTntZj/d7WXN/P36K51dPVeZ8XmeOz1sfZSLUfuAA3R+2Tv8d+6FWeo9pTpaZl/Vn5bx6anubE1ivnqOZ324P8A53DoXVVOPrIqRNS/X9uqxTepi9a/TVjHgpvJHqX+w+e5+rbS2rKm0H643x3XT0/af18L+/0e5cblTm+l4cETgCDntBHBkZ6ekR8rHHHtPo0aPVunVrzwU0PbGiNPj/9u4Ezqb6/+P4+xaSrjK0jR9SsrWpUCn9skSLQuSn1ZZ+UVR+/ywp/ZaiZfx+hYoW/eJXIk0LKmSUJdKMoqjGlq1RdmYwzJjv/3yvc2dz58ydfZjX8/G45t5zz/l+z/me7xnnM+ecz9f2c9vfbb+3/d8eB/Z4sMcFASOKTbXz1PjqCOm7lVqzNw9JYKwT6ujGBzo6Qd5MjYiaqhVJ2Zc/qC1LF2j59rxkJzxREQ2b6kb/Li2c+Jlis62T2fqtPpr6o9TgKl0WPDnN0W+Ki1ubKTPsPq2KXay1qqNm55+lCs4UX7Vauvgiv/TFN/ohPYGGlaxfF85VjDPvjc3qBRJn5I0NIBupXZ8nNOzBxkr6YqXW7slj++ZbJZ3XeaCe6+PUO+1ZDX37R2drgnyqcEFn/ePxdtK0Z9R/xHSt2h0q/VGakrd8ry8XrHE/B/lUqfHterJnXa3+31iNm71eR8eezn6f+7qeecUm9LlXPa4921kqN97rXKh1FrDf+qpfp579mkuL39U7C/44EqjlpczCPm58tdSm951qoEV6fsgYzQ4rE/BBbV+f4J01OTOnjuvubCO/5mns218pITXbgma3fpg4Tq9silCzv92mq051w538bquvihr1Ga43e56uL594VEM/+jWMq/65H+858ZWrEBgj8vDBlELM7lxIDICQFi5caDp06GAPeTNmzBizY8cO9xvg+GH7te3ftp/b/m77PWMwIl+CiSfyNI5j9un7zNrJfU1dm4DlgVfM54u/M/HrVpvlsfPM9PEjzOBxsc4SHlLWmeg+RxKq+Fv0MS+Mfy8wrmj05NfN092uNn7daEYt2+2deCO7tB0mNqqDs6zf1Gk3yIyNnmMWx843M6eMNo+0sIl9Gps+0es8klgEt9Ge0zcyXYe/b+bFLjHz3nvctPQ705o+bebvDGbq2GfWTOxpIpy66nYdYT6Yt8TExS0ycyYMDszrb/Oiid1j5w3VnkdPS132smnX43nz3pzvzMbE3WbD4gnm0aYRRs1Gmrh9oZIMhTOOY3bhjImYZlI2RJs+NvmQv6sZuyLbXkzZZGKGdw4kBPE37moGjZpopsUsMnG2naMnmFGDuprGtq1s+0XNNGuzjL/nlJ0w2zzV0u4Lm7jnWTPx8/kmNi7WLI6JNm8O6xoYz8/fYpD5ID5Yb0HXOT91OkttnG6G2OQwQ6abjZmbv0D9Ns0cXDbaXG2XvXOy2RAsN6wyk/I4by5Ja4LSdpsV4+8PtIH8V5tuT79uJk+PMYvmzzTRE0eaPoHjJthPbZ/rGji+LnpmkXMEWMF6Ik2LQa8fWZf01yyzbJtztB1YaSb2uMyZxzlWugwzb07+yMyMmW2mp6+zM73H22ZF9rEa893Wdp9/bgbb48ffxYxetsuZEkpejvdQx7Fjx0zzSISdd7CZvOgbM39GjFmZGN7RWNQIHIFc2BPp3r17B34JDB8+nEysOC7Yfmz7s+3Xtn/bfg4UyNbp5gF7YhQycEwyy0bd6PS3TCerAcETp0zTnZPOlVOGmnZ1nBP2wMmX+6pzo3l08s/OaWYuUjabeaMfMi2zLe9v2stETf/ZJKalOqva3zlBDDNwtFJ+N3HvPH7UOvmb9jYvzVztlOnOF1JwGy8z9z/9L9OjaWTG8i0Gmskrd2c9AXXqih3fzzQNBErBlw2kXzOL0jOZhmrPo6elbf3KjGjfIFM5OdSZrqgCRytjUPaQg6+n7TMJcR+Z0elBYqZXnbamT9R7Zl78jhwD9LTENWbu+CdNl8YZ7Zux7Edm2dbMA9EXzjrnrU6n1vjxpq39vu14E5+90oL022A2XnUx4+MzHSG5lunOZ4U1bx6OHZupeO54M6hd1v4XKNP+cWD0pyY+0J6hAsdUszNm6JHA86hXI/PIzN8Dc6Ul/mymR/XKdqw4LydY7RE1wy0/hHy3darZE/uiaWPry/GPL+7x7u9mXpr0gulq//AQLP+oYy+H34uZA2/78vcykzccdL8sWT77j7NSAHKxatUqvfnmm4HsbgMHDpRzsk2SEBxz6Mc4ZpgkbfoxXltTpPJn1tfFNf1h3GKY2UFtX/WzNiRKlc9pqHqnh/9kYM6CZR7OwzolaenIW9VkoBQVN12PNUrWquUblFj5HDWqd3rOiWbSt//EAq6/Uer2NVq+YW8+27EEpCZp+7bEI2N2+k5WxFlVFO748zZrZ9L27UpMsae3FVT5jKry5+P507wpzDqLst+GU2bh12+SNunH+K3O/ixoX85JxnHpVOB9XGVRFG2dTer28I73owSP24M6s35D1fSXjnEcCRyBPLKDn9vBzvv3768OHToETr6vueYa91ugdLIZUm2w+Mknn2jMmDGBwfoJGIHikC1wbGzTOgLAsYfkOEAe1ahRIz0T6/XXX58+lMfs2bPJxIpSxfbHzENq2P4azJBK0AgAAPKCK45AAdmT888//zyQidKy2ShvuukmnXxybhn2gKJBnwRKk1RtXz5X8389SRdd31z1SsktZwCQVwSOQCEJnqxPnDhRCQkJgWEM7rrrLoYyQLGxQ2pMmjQp0AerV68e6IMEjAAAoDAQOAJFIPvzZASQKErBgJHnbgEAQFHhGUegCNiTdptA5/vvv9fGjRtVrVo1DRo0KJDREigstj/ZfmX7l+1nCxcuDPQ7gkYAAFDYCByBInTppZfqhRdeUHx8fOBz/fr1Ayf69ookkF+2/9h+ZPuTZfuX7WcEjAAAoKgQOALFwGawtCf2NqNlrVq10jOxEkAiLzJnSLX9yPYn26/IkAoAAIoazzgCJcA+kzZjxgy9/PLLJDGBJ5IuAQCA0oArjkAJsCf9NgCYN29e4KcdNuG6667Thx9+GAgqARsw2v5g+4XtH8H+YsdgJGgEitphJa18V32vqC6fz+e8rtbguVvd74rTPi0ffZNT/00avXyfO62MM0na9MNSLV3qvFZtV6o7uUCKosywFOX+LYqyneNi1Tx9/PE8rUo67E5DWULgCJQge4WxU6dOgYDgxRdfDFxVsolO7JVIAsiyye53u/8rVaoU6A+2X9j+YfsJV6RxzAmckC/Xqu0H3Ql5VNDl8+vQj3rrr/01bvcNipr2heZEP6Qrq1VwvywCOW6nUeqhZOdnsg6lHmc3iOV135o9+un9J3RL3UjVatRETZo4r/pnqPz5HTX4rcXaEmifw9o56zFVDQT7mV/VdUXPkZqxao/TopmEVWZRKsr9W4Cyc9w3CZo9/D7ddlsf/eerP9xpKEsIHIFSwAYEwUysNjPmnDlz0gNIMrGWDXY/2/1t97vd/5kzpBIw4liV+t04tWx0qW5+e0W+ruIUdPl827FOSxftUsTNd6jXrderdae71alRFffLwldi21mC8rTNZrsWP3u3ruw6Wr80eFBjo+docdwSzf/8XY261Sj6vn9p6sr9dkYd3JekXYpUi0GvKzo62nlN1YQXbpI+GKhbOzyr2Vvd2sIus+zJed+cqWZ9n9GoUf/U/Ved6U5DWULgCJQywQDSZsq0QywEM7ESQB6fgkNq2P1s97fd7wypAZQOVWucrlPd9ygpaUpa8qYeeeJTqf3zip48Qn06tdZVja/QtTfepYdffF+Llz+n9vUrufNblVTryhsDd2p06nS7ug2M0r8HNJN++UQffWtvOc5PmZBOUuRVd+jhh/+ixqeXc6ehLCFwBEqpYCZWG0jYDJo2sLj//vvJxHqcsPvR7k+7X6tUqZI+pAYZUnFsMUrdMk+je16jysHbAs/vqMdnLNTMwVerfJOBWuvMtXZgE5W331Xuqw+32GsY9lmpTzWy7w06P/12wso6/5Yn9P5P9nbCrZrrubz7/FblhzVjW+ZnrUJNz2kd1yrFnSPDkXp91TtrovMpWG/lm97SqkBxB7Vt6SQ99ZcrMsryNdQtgyfomy3B2/qC69BXE+e87T4nWVn1BsdolztHhty2MyhNyevnZtoGp7w7XtL89Dqtg9ryzQQNvqWhu17Oy9nOIe+vUJLnnYrB9e2v6GUxBazD3io6SNV9tdR25BLtDdab+qs+7NtEvqoP6sOE38LcZpfZoq8mvKtYtdCQx+9SI/+J7hdBJ+mMSxqpdkWf+zmUU1Sj7nnOzxQdOOTsyEIp02mL+WPUM/05WKf/thqg1xYnKDXX/u3Fq1wrL30/u8I67u7QW6vsbbBBeTkuwulnKK0IHIFSzgYSNiGKHXqhUaNGWYbysAlUcGzJPKSG3Z92vw4dOpSAEcemtDV678EeeuTr+hr++SLFxc7T9IENtGH5Hp3V6j698Eg7RTizRbR7RM9HRSlqxK26KMKepP+hr/4zTJN3NNFjgVsEF2nOe0PUZNVode36qpbsr6Tansu7z28lHcr2/FaI6TmuY4KO/g16mhre0kdRw7qpsfMpWO/wey9R1RMOa2/cWN3d4m69uP5iPTXhY82c+bEmvHC1tr7aQ23uHq3Fu+wJe3Adxql7m6Fa2vB+vTRqqO6sX0XlA3Vkdkou2xk0X8Nu76N3dKte+WCqJjzTXpoyQB0f+1gb0+z3R9ate5t++sjfTR/MW6K4xbM1ofNBvdK1mx5+f3WIIDkouL4v6/bL7i1gHSeqaqveev7Oivrin8/p7R/2Ossla+O0URoybq/uHPWobq1eJcxtdiXGa8EnK6TIZmp2QX6u/zrbty1W0R98Lfmv1HUXVSuEMlO1bf6/dXe7oVpw5r0aO/kDp/yX9cA53+qxhz7QysO59e+cQsfcyrXz5KHvH6Wwjrs/tDMxGOTn9bjIrZ+hVLPDcQA4djiBhomOjjZNmzYNvOz7/fv3u9+iNLL7J/s+s/sROOYlRJtuzqmE/4HpZqs7KbOUuChTx/m+TlScSXGn5Wy3WfxMc+eM90YzallSYErOyyeauKgWzrwPmOiEzN+EmJ7LOobkLpOl3sOrzMSOtY0iHjCTNxxwJ1r7TPz4u4xftU3HiavM4fR18Ju6faLNhpQ0d76c5b6dNU2b4V+aP4Jlpa02EzvUzNjO4Lo1eNLE7Eg9Mo918Hsz6uoIo6tHm2UHc1qPwq4jzRxa8465M8Jp8/avmR/XfGz61vUH3q84kLEOYfcNd1/oslFmWaZqQ0txZn8g0PZ1WnQ23bp1M926tAjUozqdzfCYTUfqylOZIaT3hb4m+rdD7kRH2h7z68rNJnPvyHB0/85o+xYmKi4xzHJD9PGA7NOzlZ2j/Bx3mcrM83GRSz9DqcYVR+AYY4diCGZiHTJkSPpQHjYDJ5lYSxe7P+x+CQ6pYfdXMEMqQ2rguHDWxbq+Y20lvfusBo2M1jcbk5yz8TxK3a5VdhiEpT9o9TZ7DbCQM0wWxjpaO+L19Zz1UtuWurpmRXeiVUnnN2+tq7Vec76O1w53qnSpundvrVrlvG53DFcdtb2hic4MluU7Wxc0d07ttUGbtx7MWLc6pynl12VHhpWwrx8TdCjCLy1aqbU7crp9Maiw6vCpfJ3b9I+Rd0nThqjjDf01dks7RY24Sxd63vqZi1MqhLhim5tU7VgXr7WqqZZ3P6Cef/6TsjyZl68yHX/8qDkf275wnZpGZirBd6pqX/AnZe4deerfeSm3oArruMvzcZFLP0OpRuAIHKOCQ3l8++23gSEb7Jh/DOVROgSH1LD7w+4Xu3/sfmJIDRx3Tjhfd74+Ve88dIYWDLxdzc6ppyt7jgnjeaXDSlo3W6Psc07lz1B9OwxCkz+r26il7veFKN/rmNXhhHX6NkmKPOcMnZYt/jmhchWd7fxMOnDIfQ7NKqeTyoe49bJQHTnZN0m79Luzbvp0oG4MtGXw1U4DP90k1a2mKvkO2vJTRyXV69hN90Xs0tq1mxRxzz3qdIETXOZHuQo62S664XftSA43sDlL1/R/URMmvKsZ3yzRzMF19OW/HtYT0zYd+aNBvsrMcHjrZv3o/AzVF47IX//OvdyCKvzjLu/HRU4K+Q9GKBIEjsBxIPNQHjYzpw1YRowYQSbWYmbb27a7bX+7HzIPqQEcn3wqd0YT3f3cR/pl6zLNGNtVp3zwsNp1f13Lc3yOy7F/ud7q01uPfn2Boub/qsQ0JzAxiYqLauHOEK6d2p3+rFVO8rmO2ZxQ9SzZJ5G3/L5b2YdTN8n7tMf5GRFxik46MqlY+SqeotPsm27RSjC2LbO9Vg1Xq1DPD+ZB3upI0sr3/6vxu2qqTp0I7XrnTU1cujN/V3qrna8rro6UNi3Rkl/sM5N5VK6m2j7cXz0jftF/R07Vd3afF7BMr74QkM/+nWu5WYTT97MptOMuQ2k+LlD4CByB44gNUIKZWHfv3p0+lMeyZcvcOVAUbPvadrbtbds9mCGVgBFlhw3OGqldnyc07MHGSvpipdbuOSxfuQqB4SwOH0xR5hslzY7VWvTFJvlbdVDna2vLH7hScVgpB7OeCOe0fKC+Cva2uM1a/0fGWHsmaa3i4n5zP2UXeh3D5atWSxdf5Je++EY/7My8XLJ+XThXMaqjG5vVCyQVyauctzNM1c5T46udmr9bqTV781VC7sKuwyh55SQNHfipagx4TfNmjtGd5T/RP4e+qx8yBephb/MJTrs+0NFp15kaETVVK5Kyz31QW5Yu0PLtOQdRvurXqWe/5tLid/XOgj9kClhmzn3hoLavT1DS9vD6d3a5lhtovvz0/SMKftwdreiOi8zbjNKCwBE4DgWH8ti0aVNgKI/LLrtMwUysKDzBDKm2fW072/ZmSA2UJYeXv6Jber6gyTHfa1PSHm385jNN/3Kd1KyuzjntRJ1Ys77+7Jwxrv/kY328eIkWfDpXPyWlyXdapOo18Cvpuy8185v12rVtpWaP/6cef26hW/IROS0vnaxzL7tKDbRYL48co+j5S/TNrDc04NZb1WfK6iMLu3Jbx7BVaqQ7BnVRxJax6v/gC06d32rp0sWKmfgP9X7wbalNP/3tplrOaX3e5bydYapQT7c8fIfqrhir/xv0mtOm32vVr2v0Q9x8zXjrWQ15LU72LtMCCbeO5B/19tBnNS3yPg1/tKX+dH4HPTGiqxNY/EdPTfzRCSeOCH+by6t6+4F6s09j7Zpyv5rd2k9Rb00OPAbw4ZQ39Ez3VqrXZITm/eZ163FVXdn5L7pa3+vNCfO0yRSwTKcvdBnQXn7bFwa8pOkLvlXcgml6bXBXXXX9JMX7w+vfR8mt3EBcFn7fz67gx10IRXJcJGvVW9117rn11WzEYmWExyhxBsBxz2bwHDNmTCCjZ4cOHcysWbPIxJpPtt1s+9l2tL9CbbuSIRVlVdrWr8yI9g0Cx0Lw5W8x0ExeudsEciam7TYrxt9v6ga/9/cykzccdL5INgkxz5v2dfwZyzXtZ8a91NfUzJyxMcflQ3ynBqb9U++bOW/2dN5nZGjMdR1DCZVV1Ur53cSO72ea+jPKkiJN0wdeM4sSkt2ZksyyUTc60zNnz8xFjtuZU1nBDJWZpjtlrJwy1LTL1KaBV50bzaOTf84h06dVmHUEM2k2Nn2i12W03YHlZmz72s523WXGx+87Ms1r34aSstnMG/2QaZmtbn/TXiZq+s8mMbAzU83W6f2d+uuYbtEbA4ulC2b/VBdnHdzWCKvMHNhlo+7O1P+cV51O5qmP7HJh9u9Qbe9Z7pFZwuv7ofZrQY+7HPpKgY6LEP3M6Unx47s6+9FvLnpmkdOrUFr47D/ODgZQBthxHz///PNAhk/LZvm86aabSNgSBtoOyIlR6vY1Wr5hr8qfWV8X1/Rnu7oQ/P6gzqzfUDUzD7ZukrTpx3ht1Zmqf3FNHbl1LjuP5dO/26fK5zRUvdNzepIqt3XMo+B6p5yYS7154bWdeZC+biqcbQ2l0OrIzzYf1PZVP2tDogqx7fNfpknapB/jtyqlfIg+HFb/Ds2z3IBw+34IBT7uclAkxwVKEwJHoAyyQdCCBQv06quv6pNPPtGYMWN01113MURECDZD6qRJkwLDalSvXl0PPvigrr32WgJGAABQpvCMI1AG2aCnbdu26ZlY58yZkz6Ux+bNm925yjbbDsEhNWz72CE1bHvZdiNoBAAAZQ2BI1DGBYfy+P777wNDSNSsWTOQIbSsDuVht9tuv20H2x62XRhSAwAAlHUEjgACLr300vShPKpUqZI+lEdZycRqtzM4pIbd/uCQGrZdAAAAyjoCRwBZ2KEkhg4dqh07dgSGmGjevPlxPZRHcEgNu512e+122+1nSA0AAIAMJMcB4Mkmh5kxY0bgeT/reMgmmj1Dar9+/XTLLbeQHAgAACAHBI4AwhJqOIoWLVocU8GWDYK/+uorhtQAAADIIwJHAHliA8jvvvtOUVFRx8xQHsEhNfr3768OHTpo4MCBuvzyywkYAQAAwsQzjgDyxAZbwUysdiiP5cuXpw/lUdoysdr1CQ6pYdfTrm8wQypBIwAAQPgIHAHkmw3A3njjjUAGUjt0RTATa0kHkMEhNez62PWy62fXkyE1AAAA8ofAEUCB2QykwaE8bGZSG7CVRCbWYIZUW79dj+CQGmRIBQAAKBgCRwCFxgZoNkOpHdLi+uuvzzKUh302sijYcjMPqWHrtfXb9SBgBAAAKBwkxwFQZEJlYi2sLKZFWTYAAACyInAEUOSCQd7EiROVkJCgbt265TsTazBDqi2revXqgbIIGAEAAIoWgSOAYmVvK83PUB6hhtQg2Q0AAEDx4BlHAMUq81AeNuOpHSrDKxNrMEOqnc/On3lIDQAAABQPAkcAJcIGfsFMrFZwKI9ly5YFPtufwSE1rGCGVAJGAACA4setqgBKhcy3ogbl5VZWAAAAFB0CRwClis/nc99J/HoCAAAoHbhVFQAAAADgicARAAAAAOCJwBEAAAAA4InAEQAAAADgicARAAAAAOCJwBEAAAAA4InAEQAAAADgicARAAAAAOCJwBEAAAAA4InAEQAAAADgicARwPElabmmjJmmn5IOuxNyslvLp4zRK3M3Ks2dAgAAgNAIHAEcXxLX6rOH+6nf6MXaZdxpISVq7Wej9OJ32wgcAQAAckHgCOA4tElfPvGohn70q1LdKQAAAMg/AkcAx6EeevW9jorv95TGr9gjzwuPAAAAyBWBI4Dj0Ek667q+Gv136Z8Pv65vduX2vGNWJmmDlsycpHEjR2qk8xr91sda+OteAlAAAFBmETgCOE6dpovu+5derj9Vvf71uRJSwwn7DmrL4lfV4/Jr1f+9tSpf81ydd14N+Xd+pefatFKv15ZoW1jlAAAAHF8IHAEcv8qdq9tG/Ef3Ln9Kf5v4k5LdyaEZJce/pwGdZ6j22EVaNGGY7uvaWZ063aFej72ojxc8q1pTHtNT09bz3CQAAChzCBwBHNd8Ec308Iu9deCxwfrP4u05325qEjTnpZe08v4h+r9WNVTOnXyET+UiW+mRJ1voq5Efavl+rjoCAICyhcARwHHuRPkb9dKYN8/X271e0KcJB93p2STGa8EnlXXHTY10qs+dlsWJqnppc93wywLFrj/gTgMAACgbCBwBlAEVVeu2wRrXMU5/e+IDrUoOccVw3279vuVCNTznFHdCCKeerhpVd2jH3hR3AgAAQNlA4AigbPBFquUTUeq/8zn1e/lb7Q15t+khpeSa/KacTip/ovseAACgbCBwBFBm+PyXq8+LT6rG63/T3z9d54SJmZwWqXoXxWvl+kR3wtHMljWKW/snnVW1vDsFAACgbCBwBFCG+FT+vI4aPqaVvv7bcL2zPlPoWOkC3dj9VL381hxtDHnVcb9WfzFN83t2UuvaJ7nTAAAAygYCRwBlzEmKbDtAr/61kubN3+ROs07T5fc9occ2vKRBL83WuqTD7nSH2at1M15Qn6jKen5IW1UPmTwHAADg+EXgCKDs8VVVk0ei9GbPy9wJR/girtGgd6PUcvNLaht5pW65t7u6d79dLevWVts3fHr4k+d1Tz2/OzcAAEDZ4TMO9z0AlDifL+NyXsn9ejJK3b5GyzfsDXwqf2Z9XVzTLy40AgCAsorAEUCpUjoCRwAAAGTGraoAAAAAAE8EjgAAAAAATwSOAAAAAABPBI4AAAAAAE8EjgAAAAAATwSOAAAAAABPBI4AAAAAAE8EjgAAAAAATwSOAAAAAABPBI4AAAAAAE8EjgAAAAAATwSOAAAAAABPBI4AAAAAAE8EjgAAAAAATwSOAAAAAABPBI4AAAAAAE8EjgAAAAAATwSOAAAAAABPBI4AAAAAAE8EjgAAAAAATwSOAAAAAABPBI4AAAAAAE8EjgAAAAAATwSOAAAAAABPBI4AAAAAAE8EjgAAAAAATwSOAAAAAABPBI4AAAAAAE8EjgAAAAAATwSOAAAAAABPBI4AAAAAAE8EjgAAAAAATwSOAAAAAABPBI4AAAAAAE8+43DfA0Cx+Prrr/XHH3+4n7Lq3Lmz+06Kjo5232V11lln6ZprrnE/AQAAoKgROAIodrNnz9YNN9zgfsq7WbNmqW3btu4nAAAAFDUCRwDFbufOnapWrZr7Ke927NihqlWrup8AAABQ1HjGEUCxs0Ff79693U95Y5cjaAQAACheBI4ASkSPHj3cd3mT3+UAAACQf9yqCqBEHDhwQJUqVXI/hW///v06+eST3U8AAAAoDlxxBFAibPA3fPhw91N47PwEjQAAAMWPwBFAibnuuuvcd+HJ6/wAAAAoHNyqCqDE5PV2VW5TBQAAKBlccQRQYmwQOGbMGPeTNzsfQSMAAEDJIHAEUKKaN2/uvvMW7nwAAAAofASOAErUpZdeqqZNm7qfQrPf2/kAAABQMggcAZS4bt26ue9Cy+17AAAAFC0CRwAlLrfbUNu2beu+AwAAQEkgcARQ4uxtqB06dHA/ZWWn16tXz/0EAACAkkDgCKBU6NSpk/suq5ymAwAAoPgwjiOAUmHz5s2qWbOm+ynDpk2bVKNGDfcTAAAASgJXHAGUCjY4zH67qv1M0AgAAFDyCBwBlBrZs6eSTRUAAKB04FZVAKXGzp07Va1aNfeTtGPHDlWtWtX9BAAAgJLCFUcApYYNEnv37h14b38SNAIAAJQOBI4ASpUuXbpk+QkAAICSx62qAEqV4O2q3KYKAABQenDFEUCpYoPFWbNmETQCAACUIlxxBAAAAAB44oojAAAAAMATVxxRInw+n/sOAPKO/7oAACheBI4oETZwpOsByA9+fwAAUPy4VRUAAAAA4InAEQAAAADgicARAAAAAOCJwBEAAAAA4InAEQAAAADgicARAAAAAOCJwBEAAAAA4InAEQAAAADgicARAAAAAOCJwBEAAAAA4InAEQAAAADgicARAAAAAOCJwBEAAAAA4InAEQAAAADgicARAAAAAOCJwBEAAAAA4InAEQAAAADgicARAAAAAOCJwBEAAAAA4InAEQAAAADgyWcc7nug2Ph8PhVf1zPa/9MnGvvZGuddaBWq1tR55zZU42YXKbJiCf89Zf9P+nDsZ/r13JvVt9MFquROzipFWxa8q3eXbHc/Z1OhqmrVv1BNrrxc51Up7060CqMtjFKTNmn5vC+1cMn3WrZhl9Ls5JMjdfEVzdW8xTVqcl6EygXmDSVNyVtWaNH8hZq3eKnW70p1plXS2RdfqT+3bKPWl/9JFX1H5iy8fZeXOsOR1/IKYzuKq06vvnWi/Gedo3PrNtKVTc5TlXJ5arRCU7y/PwAAgEXgiBJRvCd+ado790k1aD1GlVrcoGtqneJOd6Xt0MqPP9XSJMnf8ml9/O5AtY48yf2yBOydq8ENWut/98bol+db6VR3clbJWvVWN9W/b6r7OQd1Omv46y9pUKsabiBX0LY4qC3zx2pA72GasrqyGrdrp9bN6umMkw5r75ovNem12Vrrb64+r76iqHsukT97XGH26Kf3h+uh3lH6So3VvufNal7L2cK967Xwsw81bWk5tRz8ksY92UH1/Cc6CxTCvstznbnIV3kF3I5irTOcvuVXnfaPa9SL/XTzeaequMNHAkcAAEqADRyB4la8Xe+w2RPzuIlUpGk7/mfn09HSDmw2i8f1NnXlN3Uf/dxsTXO/KAl7YsygSJnIQTFmjzvpaAdM/PguTjvmsE1p+0zC4tdMj7p+o7oDzPSEQ+4XBWmLZJMw52nT0i/jbznUfLDsd3MgSzsdNgcSvjETH21j/LrM9Jy8ygRrDUjbbVaMv98pt6Zp8ehEE7c12f3iiLQD603M8I7OsjVNy79/6dZbwH2Xrzo95Lu8AmxHsdfp1becfbxznYmd/HigH6juIyZ6wwH3u+LDf10AABS/Er4nDygdfBX/pKvu7aXuF0mrp8zXj4mBmy+zSVPynr1KDutChzPv7q3anmRvJ8ydSd6jHWHOGxZfJUVe1VX9/trc2aBpmjR/c463K2aXU1uYnQs1qt/z+jLyEU14e5g6Nzor262RJ6hi5JW6Z9hgPdRgtf47eqZ+OhSs1ShldbSeeOQNbWn/pF5+9h41PiPrlUFfxXPUauBwjepwor7898uK/mmf+423nPddYddZdNtghd6OkqjTi7OPI85Vk65P6e0Jj6ju6vEa8uJX2hZu5wIAAMcsAkfAk1HqtmX6cOSDanX+aTq5ivM69Qr9ZdgELdy0z/k2s4PatvxjjXz0NjWpfKJOjjhLZ1SO0Pmt+mjElKXalpr97DpFu1ZO18ie1+jUk6vo9MoXqFXfMZq1Zle2cvPrJFWuWtn5uV879h0sYJmHtOmLSXrll9PVYchfdWutiu70o/mqXqler0xRzOhbdE76b5g9Wjr1f/ok6SLdc387XZDTA4Xl66vTiEla8M1IdT4na4CUd4Vd5/GwDYWlomrdeLf+2qy8Vk+YqSXbCvGPHgAAoFQicAQss08bZ0frnRVS3Y7N1LCyPTScoHHLHD3dtb26v39QNz8/XbFxsVr8cT81+OE5Xdv6//TOqqQjyytV2+b/W12bP6xP1Vb/+GyJ4uLiFDvvLfU68xs9ccf9Ghy9xgkVgw5rb9wr6nrVXRq3s7VenbNIcbFvakDDnzTsL4P1YaI7W0GYvdq86jfnzbm6rHbV8J9DC9UWZpt++OpbJelCtWpcS5nT7RzNr3qtbnbmOzcjeUra7/ppfrzz1RVqcckZHutyoqpc0EzNL6ytM/w5p9fJIuS+cxR2nUW5DVao7SiJOsNV6Vxdfu150q7lWr4ueBwAAIDjFclxUCJKKjmOv0tf3X/FmdlOwJO19dtpGjs1VsqcJMRs0oyHbtOt/6uv8UvfUK96GflNzc4YPX5NR71Sf5SWTu2pevpZb3Vpp/vi71HM1/9Qq6oZSVbMxim6+8I7NP3WyVr5blfVspWn/OTO31Uz5z2jG84MnuwnaeW43rqq7xRVHhROcpyFajNqqt7ucl6mbUpT8s51+u6TcXr8iUna0ma0FjrBbqNKdo58tkXaL3rrpla6L/Yvmv7LSN2Svr5hchP+vKDHFfPLM2p1argBSj7X18p3nTkoUHn53I6SqDNT32o7fq4+79Ugh78wBuf7TndO/kLvdj03W/lFh+Q4AACUABs4AsWteLteMElI4G7NEK8Gpt2jL5nJMctNwoGMVCBpf0w3fSJkIvpMN38clTRll1n8TAsj/z1m4tpgspIUk7gryfk3s8PmwIap5gGnHOcs3MS7xadtmGzu9PtNg2HzjkqAc+S7cJPjZN+WzK9I07THaDMvIXMylfy1hTn4vRl1dYRR5OMmZk/2NCvbTMygxiHKamwGxWw7Moub8Cf08l7yub5WvuvMQYHKy+d2lESduSVeShec7yLTZ/pmc9QhUoTs+gMAgOJVwD/BA8eSSCd2+1nOiXDgaoVJO6Cty6ZqcMt9mrfsN+nsc3R2pvHzzO6tWrdLSokdp//r0V3du2d+9dd/5jjLJP2sFeuD95WeoHIH1mrB9Hc1buQzGtznHt3SpIZOPqeLXnPKyZCmxDXL9VVSZdWqfab87tQg3+m1dGHt7FNzEqGmj7yiD6KjFe2+Ppo5X7FxyxWfsEqL/ttffw5egcsib22hchXl91eUtqzR+t8PuRODKujsK7srKirKfY3QoC6N3O9c/uqqf7ETwiTv1/7k3BKwhJLH9bUKXGc2hVJeHrejJOoMW7J2btnm/DxJp1Y6qdiuNgIAgJKRn7MF4Pjgq6gzGnXWP8Y9q9t/G6s7Oj6u99ftd78M8ivywuvUrkMHdcjyuk139H/OCdT+qdvq2iDvoLbEjNDN9Rqp1YDxWuycT59x6Q3qNXyqVvw4VY845/5hK3eyKp/q/RRhhoqKuKSVbuvUSZ3cV8cbrlWTxpeoXqTfYxD+bHJrixNqqHG7y503Pyt21Y7AJasMp+qCTv312GOPua8Buu/Geu53rhPOUN0r64TxPJzR/h+m6rmxkzRr+VblmHIlnH1X2HUWdnlWru1eAnWGKyVBP8Wudw6Rhrqotk3CBAAAjmcEjijjfKpY7zYNe/pe1V09Vr0HvKOV7ngbvoqnqJo/SdsrNVSr2zICsyOvjrq51Z/V6uabdFXNijJbv9C/ugxTbLMXFfvdF5rw/JN6rM+96nTDNbrgzIo6mBwo0nWC/LUb6kp/ojau36rs4YDZvVk//5zlEmUxybktpFPUsPWtautfoXfe+FQ/hTcmSSZV1fjmm3WR4jRh4gJtyWlxs03fTHpJjz/4kmb+fljew/F7ra9V2HUWxTZYXttREnWGwwlUf4rR5Jj18rduqStrVnCnAwCA4xWBI6BKOq/zQD3Xp7GSpj2roW//KBvn+SIv1vWta2vXO+9pxupsV2T2L9Prf7lcEZc8phlbDilly6/6wYn1Kl92ieqdmvm0PVmbFs5RTLY48ISajXVr69P1y9TPtHhr5utDKfr927lHzV98QreFDTQqXNBZ/3i8nTTtGfUfMV2rdmfkiM2QpuQt3+vLBWvcz0E+VWp8u57sWVer/zdW42avDzEe5kFtmfu6nnllkfxt7lWPa892lspNTutrFXadRbUNVs7tXvx15sbZxxtn6fkBUfpCHfT3JzuqbnluVAUA4LhngBJQvF0vmCTEK9lHmknZEG361PUb+buasSsSA9MOxL9jejjT/C0GmDdnfW/WJSSYjfHzzIRH2xi/LjM9Jq40B+ycO+aYwQ2cZev2NuMWrTYJznwJG382iyb/3bSvW8fUqe18lyk5jjGpZk/si6aN32/qdo0y05etdZZZa5ZNjzJdG9c1dcJOjpNbApPs8tsWrpRNJmZ4Z1PH2X/+xl3NoFETzbSYRSYudr6ZGT3BjBrU1TR21l1qZLpGzTRrE1PdBS2n3ITZ5qmWNQPr3bTHs2bi5/NNbFysWRwTbd4c1tXUteW2GGQ+iA/WWcD1zVedzlIbp5sh3bqZbkOmm41Zsr7kr7yCbUdx1xnsW07f7DLQvBAVZaLSX8+aYf07HtnH/pvMU3M2ZUsGVTz4rwsAgOLH/74oEaUvcLQOmA3Rjxw5CW//ilkWCHpSTeLaWWZUn7aBYMmutz2hrtOyr4ma/rNJTA8qnPlWvm8Gt2vgzmNfDUy7QePN3LWrzJzBVxtF9DXRvx1y57cOmZ3LJmdZxt+0rxn76Rumf2RJBo5WqLZwpe0zCXEfmdHpQWKmV522pk/Ue2Ze/I4cA4q0xDVm7vgnTZfGkSGW/cgs2xoqC2wB1teRtzqdWuPHm7b2+yzBfoa8llcY21F8dSa5fStTHemvuqZFlwfM4FFTPPdxUbPrAgAAihfjOKJEHHvjsBmlJu3UtsRDzsqfrIizqqhiyLvzUpW0fbsSU6TylU/X6WENxh5cprwqn1FV/uCg+ceC1CRt35aowE2rnu0SSnC7bT+oUEzbXth1Hg/bcOxhHEcAAIofgSNKBCd+APKL3x8AABQ/kuMAAAAAADwROAIAAAAAPBE4AgAAAAA8ETgCAAAAADwROAIAAAAAPBE4AgAAAAA8ETgCAAAAADwROAIAAAAAPBE4AgAAAAA8ETgCAAAAADwROAIAAAAAPBE4AgAAAAA8ETgCAAAAADwROAIAAAAAPBE4AgAAAAA8ETgCAAAAADwROAIAAAAAPBE4AgAAAAA8ETgCAAAAADwROAIAAAAAPBE4AgAAAAA8+YzDfQ8UG5/P574DgLzjvy4AAIoXgSMAAAAAwBO3qgIAAAAAPBE4AgAAAAA8ETgCAAAAADwROAIAAAAAPBE4AgAAAAA8ETgCAAAAADwROAIAAAAAPEj/D3eqlP22SxC6AAAAAElFTkSuQmCC;" vertex="1" parent="1">
                    <mxGeometry x="730" y="306" width="497.07" height="638" as="geometry"/>
                </mxCell>
                <mxCell id="77" value="현재 시나리오 상으로는 Ext Flash에서 CRC 할게 없음." style="text;strokeColor=none;align=center;fillColor=none;html=1;verticalAlign=middle;whiteSpace=wrap;rounded=0;fontStyle=1;fontColor=#f20d0d;" vertex="1" parent="1">
                    <mxGeometry x="540" y="387" width="160" height="68" as="geometry"/>
                </mxCell>
                <mxCell id="79" value="Ext Flash&lt;br&gt;Image CRC 정보&lt;br&gt;Read하여,&lt;br&gt;RAM 변수 저장" style="rounded=0;whiteSpace=wrap;html=1;" vertex="1" parent="1">
                    <mxGeometry x="120" y="430" width="120" height="100" as="geometry"/>
                </mxCell>
                <mxCell id="81" value="&lt;br&gt;" style="edgeStyle=elbowEdgeStyle;elbow=horizontal;endArrow=classic;html=1;curved=0;rounded=0;endSize=8;startSize=8;entryX=0;entryY=0.5;entryDx=0;entryDy=0;" edge="1" parent="1" target="74">
                    <mxGeometry width="50" height="50" relative="1" as="geometry">
                        <mxPoint x="180" y="530" as="sourcePoint"/>
                        <mxPoint x="339.9999999999998" y="758" as="targetPoint"/>
                        <Array as="points">
                            <mxPoint x="180" y="620"/>
                            <mxPoint x="180" y="630"/>
                            <mxPoint x="130" y="610"/>
                            <mxPoint x="685" y="615"/>
                        </Array>
                    </mxGeometry>
                </mxCell>
                <mxCell id="82" value="" style="shape=flexArrow;endArrow=classic;html=1;fontColor=#f20d0d;exitX=0;exitY=0.5;exitDx=0;exitDy=0;entryX=1;entryY=0.5;entryDx=0;entryDy=0;" edge="1" parent="1" source="76" target="74">
                    <mxGeometry width="50" height="50" relative="1" as="geometry">
                        <mxPoint x="520" y="540" as="sourcePoint"/>
                        <mxPoint x="570" y="490" as="targetPoint"/>
                    </mxGeometry>
                </mxCell>
                <mxCell id="85" value="End" style="rounded=1;whiteSpace=wrap;html=1;" vertex="1" parent="1">
                    <mxGeometry x="330" y="870" width="120" height="60" as="geometry"/>
                </mxCell>
                <mxCell id="87" value="Fail" style="edgeStyle=elbowEdgeStyle;elbow=horizontal;endArrow=classic;html=1;curved=0;rounded=0;endSize=8;startSize=8;entryX=0.5;entryY=0;entryDx=0;entryDy=0;exitX=0;exitY=0.5;exitDx=0;exitDy=0;" edge="1" parent="1" source="66" target="41">
                    <mxGeometry width="50" height="50" relative="1" as="geometry">
                        <mxPoint x="105" y="840" as="sourcePoint"/>
                        <mxPoint x="255" y="935" as="targetPoint"/>
                        <Array as="points">
                            <mxPoint x="180" y="800"/>
                            <mxPoint x="105" y="940"/>
                            <mxPoint x="55" y="920"/>
                            <mxPoint x="610" y="925"/>
                        </Array>
                    </mxGeometry>
                </mxCell>
                <mxCell id="88" value="&lt;br&gt;" style="edgeStyle=elbowEdgeStyle;elbow=horizontal;endArrow=classic;html=1;curved=0;rounded=0;endSize=8;startSize=8;entryX=0;entryY=0.5;entryDx=0;entryDy=0;exitX=0.5;exitY=1;exitDx=0;exitDy=0;" edge="1" parent="1" source="41" target="85">
                    <mxGeometry width="50" height="50" relative="1" as="geometry">
                        <mxPoint x="232.5" y="950" as="sourcePoint"/>
                        <mxPoint x="127.5" y="985" as="targetPoint"/>
                        <Array as="points">
                            <mxPoint x="180" y="900"/>
                            <mxPoint x="52.5" y="1105"/>
                            <mxPoint x="2.5" y="1085"/>
                            <mxPoint x="557.5" y="1090"/>
                        </Array>
                    </mxGeometry>
                </mxCell>
                <mxCell id="93" value="" style="shape=image;verticalLabelPosition=bottom;labelBackgroundColor=default;verticalAlign=top;aspect=fixed;imageAspect=0;image=data:image/png,iVBORw0KGgoAAAANSUhEUgAAAwEAAAE+CAYAAADVrBxEAAAAAXNSR0IArs4c6QAAAARnQU1BAACxjwv8YQUAAAAJcEhZcwAADsMAAA7DAcdvqGQAAGIUSURBVHhe7d09axvLGzf+69wvYDurionBKg7EuIiLP1ZnIgjmrs1iwV0FlSGVUSFSGRfG1Q+Xwq2D8AswARt3cuUUxoEUMhicat3pDZz/XLMzu7Oj3dU+SZal7+cwJ/I+P0m6rpnZ1T/v37//jwAAAAAAYGn8H/UvAAAAAAAsCSQBAAAAAABLBkkAAAAAAMCSQRIAAAAAALBkkAQAAAAAACwZJAEAAAAAAEsGSQAAAAAAwJJBEgAAAAAAsGSQBAAAAAAALBkkAQAAAAAASwZJAAAAAADAkkESAAAAAACwZJAEAAAAAAAsmcJJwPH1E12dyFd09XRP51/k4NCXc7p/eqL7H201IIOYeXg9T09XYi0L4ORK7AvvDxfzmPEx1MP9Mn7cotPkOq4AAAAAAIYSLQEj8v6ol+TR85l6KbXp/NsGPRz2ydv+Op4gJPm3Rs5oRFSrqwHHtLUyEmt6+9o/7ulpr0aDwzVaW+NyStQ6F0dKG4XjDgdE212VZAkyOXKpdnuk5l2jU3KzH1cAAAAAAEP+JEDVZrvrDjW+c620S3Xxn2vWTp+41Hi5pNZZh5oXHjW+mcHuBC8P9LCy5df8n2wR/bwUKUaNVhNqzcMacZF43N/T+Q9V2359rFoRdIuFTw/zS7QFg8fx8mTArqbx5+Vl27XvccOSHJO77dDwYlMcEzWIetT61BL/j3H2LPY5dNxqkPPYp839cOreftNYFgAAAABAdvmTgIMmra31aSj+63Ot9MWQaDSgI/FaBqlca71H1P/UCabvvzSoK4LybJ7p5neNtkTwffyR6O5ADZY48DZrxLmlwagxJ5GYfPDo6HBAo3WXdr0jOrodUf2jv24O7t0Vf1t5/qNbEolMtKuRI5bXrV2q8WLez5zA9MQ2jcj5sCNeK192aMMZ0cNVbBgfJZKZujhe0X1JIafXLS3HtLVONPyljicAAAAAQEmlbwxuv6sRvTyHNdpnLdpca5IZsnY+iaBbJwUp5LKE3tUD1T5e0RbdRZYjA28a0GlQI96hvhHks+FPXbs+pEuj5jyojQ/Gc236KQ1GdZlwBDihUdvK2zFyaiIg52kvaehs0I5qOWg3N8h55NYO/+/ydMuKKJxErZmtBgAAAAAA1cmdBPjdacIuQF0RWNO6K4ZVePPu2Q09rIjQW9Z+D8nTNwXwPQNOg7qqqw4Xuf7MzPsY4o1+3yQkNB26e3Roo8ltAW3a+UA0OJ+c2GSn7wngVhYrMQEAAAAAqFDuJEDW6htdgPqP4qXsnhOt/S9q5IllizC8tblGzaD7jEO1f9VLtV59g6wsGVoZfMZypDrVcuQQnV9Dv0uQbJF4oJusNfV/PBHiZw3sVeuG7IbE/CTIbO0AAAAAACijeHcgowuQ99fsdjNFB3c0dBr0NdPNuDauyRfBdBBc8z0Cu1QXSUU/a1/9gz4NSKz/2wZ5Rreiic5adMnr3jNbS9p0fh1/w7Tf9ahBrkwaREL0UyRG627kBuf2jys8HQgAAAAACimUBOi++xzIrq6olxWoT6yW71BT3QysuwNxMYPjNNyKIW9SDroSedTfzBHMiynlDcKOl/0mX0Wu+9HvQuVv91ei86R1q9YAnTTwzdgXQ/F3uM9fqY97BgAAAACgkH/ev3//n3oNGfAThuTTgzJ3QQIAAAAAmC+lnw60VL6c09ftqm8IBgAAAACYLSQBWchf7H2ip+8N8iI/+AUAAAAA8PagOxAAAAAAwJJBSwAAAAAAwJJBEgAAAAAAsGSQBAAAAAAALBkkAQZ+/n4ce3jSdFrW5cBi4POaVDTztRY3HZs0HwAAAEBZuDHYwAHX2tqa+itkD0+aTsu6HCiHj2ecpGOcNL2p7Pmp4tyb0+aZDwAAACArJAGGtCDRDMTSAjO9jLjxbyag40eifm+Q//vNQ+qvNcn8ZQT5g2nb6tedH/vxP5yml5E0vqRJ56DocS47L8ty7vW0Np7GnLbM9gAAAAAkKdwd6Pj6ia5O5Cu6erqn8y9ycEg9W//+R1sNyOHkSgY/fjGXzesKu1BwGV9+m87vjWmuj9XwbDjgskscvfw4PE/SuNkYP065jsNZizZ53w8HNFKDTL39TbmPR7dxY6eP9yfpvLDXPP5Z183TxRVNnzcAAACAaShxT8CIvD/qJXn0HPkBLRGIf9ugh8M+edtfxxOEFFzL/LRXo8GhDoxOiVrnYonaKBwnglTa7qpkhHHw26XGSz8IqtZ+bRnjq6OXbzKDU/73tYO44YU6BmtHNFhxcydEpehEYgqtAGXo4Dqp2Oc0qyLzmuu1+eet2LYAAAAATJI/CVC19O66Q43vHMC4VBf/uWJYUCt/4opA/JJaZx1qXnjU+GYG8WmOyd12RPBq/ipvj1qfWuL/Mc6eRfoRav/YpfpoQEdm4HnQpOaBej1FcUEg/x0X4OUhk6K4lpZcxDH8OSRa3xJHWNG/gqxLhQkCtxLp5Y611PD1I9bl71f8NOb8SdMUwcvRwXVSKUIvV+PXPCyNvS2TpgcAAACoUv4kQATVa2t9Gsq+4iKAuRDBJQfe4vXmvgjVObjcI+rrQFxM339pUDdLkHmyJdKJId1lDdrl9LpFok07Hxwa/b6JTxgy0MGYXXh4mrRpJs37Oo7p6nuDvKClQJzPdbeSQJt1PvnL7T+qATaxrm7t0l+3uH6cbTdMTkSS4K6ra4tbMLjH0WPfv7YUno+PeZIs56wqSeuatI0AAAAAr6n0I0Lb72pEL89h4C27gURvJJVBYWXdQnQLhCicbKyZrQblycDUKpNkmaYov/992X0UQf+eSJdu+/K86BaTfpBscYuNCMY/7GRssSnJbK05uBNpX41WVUvH8ce6CPrv1PXTo5vfIgtYWR3bLj7m8hqIKUnnI20es+SRdu4njTPXaU6bNh8AAABAFXInAX5XjbALkHxKzLorhl2FtblTpe8J4NaIOm1Nob//JEWDtFkHd/U9HWS6VLs9itSmRxK3OTL0RNAfdFtKb93h4xlX0sRNGzdsFrKsc5bbAwAAAMsjdxIga/WNLkDc5WMkAsw1q/a/kD+eCPGzBvYd6t+KqT/r+w169PxCldRmmzW0cSVO3HR2mbXwxmDVVctk1a7LFp050PvLd3n4CeYT3+RNAzq1t33OlDm39jViFwAAAIBpKN4dyKhJ9v5WFKSdtehSJBX1PbNVoU3n1/E3Fvf2L2noNMhVSUPnfEAj8fdXs2/7yVWupwNx4KUD56QSF5zFTWeXIkFdNTcGR/WuHuRx0seNuwvJG7J/JtyAPTPiXH+uR5KXtc3X3qZq8L7Yil5r+sbpaTz1CgAAAJZDoSQgrDVu0+qKelkRbmnoP+qaYC5fic6TAkHVGqCTBr4fQT021J9XlI93M3k60JuijlPN6i6kj1Pw5B75g2H6XOjELPwdhrArmPg7uPE7/I0Cd53IUeci203H/lOMwm5MqtyHSWBkeIaixY3jkjQOAAAAYJHhF4NjTAoCuYa2CF5u0XmXAycYXar9XDMSN3/Yxm/rnoY5kyVxiDv307rWAAAAANIgCYA5wq0ILtGFkQTwI2fV40zRogMAAABQDSQBMF/4x8T26uoPH98jgAQAAAAAoDpIAgAAAAAAlkzpHwsDAAAAAIC3BUkAAAAAAMCSQRIAAAAAALBk5vKegLTHJupHJsY9btOczxxnThs3XxZx25S0jjyKzjcNcftom5dtfavM813VNZN23uzp8qwvy3LjlmnOl7T+vNsCAAAA1Zr7G4OTgoU8QUTZ4CPLNqRNYzOnK7I9aeLWF8deZ9XbsezM85B0vicd86Tx9vCy02WRdR1pzGnLbAsAAACUN9fdgThQyIqnjSuvjQMdu0xb3DrNAtPF1515vOfhOiwjz/br951dAAAAYL4UTgKOr5/o6kS+oqunezr/IgeH+EeexJf//Y+2GlBM1iDKDLrMor1GMKLXGVcWH18X1n5fH6tx1eBrsOj1xfNOc9sWDb+X+DhNYr//dNH08QYAAIDXVaIlYETeH/WSPHo+Uy+lNp1/26CHwz5521/HE4QMOFAwg4csdIARF2TYwUgePJ+5bF0mLU+vU09n/z1PeJvi9tEuefEPffn73KfhuqsSx9fV/nFP7sqAjozzsfapo8YutrznkafNe73qdcStRx9vAAAAeF35kwD+RVfx5e6uO9T4zl/0LtXFf64YFtTKnrjUeLmk1lmHmhceNb6di7QgOzvw4NdxAYVJz6PLpOnzMpety6KJ20e7FNehu0ei2rvwSuBgnM+TLnaCEK2tD1ub9HzuOpGz3Q2nyVSb36adDw6Nft9QTw0ZJ5LYe2PdY8sdb+WYlNzo6V5bnvPI22tOy68n7YOeR5d52GcAAAAYlz8JOGiKL/c+DcV/ff6ivxgSjfxa1c19EVZxN6A9or6uWRXT918a1M3Y3cIOPLS3HFDMert5fWnldRzT1vqIHq5U6C2Sye62519D6jqq70UDfbO2/uiWRNJ5JZZC1NvflMP6IqkY3R7583PJVJvfo5vfI5k8JHUlOr7uiiS2r5Z7RIMV15iWEwSXasF6xfiRGpVCb2NWfJ54en2+Jp0/c3zadFnx/HHba24TAAAAvF2lbwxuv6sRvTyHtapnLdpca5IZjnU+ZQ3Q/CAjyaRxZgBkTps23yTmMpNKFnr7po3Xk6XMSn1PHycOnE+pJbuNiUD6c10E8P3wOuFk8dGhjSYH28fkbjs0/NkKrqve/qkItuu0VUF3IplEHA6IdCvCvdlSxcmKSHCD67VHrZ9Dcj7s+NNwKxcN6JQT3hlKO3fmOLsUlTbvpHH6fcHFnLbM9gAAAEC1cicBfheNsAtQVwRrtO6KYX4t7WviIEOXJHkDEXOZet64YUnMQIj/5b9nbdI6dcCWteQR3hNwRA8fRNBttAh5f9MCafOekymQyaq/XQMR1nf19ftllWrq2g72ea8uZ5kVXudrXzNl+Oc7/b2RNg4AAACmL3cSIGv1jS5AYZeMaO1/GWWCniBwSygwzgzazJI0rhi/Rp1WVoNad/P+AG4dWF1RLyWHav+ql1KdaiLfrJ7Yrv8NRMpRo9XgBnbV1c0sm2GrxDyaxrVdZpnmey6uAAAAwOsq3h3I6AKUXqM7HXHBKAcXkcAtpswyANHbY8q0Derm68V6bKXqAiRvyNX98t2w9Yi72ThDupTdbPybiOufw2467R+7VBeJZ/9ADRCGnliG7qZTQru5IVIO9YSrsxt6GNXJTTr2fzwaORu0oxIGef9AhclJ4WsmA3u5VYhbpt6HtBK/P/qG7JhHDgMAAEClCiUB8j4A/5VVe7vY4gK0JHmmHXNwR0P+16g1z4LXGVeSxs1CeE+Af7OtvHlc4H75R7e1sNvNXo0Gh2FrErc4yRvK1Xh5E7FVGy/vE5BdedQyMiVN40/28W9Q1uvuUWvTvxnYnCa4MfisRafyJmV/+K7XH7sxWAe5uszkmgEAAADI4Z/379//p17PFQ6IJokLmCbNN60gq2gAFz8f14iqJ9S84vPrEZRm4Z+r2s81ahqtFEnMY1rtNeMPnyTv+oouc9J8RfYbAAAAqjO3ScCy4kdjyputH183AYCs8iUBAAAAAPOg9CNCoVr6GfhIAAAAAABgWtASAAAAAACwZNASAAAAAACwZJAEAAAAAAAsGSQBAAAAAABLBkkAAAAAAMCSQRIAAAAAALBkkAS8hpMrero/z/VrwAvpyzndP+lf1r2iLL/3G8Hz4zgCAAAA5FY4CTi+fqKrE/mKrp7u6fyLHBxSAd79jyIhGi9TBIYVB3j8Q1x+wJkSeOrA1Fo3729k+qL7x/Pt1Wjwvxb11KBgf63iH995Z237dY5Q/qxFm/ybCIcDGqlBuYj5L18a1M2zTgAAAAAo0xIwIu+PekkePZ+pl1Kbzr9t0MNhn7ztr+MJQhquJX/aIu+2UFg4Gf8SLweeovQf6+RawX67uUF026cBbdBOsN1tWl0Z0WhUo1U1TE43yruNfFwaYvmn1Iocrw415Tb1aSj+Gl742zf/v0DLCYBLpLZXbv+6WzDxK6bz6YgGK+4bSZgAAAAA5kP+JEAG6U/krjvU+M61vy7VxX+uGBYEfycuNV4uRaArgtsLjxrfstboi6Dys0dHa026UUOmaejZQXybdj445P3t0M1voo1mdKsffntqmJiu9kCXYhqnVvdHZsHHRaQXp/thG8BkHGhf0blqxbj/cUzn93zczdYXkVzIYarYLSi6dSNSjFYNdU79EtOqk6D9Y5fqIqkKkxU+30NyPuz46+flXh9HWmAyJwhym6yWmrhh1KPWzyHVP1fbagQAAACwyPInAQdNVWM9pD7X/oqgj0YDEbiv0SYHt7K7C1H/UyeYvp+5y4YIIjfNbjLT5Af89PIcru/LDm04Q7oTQW3vrxcGs9rVHXk8TExX825krX0exx/rNPp9U2D/6tSoXcpj7Wy7VPvJrRhOkKS0f7hE/9O18UcizWjQ1yDY1q0PR/54Pl80osFhUxxtQXdPOlTzc9L2PaabVIx6zaGRZx2FPx6NHKMVZd2lLm+7Wjdvf5Zl08GdOL512jJq+Pn40eOdv90mntZcJwAAAACkKn1jcPtdLRpIy37eKsBUOp9EAKiTgtcmglK/VrpLG79FYGxsF3fxcXSQGQks6yTiXaFDdy8b5LZq5F3lDeW5SxGR97dIiiOC9nO1nSLh6lvdhHr7TaN7UY9ufo/CFgqZ2IzoQW+vDK4dqv3r/+l3fzK6Jx30aTCKBt/xEvbn7Jk89VLiBDFICHndYZeqdB3q346o/lGnDMe0tW4ch4gheaNwnwAAAAAgXe4kwL9BNuwC1N0W0bEMrLPVHr86dU/AkQgwozX9fsvA8JcOMkXAb9S2a51fHtVXPLoRQTO3FmSnE4kpsLr7yHOiyaDc2I+TLbElfmsH49p8Z7sbzMvJUSPTdvbo+YWo9i56fOjLqgjz7XtEiuldPdBofcu/rni7H7mLmRxlSdgWAAAAAIiVOwmQtfpGF6D+o3gpu5pEa//nXW//koZOg1xd4y1rzEVQvBcG0+46GYmCCmy5O5TZZWll1Ugk0nBttXpZqWO6+m5091EJTshfbxDo74kU4CJ6rvzz58+rS5abkvmeirF7Iv6tkTPyxForcHZDD6pVgrsChQmarUwrCwAAAMDyKd4dyOgCNPPgS9/IWurRkKq7ib6hVAavfmITBMP86MrK+ppPt7Y6OAdfzumr2RKgbkY298sM8Du/uJ9+zic4KX5NvflkHpGQcJLxs6r7OvRNv/e0uzLeDSrErSzm06oAAAAAIE2hJEDeB+C/kjWw1QmfciO7tDgN6nKwP6UfhNKtAXwTbexNu7Im2qGN//f/kd7jMvyAO+7GWH4CEO83d7MKWyOyPfZSJTO6BeN7jR7MlgDu4y/SAHkcjRIsm1s25M3A5viMXbv4/g+RKNWC1hP/caFZH20aPDXoe4Mc1b1sbN3y3gxxLaTdUM1dhUYPsosWAAAAAEz2z/v37/9Tr2HqOMnxb0iWT1KaBW414ceuml2YeBg/welNdOHiBGmXvMPNhPsB/GPKT0ya/99VAAAAAJgPpZ8OBHn0qPW/AVHB7jdFhK02Ifmozar67U/Z8bWbckMwj+9S48X8rQIAAAAAmAQtAa8hrnZ+avya8sgTf/jeh5n9HkMx/BQqvjE7dVv5qUjfiE7nfF8AAAAA5g2SAAAAAACAJYPuQAAAAAAASwZJAAAAAADAkkESAAAAAACwZJAEwNTwbwBo5us8is63DLIcm6qPOw83iy1pPgAAAJgvuDEYSjMDP/5FYo2H67/N13GSxk+a77WY+2xK2tak6U159zPLMtksj3vR+QAAAGC2kAQsAP7lXfkLy+yxT2ufqvsJMLns2mXiMu2gz/w76XWcpPGT5nsNadtUZnvzzptl+knTJI23h/PfafS0WbZpIc30sb8AAADlFe4OxM9xvzqRr+jq6X78x6/4Ge4iILj/0VYD3ji1PxzkhOVK7H12fMwKHY+4dd+fk15Sb39TBl5HtyM1ZElxIBY5TjHXpfzdhJhxMdcrny/7HPNy04JcHsfTLBrer7RSjD4X0bIwnxlp5PWW7/MjD07ew2NqrCfLeyQyTdx7CAAAFkGJewJG5P1RL8mj58gvuoov928b9HDYJ2+Gv447fUPqR4KfJlVX5z6JtW7UOMbjHxdTx+jolqjx3Qq0vuzQBg2oL8ZtNI1g898aOSORRNXqasAxba2MxFVenWjwNV54m/Pg6eOWY5a8y5zEXn6ctHFRPWpt8rk6ooE40KPbI7m9m/u4ssvg5LW77RmfF3e0dW28C1LeIzJ52KvR4FDPe0rUCiscAABgceRPAlQtkbvuiC8P/rJ3qS7+c8WwoAbvxKXGyyW1zjrUvPCo8W3Rv0RUjaZRO6+PE7eW6Fo5/gVcZ7srX8tifjFPFbfWqHXGrdeqHYyrifVrxf3itwAl09O9tt5fT70KtZsb5Lw8U+fqgejDTvS6fHmgh5UtPyA62SL6eSnS2xqtVpDE8vHwg6rkUkTcMuy/i7LPY9w+xJ1nPa4sft/c/zhX164IVPV1al6/1rVrX5vmdatLeH1H3xd5WyAite17OnnUrFaO4LNBrfN7gxz1uelPE61xj9bk56iN/3JOu+sjEcSbFRTiczihO1/0PXJM7rZDw4tN8dmtBnGi9gkVDgAAiyh/EnDQFF/wfRrqmumLYVCzJGvwuJl7j6ivv3TE9P2XBnVnFvC+Bq7RFMfEadBXGUiIL3oRFAwv1qh5IMaq7jr9x7C2U5YK++6nOb7eoju9Tj53664RLPG2mjV/MTWxYvpdz99u7nJU/5ye1OnlZMWBDk/P/+q/dSnj+KMIzEaeuFK1Nu18EEHOL3Hcz57JczZoJxJcPdPN7xptiWNz/JHoTpw7m7mdcXhcnn0vyjxGZkkaF4eHp+0Pj5vFvqRxtjfIO+SWAhEwc5/7wwGN1lWixtfux7tgO/mzqL4X7frirusWNL+1ge+Z8a9vDtJdqgXvR2617E5McANi2ZHadv4cNLR/uET/U+N43aQ/G0RAzsN4PyKte0bgLT5DXTpVw1VtfcaKFJnkjh7oJtIymyzyHhGJr/jUir3uAQBg8ZR+RGj7XY3o5TmsKTpr0abVTabzSXyZzSjgnS6z5k4Us+afv9zFFzttu3T+Y5fqItjgBKA61rpzJFWdT9FawTuRjNTemSGFE+0aYwsCJ5HQXD3QyKmJrZkeHfxwyU0kYl11jFzqR7tNcVcgRwc5fBzC/ZbXscD7V/t4RSJtilzDJt6u4DxYJWmb0+YxS1b6+GQtVeDl2Ntb1bITPXKLov9y+NOukbZquA/uRAgbttzIAPdRn8eeSPBEFrCy6r9nVbew0yDh7VCfE9yPWd5XIoH4zEl+cnfA3n4zUpvO63aCrmYTiM/QppGIV/6eS3uPAADA0sidBPjN62EXIPlUmnVXDLP6Xi+kCf3yxZf36W2NGlxDWHnSY607z/KtLhPcLSmkkxfdTWm255HXqQNJ/pf/LkX3d+aa2aDG2CdrSYOgUOz5ryE5dpegsxt6WBHhFrcWiGPuJdwUEJwHq6SJmzZu2CwUPe7mtur5X1O0uw9/LoWGfPKCa8BvBRr9vvHfs3wPiBEMcwmesFUFdaN5sWVbXYlk16EKpbxHAABgeeROAmStvtEFKOziMsubZOcUdxH48EB9kQi4kVaCVyS7Z/ldk3TgxucsQrbe+OOOeNsXIaE76MsuJLtBP28/CPQTVhVccT9uo0vQyONOEf7NqmErjkO1f9XLORPsR0qpUtXLK4v7zYfdfbhwN8WQ399dt6B1qRGp+ReMG2SDUknyfkxXInAno+tfnid3HV/72xpsm+w6lI3c57Fubgns98gfT6ynLrvDAQDA4iveHcjoAuT9RWOy/OLnYPtnizr7p0Yf4BDXTI7VPM+E8SQn2U9avY4RdzPttHBQyUGOif+uJtgUwfzPITnbrkpo6lRz+IZJFVjJwv3EJ3SFmmPhfiSXuGM5zeNuL3fqjHs+jq/NlgDdZcc4HmbLHXcdCu7hyatHzy/iitJdh1SibQs+F8X4r3ZLAN+TkhZwB5+vYj++5WgJkIG9Y91DID6bYrsPWu+RsxZdPor9Mu+r4PVfz0mFBgAAVKpQEqD7T/MXxOqKerkUrH75QY25+JLlrgjBfQD6y7UbeeJITyUHQReESm6WDrsOhF2zjGXLL3b9JCdRPns0MFsCrK5C/uMBs7fq6OBRl6xBYJ5pC1M1nS4fC77pceyGSdVXWyRm/7c2Ocwy9zNL0eLGcUkaN028/Kkf98z0tdulhjj8+slZWZ/S09u/lIG8fj/tegOjJcB/D9b3osc2vI+Hb9D1bwY2x2e9Mbjzyb/BXs73vUaXkdp6dX+BXrcY/zDWEiDWL29k1usOnwDUOeebn3WLVZdqv7O3BMj93vRvRA67Om3RXVILh/keEbilt/9ofs59JTrHPQMAAIsIvxgMU8NBhA44zdd5FJ0PfFUfdx4+yXycL04wRAD90+za5Q/b+H2E3yIAAIClhyQAABaQ3zpH6jG9Enfb+d4gzxwGAACwpJAEAMBi4q5uVl99/dsdAAAAyw5JAAAAAADAkin9Y2EAAAAAAPC2IAkAAAAAAFgySAIAAAAAAJYM7gmAV5P2uEn9mEk8IhQAAACgekgCoLQqnh2f9lx6JAEAAAAA1UJ3oAV0fJ32q6v+r7Rm/WXULDhIn1TSEoUsSQQAAAAAVKdwEsCBph9I8o/yhD95H+Af5hHBXXIw+va0f9zLgDUo9+cipJ4VP3h/ijvWC8BMFMxjDAAAAADVK9ESMCLvj3pJHj2fqZeSCFi/bdDDYZ+87a+LEbSeXFF326O+WcO92aKeGj11X3ZogwbUvyXaaC5OYsWBPh9LU3B8reEAAAAAUI38SQD/CqcI3Nx1hxrfubbWpbr4zxXDglr/E5caL5fUOutQ88KjxrdZ1phPx/HHOtHjHXXU32P4uHDLgGoBkTXZ18dqpKKOnS55WknazQ1yXp6pc/VA9GHHOp66lcAv7roaHODWGj2+Sw1HDWZye6/EFMY0M2rh4HWZgT6/5mEAAAAAMF35k4CDpgjW+jQU/8la8Ysh0WhAR+L15n7PDyr3iPqfVLgspu+/NKhrB8RvTOeX2M91dzywNzliP7/X6JKPy+GARuu7YSsIJwB7NRochrXc8nhl0qadDw4Nf4ljevZMnrNBO0bryvG1COxf+sFy+49qhMQJgku12yM1/ogGIzUqwEncLnly28S5FfvhlrhnIEsgbycAGg9DIgAAAAAwXaVvDG6/qxG9PIfdYs5atLnWjNSYdz6J4FInBW+VTn44ERBB6pOsPbeNRJCv9v3shh5GDtX+5T9EIP65TqPbU2pFuk1lxF2BnCHdHfAfHbp7dMIuQSLp2l0XCVnS8eVWGRrQ6YSEY3ixqbaNl09UezfdtoC4BEBLGwcAAAAA5eVOAviGYLMLUHfb8WvIY4PiRdOhpqxN59p23n/rJt3RA90EQX6PWptr1JSBe51q4jB5f4vdQSC7AhldkbhVwhnrElSGTjB8nLRlb6WYLiQEAAAAANXLnQTIWn2jCxB3PRnJribR2v9F1/nEXaJ0Tf8kQ/LGuuBk5XcF8hMt1Wd/r05kdQmaZ0ldf1iwTwkFAAAAAKpXvDuQ0QWoaA33m3ayRfXIE5LS9Ojm94jqe0VaS7gVgbsZ+S0QfuF+/apLEN8jIKbZUn34+TGmkRuD/3g0MhIGef+AeWPwDKQlAOE+xRckAgAAAADVK5QEyPsA/Fe0uqJeLrTo03dkkTf56n70k/X2N+notia7UOllZHo6ECcbkW5GzE8q/C5B/ASmoUgw/GV2a5diPUazw1mLTm9JPcnpiXa9I+vG4XL0vpglaTgXAAAAAHh9/7x///4/9Rpg5iYlBtwaAAAAAADVQhIAAAAAALBkSj8iFAAAAAAA3hYkAQAAAAAASwZJAAAAAADAkkESAAAAAACwZJAEAAAAAAAsGSQBkJn9OM+kx3tmnQ4gi2ldP3HL5WF6uH5tT2f/XVRVyykqaf+0tOFpBQAA3gY8IhQSv7jtZ/TzdOYw+28tbnl43j/Yil53k6Rdl+bwtOWmTZs2Xx5Zl8PTTZJ3e9L2T8s6zJZlGgAAeH1oCcjsmK7Elxt/wT093dP5FzX41fm/Znx1ov4sgL+w4wrv6yT+8YgWZi6nOD7m83Ssl9fxdfXXvXmNmEVfQxAG1JNKHnqZJv77dY47v8evxP8BAGDWCicBHBT4gWdCoPblnO7Fl8r9j7Ya8NZ1qCm/cPs0VENm6uSKnu7PRcg/X8xARJdqcHLjUu32lFpnalAkEQtLmQRoJvjcWduc+30h308IlhYFXwP8XuF/3xK9zWkl32dAh/q3NXLn8LMNAGDRlWgJGJH3R70kj56DQI2JAO7bBj0c9snb/oqa3CVkBgVFtH98pQYN6HS/p4awaCI2vPCTjuaBP3a+Dakvt12UwwHRdvdNJcidT7ztm0ZCtrjsQDZ/YJtMvyf08vhfPeytkNdwSsmrt79J/ZcGfV2YCiMAgLchfxKgajXddYca3/nLy6W6+M8Vw4Kg5sSlxsulCBhE0HbhUePbctTytH/cB1/oT5FaW67V5tYSsybbqtVVLSfh/GoaPXyvTuQ0qGuOU7P6UpZdIb1tk5QJCnhf3G2iwf9aZKYA6dQx/qFq3a+PVReWaEtB9BzZLVhxLQ3mNNHxhYP4sxZtXgzJ2XaN82StW2x/ZPj3BjnqfTa+XZP2awKrpSKyX5Hr0r6u/K5o5rxcIi0zkWXn3C6DXkZW4TrDEsccF/c6blwRev6494QeVnYdWel1mfS2vZbOOSfG5vsBAACmLX8ScNAUXxZcE6tqNkUwQ6MBHYnXm1xry0HDHlH/UyeYnmt5ukFQs6BEsNPd9oLa3qOxJm5OmnbJO+TxRzQY1Wk3CLa45aRBdHsk55XHlEY0OGxShwNG6zjLadbEOH9mqb6XtOxq+eser8U0ix5f2MkW1UcPdJO71lkc4w8eHR0OaLTu0q53JM7DiOof1bUnrk2XToN9OLqlSIJ6fC0S2se+P56XIYYNL3TtNwe83D1JnSPxHvC2u8W7Iv3xxPJrtKqC4uPrLbpT2yXfX2L7/WWr1g+5PUZrglkrP2G/0okkY68mrjW9XPU+1vT1p45HVI9am+F88hoVxy9omZGfBcayuULge7EEVa8jq2CbjBLHHGdOmzasiCzzx03Df8e9x+ySl73cSdvGzOmzlFzObuhBfG5tzXvXPgCABVL6xuD2uxrRy3NYYyuDhmiAKrsS6KRgQR1/rIuAMdzv3v4lDZ0N2jFqPsOAskc3v0fk1OpyOH3ZoQ1nRA9X6ige3Ilwz6Hav/6fWSQuuyD+Es8SGPA0dilr7JrKYfhTtx4M6TLSlUgQ12bTGNa7eqCRUyP/SB3T1rqY65c6gzIoIaq9U6E0n6NI9yTuy2wkGHmdPZOnXrLOJ/M906G7R2Pdk6TuVxYObTTLJo2cTBjJv9BubojE1rin46AvE9S0QC/rdbdM7PdXXCki7/zm9FlKPj16fslxzQMAQGm5kwC/i0XYBai77RCtu2LY9LqgzL82ra5wbbxZE8bHKCMZEBqBGNeEiyD27k30da9evSauqamwuq/ILjbakDwR9IetBlZi9m+NnEh3LHXtF/VllUSqE7K65LgiIckubb8m6VBT3aPgz1/sfcytKGQkwYzPoxMsl0uXGtM6tRUJt9WvyTb/1iVvgBu3jLQySZZpqpA/kC9nKN6AZSsvAAAgu9xJgKzVN7qm9B/FS9lFIhoALCN9o2pYst5I6QegQcC0F21VmDXehqwBQJaAJG8wwcHANBxfiyCUjC5VkS4ufk2kn9CKcyAC6UgtNot0x1KlYAsX15I7+oZ62W2Gz3m4XH5fZZW+XxnoLj+iyG5seRMBkcC4ZHQDMvifDeF+cUm6kTvPdTct9rbGlSzXvCluGVySxs1S3L6k7Z98b2QoRXDSOPK4KyQAAMxC8e5ARncN72/YFWE5+V1w6nsFW0P4RmoziBNlLFDiPuRW96Kq6S/wWQcitt5fj2hlNWOf9pyC69a/DyOomBaB+O662efe6hvPXbScip5gIu8fcaxEz3jaFgfVdkuAbC1K6UqTtF85yWOfh0xgot2AtM4vvvl58tPB5uW60/T2JJV52c7Xot8fSSVO3E36UX5rKr5LAABmp1ASIPts+6/kB/dSCLprcDcf/WSk8Gkn/Jg7vxY1DBYyP9ef+0qLNMDsasIl8oV51qJTvuFTrpdLdd2v9PrSvsRnSgXc7ljAoJ+g43e10t2vst6cy08g4RuG/f3tUu23UWMuju/lo/n0Hb+ET8rhG3T9m4HN8dlvDDaWrW6WDRI9uW59TYny2aPBWEsAP2lraHQ5C6+91P2axOqG5G9bmJwETx2KPJ1IX3s64bCOm34IAD9EQN4MbIwzrls9rOrrjpcVri8sWdahp0srs2Jvvy5J4/LieXh/zHnjhs2E7H63vF0gAQBewz/v37//T72G18KBmAj8jjaNR2LyMK5hnaNuVjpAsGUJGPIGTxx8dj88RI/JNHGN9vcaXZrHWw7j37vI2q0LpiHpuitrltdznGnt1yR6/8x15x02Sd794pYCfppXpPUNAACmCknAHIgLePlL0V0ZzC4Injt8s2uXNn7PKDCISbrkeZGPfZ2fRAxg0cw84QcAAAlJwFzwA97Ik1P4JtSl/1Lk7j/8+wezqYmXiVekLz7fI4AEAGB6+D3Ov5GB9xkAwKwhCQAAAAAAWDKlfywMAAAAAADeFiQBAAAAAABLBkkAAAAAAMCSQRIAUIL9yMSkRyhmnQ4AAABgFnBjMECMpCDdfv45T2c/Rz3uGelxy8v7LHUAAACAqiAJgKi4H82aFrku/sVZ9jYexzkp6I8L9rUsyQIAAADALBTuDsTPVL86ka/o6umezr/IwSEO8ESgc/+jrQa8cWp/OHgLy5XY+/nA52O2x5rPu74GTPybB3HDY5y1aFMEwmuHAxqpQYuAg3u7AAAAAMyTEvcEjMj7o16SR8+RH3MSgeC3DXo47JO3/XU8QXizuLbaDO6W+QduOnT3SFT/aKVBX3ZowxnS3YH6GwJmAgkAAADwmvInASdXMohx1x1qfOeAxqW6+M8Vw4Ka6BOXGi+X1DrrUPPCo8a3c5EWLDK/9vvp3thPdZz8GnEez60lfu25HwjarQjmuLha/eh4vS7+yX3+m3/p1tnuhuOvzaVPWLbaVlmC7jmTdX4Nida3IvvRbm6Q83gXJkfmskXJ1EIgjbcoyH3Ns18zotc/CVoGAAAAYF7kTwIOmiKI6dNQ14pfiEBwNKAj8Xpzv+d3m9kj6n9SYaCYvv/SoG4keFs0PWptimPiNOirDERFcLpXp+HFGjWDGnFOmnbJO/SDwP6jSJyCY8IBr0u12yMVJHILStcIgDnYNceLstkSaxVr3t9UyxOnwRyvj/+kZcvzVaOB2q5cXXMO7sRVUKetYDvbtPPBoeEvvW6x3R/vwm0S10p9r6ouVJOO2ezo/dOvdVJgFj0eAAAAYB6UfkRo+12N6OVZBqSS7Ocd7SbT+SSCpCAofcv8Fo8guDNr/sUeN0UATdsunf/Ypfpj30gAfMOLTWqpblOyFn1l1Z+fu9DQgE45iZI61L8dBV1t2rw8kWiF43OYsOzjVoPo9jTYrnysLkFjXYHEMTHPu0waarRaRfewCfs1DVmDeZ0UmAUAAABgnuROAvgGVLMLUHfbIVp3xbD5uUl2eqx7AlRtfEAkQKe3NWpse2FLSBqnJo6i8G+NHKdBXSPBkMdVqdfEazPRymPCsssyuwSNdQUS/OtFF75uKjLl/QIAAABYZLmTAFmrb3QBCruhLPNNssrJFXU/PFBfJAJupJUgwcgTaYWijqdZe6xbT4ZeyWfnpCy7tKBLkN0ViFsw7sldNxMn7kZWoWnul4WTDF5+FjztJFmXBQAAADANxbsDGTXT3t9CddQLRt0H8LNFnf1TGpC+PyCOP+3o941/DDmQDu4nGNe7eqDRupva350TBefDznjiMWHZ0fnEduW4MdinugR9/hr/VCAj0Tm+zt8SUHuntpsTLLOmf8J+VUW3MiBoBwAAgEVSKAmQ9wH4r2h1Rb1cCtY9AUEXKP/G3fA+gB61fg7l03rMJ9bU9/R8/g2t8kZqqUNNdWNruGzjyTh8n8XhgGrB/KJYLQ09lXgE3WOCm47Tlx2dj29czl9bL7sEOc5YV6De/qUM1PU27XqDyLL1k438JxLpY6uPqTiG/+N7LNR2f/Zkn//QhGNWkl6ebmEAAAAAWCT4xeCZ4CfZdKn203xaECwCnSjYePgkSC4AAADgtSAJmAkkAQAAAAAwP0o/IhQAAAAAAN4WtAQAAAAAACwZtAQAAAAAACwZJAEAAAAAAEsGSQAAAAAAwJJBEgAAAAAAsGSQBAAAAAAALBkkAXPi+Dr81VvzV4bL418zvqfzL+rPUqpc1pw4uQqO+1PmfePjkDLPl3O6D8brX0Culn+9VH8ueLlV/eoyAAAAzK/CSUAYLCQEhioQyh3QRgKoagOS9o/7YLlBuT+nzFsot61YUBe3bvPYdD6tyV+Q7T+qAXOHf/DMpdrtKbXO1CBNn7Pr8SMT3W/72PEyw+MRnd8PtMPzr6bV58u6TrjkT57EOvbqNLzwj/3a2ub4vsXqUFNO36ehGhJx1qJNHn84oJEa9FZ0zgdU21uwRA8AAADGlGgJGJH3R70kj54jwZMI2L5t0MNhn7ztrzkCCj2fCsouhlSvMCDp7W/K5R7ditBsNKAjXsdmi3pq/NQ99lWw6ZfN/ZmtubT2j6/UoAGdWtssg/xvRA9xycvJFXW3Peqr/T26rZFrJF28zI3fR+p4iIB63U0M5PX6jyLna0QDfa2IgJtyXWvCl1WqiTD+7g3+irOfNGZNWnLgBObCo8a3HMkxAAAAvDn5kwDVfcJdd6jxnWtgXaqL/1yzJvbEpcbLpQhQOtTMFVD0qLVpBDYHdyJEc6j2r/p7qrimmRMOs6uHrrlWw743xNb4++qPn12NabRG3V6vVaMe11rxr1Fznqf1Qzomd5to8D8rYfpyTl9rlzKRelaDQmKbPtdpdNunjhrS27+kobNBO2rbOSkLE6EO3YlEwqnV1d8GXg8nE2kJ29kNPYxyXiv/1sT5jDPeusUtX/lbGgqKdFGy1htpAZnQsqJKpDUtS/eng75ItxrkolsQAADAwsqfBBw0/Vpb8Z+s4b0YBrXqMqDjIGWPqP9JhX5i+v5Lg7oxXUXmDyc2u+TJ2uUjGozqtCsDMNX9Q3bvUPstyxRqYuOIY+rSqVon16hTJLGSteQvZitDMwi8fWK/9mp0KceJc+fkDPBOtqg+eqAbe1+51lif5wTeXzNsH5KXN1DnwFa2Dtn7ZPmyQxtOtlr9IKHa44TDSOrm4hrlLkq1sIVDlEiLUWpXI06iw/nke/OxT019TOR701g2J+jf47q39ejm94jqH9/CexYAAACKKH1jcPtdjejlOayhlUFKNGCTXRcmBItxjq9dEXwOqD/D7hrDCx3Y+4FQbM10UeuuUQub434HcUybRiDYu3qgkVMT4athfSsmmNO424w+J36Ne+1d9lrtsXOciQokP1vJSnzVu6yhdtfFdp5Hr5P6Xpc2fsfchyDp1ihRvjfIu5iQKCi6W5gMks2krsA1Oh0ObTSzn594nEwYybjQbm4Qmfd0cI2/SHS3Yq7D3l+PaGU1OHcAAACwWHInAf5TScIuQN1tEdXJ4DauRrE4rq1110WANss++9Nm3RMQ1NBOZHXzkN2SQhzU9h/DGu2qu63Ua0mRe7re/qnsVtJV2/WVLkXQad5Losgaar5Bd7xlZXiRdl+JcU/AWp9ob4ZddqamQ015f0NXne9i7ytOoMlKivg8OsFyuXSTk7I/3niiCQAAAAsjdxIga/WNLkD8NJvRLd/cma0WNgtOALrcB31SF5AlcXwtgjW+KVYnEDFdQfTThTgY9kSgV2UwPPSKPuMm2j1lc5+o5lg3kXMCIJIaEtdQfFKk7iuJ7bZi6lD/tuKWm9eiu/yIIm+mzpsIcKsKGd2ADP57NTwnXGKPO98vMfIo9ulHAAAA8OYV7w5kdA+J9vsuJ0wAUvrb65sbZ92H++yZPIrvPjF1wfHmPvLRloAo7nevXlakmq4hfLOtVTttJACpT0o6aI49WWgc37zs0PBXVWljeO+C3yrlv541eezzkK0q0W5AWufXkJyMT1Aq1gUMAAAA3opCSYAMEPxXtLqiXlbCD+Qifb255H6aTTx9Q6jswuSobiq5ls210vzYUr1tVT0dSD19SBQONnWXDV2bz89uHwX3E3Sp9ttsCbCfCNOVNwmnBtV58VOaYm8mjm53cM+DTs4iT6Lxb7g2a52PW34yE+2iEn9Mw65FZq24eZ3wbxgktSbkFT3P3dpl9Pcbgv3ibnF6G8Lt1tdZ9GlSGWvzI8dMFHkjb5g4pS9bJ4jGzc5c9Pngm/plq4oxLna72rTzocqECgAAAObNP+/fv/9PvQZIJFtoPjxYz+mHhcSJyGcP5xoAAGCBlX46ECwHXRP/9c3feAup9GNE7d+EAAAAgIWClgDIgbv/cLeeGf0+AswcP/1r61eeJ1cBAADAW4QkAAAAAABgyaA7EAAAAADAkkESAAAAAACwZJAEAAAAAAAsGSQBMDX8HHrNfJ1H0flgNrKcn6rPPQ83iy1pPgAAAAjhxmAozQy61tbW1Ct/uP7bfB0nafyk+SAb8xwlKXKcsyyXzfLc45oBAACYDC0BCyD4FVku+tdhKyKXnbJMHXDpwn/DuNc8R8w8R0ml6LmLW5ZZqhIcv4QCAAAA2RVOAvh54lcn8hVdPd3T+Rc5OMQ/OiS+mO8X5cel1P5EA48rsffZ8TErdDzi1n1/TnpJvf1NGWwd3Y7UkCXFv3RrHyeco4VhJhZxJb82nd/b10jC59kURBJDVfxrz98u//PVxMNzbFvk/WDOx/sYt16TPjaqVJy4AgDA6yvREjAi7496SR49R348SnyBfNugh8M+edtfZ/KFOhtD6kcCjyZ11Jjps9a9iV90HXPQ9I/NxVD8oY8XzpFmBn1xhbc5L54nbllmKbLcNPby46SNs41GNdoaC7hn5LEfXi+ibO6HV0ztXYFkVJEJBv/y86Fe9ilRK0xK+fM7GHc4INruGkkHJwldarwY2/ZrKyYpAQCAtyx/EqBql9x1hxrf+YvWpbr4zxXDgtqkE1d8gVxS66xDzQuPGt/ML59FpGrNjJpffZz4i1PX+LnrRI74stUByuxq16yaP3u9Vg16XE0415Dr8ZOCAT3dvOHzwPsWty+Lfo54WBDQJZSi4pZj/12U3h8tbj/M8Zoel4X3+4Fqn5M+oxJqxGXLT0wrE58n83OgkB49v6iXEXWqOeplqmNytx0aXpi/7N2j1qeEpPTsmTz1krV/7FJ9NKCjT0b6LBJs/Io0AMBiyZ8EyNrWPg11rSfXuvIXhngta7H4y3GPqK+/QMT0/ZcGdWcWTL0G8QW7KY6J06CvMjgTAd1eXXwJr8kvTt0VpP8oDtXtURCgrJlfslN0fL1Fd3qdfO7WXSNI5G01awyjtZGSmH7X87ebu7PUEwMmn15OVjqw08FcEHCpv6vEAX7cvizbOaqCeZ7MkjQuDg/nbU4ar/d3qv626PJlg3ZiWiyPr80a8SMarLh+AiYD5xqtTr2V0+4CZLe6xjjZEunCkO6yBu1yet2y26adDw6Nft/MVSsWAABUr/SNwe13NaKX5/AL46xFm1YXjM4n8QU6o2BquvwWjyCwidT4dagpm9VdOueatMd+xTVn1rpzJFWdT+b56NCdCHSjXQ0c2mimhIxiX3TQ2bt6oJFTE1szPTrwm0rwN9V9md9zxMcy2K6Ukod5nrKUKvBy7G2uYtmdXx41Wvb5Oqat9WFYocHJ/s8hOR92xPt+SJ6+vcNoFRj7PJxEJG/mvujEbygW7tTEGfyyQxvOhHNfiG7JFYUrbdbMVgMAAFgGuZMAv8tB2AWou+2oL7J8N2C+TRP6fIsE6PS2Ro1tzwgcqmKtO8/yra4k3OUlpJMX3QVmtueR16mDOP6X/3675vscBdulStKwWeF9MbeD/87C3F49f2kHfRqsbEWP65dV4lQqktjt6dSKu+w4VPtXBP7NGnkiadOtAiOP70nJSCRv5r6MVRz8K5Z90SePEw/enpEnrrIq6HsCuFW3/nr3RAAAwKvJnQTIWn2jC1DYfWKWN2DOKRHIdT88UF8kAm7pfsEVkd2z/K5JOtDgcxYhW2/8cUe87UuR0M2RN3yOguA4pVSp6uWFenTzu0a7P1bV35qV2HFRyT/X1tfeHdPOB6K7c49qzTbVaw55fzO3AyTq/fV76R9/FMs+6NAdd1cSCUcmfzwR4mcN7Dvi88rsPubfj+C3dgAAwCIr3h3IaPKu4kvv7VP3AfxsUWf/lAak7w8IySb+V/lyNZ7kJBKVaC1zlA4+ZoEDOg6qTPz39AK9yXCO8okExwkl7nxO89zby82qt39J3ocNqqm/6eyGHkZ1clO7da1S7eWOOmfPRB9c2loxn5pW0sou7a74Nf9Dcco3PgZblk4kjJciiazvmYlim86v4ysmeL/5fiZXJQ2d8wGNgvubFHFN2jebAwDA21YoCZD9Xv1XtLqiXi4Fq2tAUBvLT3ZxjfsAVN/h7W7kKS49lRx09fyV3CwdPr0k7JplLFsGBEb/388eDcxaZqsbiv9YweytOjpw0yVrAJZn2sz0vsguG/pc5asxX8RzFJnXKEnjpo3XUfm5rwTXuDsUPoCHb/j3bwY2j49+T3My5mw3iH7xmeB561R3Mty4m5UjtkTdoMv3edB6nZyM9xtwi23/0fy8+kp0nvTIWtUaoJMGbnWKdD8T5eMdng4EALBg/nn//v1/6jVApTh40MGe+TqPovPB/Kj63PPwSXDNAAAApEMSAAAAAACwZEo/IhQAAAAAAN4WJAEAAAAAAEsGSQAAAAAAwJJBEgAAAAAAsGSQBAAAAAAALBk8HQheTdqjHvUjHvGIUAAAAIDqIQmA0qp4bnvaM+GRBAAAAABUC92BFtDxdfirpuP8X6+9OlF/VoCD9EklLVHIkkQAAAAAQHUKJwEcaPqB5DFdPd3T+Rc5OPTlnO5FcJccjL497R/3MmANyv25CKlnxQ/en+KO9QIwEwXzGAMAAABA9Uq0BIzI+6NekkfPZ+qlJALWbxv0cNgnb/vrYgStJ1fU3faob9Zwb7aop0ZP3Zcd2qAB9W+JNpqLk1hxoM/H0hQcX2s4AAAAAFQjfxIggmEO3Nx1hxrfubbWpbr4zxXDglr/E5caL5fUOutQ88KjxrdZ1phPx/HHOtHjHXXU32P4uHDLgGoBkTXZ18dqpKKOnS55WknazQ1yXp6pc/VA9GHHOp66lcAv7roaHODWGj2+Sw1HDWZye6/EFMY0M2rh4HWZgT6/5mEAAAAAMF35k4CDpgjW+jQU/8la8Ysh0WhAR+L15n7PDyr3iPqfVLgspu+/NKhrB8RvTOeX2M91dzywNzliP7/X6JKPy+GARuu7YSsIJwB7NRochrXc8nhl0qadDw4Nf4ljevZMnrNBO0bryvG1COxf+sFy+49qhMQJgku12yM1/ogGIzUqwEncLnly28S5FfvhlrhnIEsgbycAGg9DIgAAAAAwXaVvDG6/qxG9PIfdYs5atLnWjNSYdz6J4FInBW+VTn44ERBB6pOsPbeNRJCv9v3shh5GDtX+5T9EIP65TqPbU2pFuk1lxF2BnCHdHfAfHbp7dMIuQSLp2l0XCVnS8eVWGRrQ6YSEY3ixqbaNl09UezfdtoC4BEBLGwcAAAAA5eVOAviGYLMLUHfb8WvIY4PiRdOhpqxN59p23n/rJt3RA90EQX6PWptr1JSBe51q4jB5f4vdQSC7AhldkbhVwhnrElSGTjB8nLRlb6WYLiQEAAAAANXLnQTIWn2jCxB3PRnJribR2v9F1/nEXaJ0Tf8kQ/LGuuBk5XcF8hMt1Wd/r05kdQmaZ0ldf1iwTwkFAAAAAKpXvDuQ0QWoaA33m3ayRfXIE5LS9Ojm94jqe0VaS7gVgbsZ+S0QfuF+/apLEN8jIKbZUn34+TGmkRuD/3g0MhIGef+AeWPwDKQlAOE+xRckAgAAAADVK5QEyPsA/Fe0uqJeLrTo03dkkTf56n70k/X2N+notia7UOllZHo6ECcbkW5GzE8q/C5B/ASmoUgw/GV2a5diPUazw1mLTm9JPcnpiXa9I+vG4XL0vpglaTgXAAAAAHh9/7x///4/9Rpg5iYlBtwaAAAAAADVQhIAAAAAALBkSj8iFAAAAAAA3hYkAQAAAAAASwZJAAAAAADAkkESAAAAAACwZJAEAAAAAAAsGTwdCEpJe8SnfrwnT4NHfQIAAADMDyQBIGX5Ia9JgXxSsI8kAAAAAGC+IAnI7Jiunlyqy9ejXL8WPF38a8Zdqv1co+aBGjQlacG8TiKQBAAAAADMv8L3BBxfP9HViXwlguN7Ov8iB4e+nNO9CP7uf7TVgLeuQ00RyK6t9WmohszUyRU93Z+LkH9+caCvkwH+VxcAAAAAmC8lbgwekfdHvSSPniO14m06/7ZBD4d98ra/jicIsFDiavr5b10AAAAAYL7kTwK4RloEfe66Q43vXNPLXWTq5IphQa3/iUuNl0tqnXWoeeFR49t812BXpf3jPqj9fnq6omM13O+yw60l3GoSN15QLSfh/GoaPXyvTuQ0qGuOU7P6UpY9Rbw+M9Dn1zwMAAAAAOZX/iTgoCkCPe4SM6Q+1/ReDIlGAzoSrzf3e34wu0fU/9QJpu+/iOD1elZh6SsRyVF32/OPiShHtzVyI913OGnaJe+Qxx/RYFSn3aCrFLecNIhuj+S88pjK+w6a1Dlr0aZ1nOU0a2KcP7NU30tadjFZAnk7AdCQCAAAAADMt9K/E9B+VyN6eSYR/vtk0BoNUDufRHCqk4IFdfyxTsOLcL97+5c0dDZox+gKNbzQNxP36Ob3iJyaf5sxfdmhDWdED1fqKB7ciRTLodq//p9ZJC57iuISAC1tHAAAAAC8rtxJAN8QbHYB6m47ROuuGDa7Lijzp02rK1wbr7vj6GOU0dkzeSLo32jq7lRbYt4h3U35aT+zgoQAAAAAYL7kTgJkrb7RNaX/KF7KbizR2v9lNLzQXXV0yfoY0SF5IyJnu+snEHvRVoV5kNT1h4WJT3wBAAAAgPlSvDuQ0QXI+xt0BlpSfhec+l7B1hC+kZrM/v4xz/z/49HI6l40S2kJgN7mpIJEAAAAAGC+FEoC5H0A/ivZDWYpqKci+d189JORwt9H6O1v+jcDq9pvWbI+1/+gL1IA88k/fvF/h0E5a9HpLan1cqmu+5W5Tl2ShnMBAAAAgLcNvxg8DzjB+OzR0WYrvMGah/FTlt5AN6tJiQG3BgAAAADA/Cj9dCAoL2xZCfHThmjk0av8OnFOdvcfuwAAAADAfEFLwFzgHxPrUsNRfzK+8dpsGQAAAAAAqAiSAAAAAACAJYPuQAAAAAAASwZJAAAAAADAkkESAAAAAACwZJAEAJRgPx416XGpWacDAAAAmAXcGAwQIylItx95ytOZw+y/tbjl4fGpAAAA8FqQBEDUl3O6/16jy1n8SJlcV4P8J6MO38wPo6UF/XHBvpYlWQAAAACYhcLdgY6vn+jqRL6iq6d7Ov8iB4c4wBOBzv2Pthrwxqn94eAtLFdi7+cDn4/ZHms+7/oaMPFvHsQNj3HWok0RCK8dDmikBi0CDu7tAgAAADBPStwTMCLvj3pJHj2fqZeSCAS/bdDDYZ+87a/jCcKbxbXVZnA3/zXX09Ohu0ei+kcrDfqyQxvOkO4O1N8QMBNIAAAAgNeUPwk4uZJBjLvuUOM7BzQu1cV/rhgW1ESfuNR4uaTWWYeaFx41vp2LtGCR+bXfT/fGfqrj5NeI83huLfFrz/1A0G5FMMfF1epHx+t1tX/cy7/ddSJnuxuOvzaXPmHZaltlCbrnTNb5NSRa34rsR7u5Qc7jXZgcmcsWJVMLgTTeoiD3Nc9+zYhe/yRoGQAAAIB5kT8JOGiKIKZPQ10rfiECwdGAjsTrzf2e321mj6j/SYWBYvr+S4O6keBt0fSotSmOidOgrzIQFcHpXp2GF2vUDGrEOWnaJe/QDwL7jyJxCo4JB7wu1W6PVJDILShdIwDmYNccL8pmS6xVrHl/Uy1PnAZzvD7+k5Ytz1eNBmq7cnXNObgTV0GdtoLtbNPOB4eGv/S6xXZ/vAu3SVwr9b2qulBNOmazo/dPv9ZJgVn0eAAAAIB5UPoRoe13NaKXZxmQSrKfd7SbTOeTCJKCoPQt81s8guDOrPkXe9wUATRtu3T+Y5fqj30jAfANLzappbpNyVr0lVV/fu5CQwM65SRK6lD/dhR0tWnz8kSiFY7PYcKyj1sNotvTYLvysboEjXUFEsfEPO8yaajRahXdwybs1zRkDeZ1UmAWAAAAgHmSOwngG1DNLkDdbYdo3RXD5ucm2emx7glQtfEBkQCd3taose2FLSFpnJo4isK/NXKcBnWNBEMeV6VeE6/NRCuPCcsuy+wSNNYVSPCvF134uqnIlPcLAAAAYJHlTgJkrb7RBSjshrLMN8kqJ1fU/fBAfZEIuJFWggQjT6QVijqeZu2xbj0ZeiWfnZOy7NKCLkF2VyBuwbgnd91MnLgbWYWmuV8WTjJ4+VnwtJNkXRYAAADANBTvDmTUTHt/C9VRLxh1H8DPFnX2T2lA+v6AOP60o983/jHkQDq4n2Bc7+qBRutuan93ThScDzvjiceEZUfnE9uV48Zgn+oS9Plr/FOBjETn+Dp/S0DtndpuTrDMmv4J+1UV3cqAoB0AAAAWSaEkQN4H4L+i1RX1cilY9wQEXaD8G3fD+wB61Po5lE/rMZ9YU9/T8/k3tMobqaUONdWNreGyjSfj8H0WhwOqBfOLYrU09FTiEXSPCW46Tl92dD6+cTl/bb3sEuQ4Y12BevuXMlDX27TrDSLL1k828p9IpI+tPqbiGP6P77FQ2/3Zk33+QxOOWUl6ebqFAQAAAGCR4BeDZ4KfZNOl2k/zaUGwCHSiYOPhkyC5AAAAgNeCJGAmkAQAAAAAwPwo/YhQAAAAAAB4W9ASAAAAAACwZNASAAAAAACwZJAEAAAAAAAsGSQBAAAAAABLBkkAAAAAAMCSQRIAAAAAALBkkAQAAAAAACwZJAEAAAAAAEsGSQAAAAAAwJJBEgAAAAAAsGSQBAAAAAAALBkkAQAAAAAASwZJAAAAAADAkkESAAAAAACwZJAEAAAAAAAsGSQBAAAAAABLBkkAAAAAAMCSQRIAAAAAALBkkAQAAAAAACwZJAEAAAAAAEsGSQAAAAAAwJJBEgAAAAAAsGSQBAAAAAAALJl/3r9//596vdSenp5obW0t+Dev15hPi5s/brnmPDY9bZ7tMafNM58paTuLLGsaeFuSlN33suz1Jm1H1umyyLoOxsPiVLEt5rKzbk8WReZL2k+ml5V3uXr6uPmmsb5FZB6Dqo5HnmUmjbeH89+2LPPNStx647ZZ09MmbW/avNpr7KcpbhuT9qXIthadz1bVcmYp7fzrfan6uKatUzPny7KNrMh2Ji1bL6fIMstYqiQg7uDbBz7pBJjzJo03h8eti9nzJq0vTdy68i43aXzSsrSk9Va9vrRlFcHLnGTSOvPsQxlJ2zrpOKVtn63o9qatI+syzWnzzKfZ88QtI2m5PFxLGp93e0xp682zPXr6SduTd32LaNIxtF9nUcUyk8Zn2Za4abLMV0bR7S06n1Z0v4rOV1Tc+tL2XUsaX8W251mOuU2mpPmTpjeV3Yek7U8bruWZzzZpuizr17KsT8uyfVn3oSpz2x3IPtiT/s6CD6w+uObrSfRJ0SXLus3pzVJku016W0x5l5t32iq3/7WY+5BU0vZtlvsdt21csmwDT2MXZi6nKL2s18TbYO9DnmNjHoeq96fI8sztyavq7X+LpnFOq1jmspybZdnPPKq4fibhZer16Ndp9LRxJWneuGntMmm9afLOa+9DmXWXYW7DIiicBBxfP9HViXxFV0/3dP5FDg59Oad7cZLuf7TVgHzSTrK+GGYhbl1p2/ZWTDq+b33/psE8ZvoYzdtx4m20S5V4eUn7nHQ8ZnWM9PqTtsE+Fmn7UpS5TL0tceswx9klj6r2gT/PI9txfazGVEB+F1yJb4q3Sx+XPIq8VyYpOt80ldlPHjeN9+Fr0ftjqmr/eBm68DL1evRrc7xJT59Ez/sazHXrbY/bFh5m70PR7dbLKjJvWXq9ceW1lGgJGJH3R70kj57P1EupTeffNujhsE/e9tfxBCEj80TpC4D/1q8hvyzHj8e/5jHmdes3RlqZFV6XfTz0MXrN45RH2eNmHgP+N245r3089PpfYxvM46OlbY85zi5ZxK2vqPaPe3JXBnRkbsenjhoLrOi54X/zvlfSzm3afLOW5RpM2l6eN+44cclCz5t1+rLMbX0tvH5d4kwaX4Q+J0ml6Lri5p3G9pvsbeZ/9bA89Dx559PMfdSv9d+vIX8ScHIld95dd6jxnQ+ES3XxnyuGBbX+Jy41Xi6pddah5oVHjW/nIi0ohg+OPtj8b5UHS59Ivfy3wDweWtbjYk8Xt6wseJ4i8+XB2zapzEJVx2xasp6LMsfNPgas6HGIW1bWfWBx641b5izZ689zbHg6XbIqs75xbdr54NDo9w311JBxbTq/D7czrpWAE4lgvChhK7H4+3uDHPUd4Y+PthxHWyHMcf56eVnhNDGtzha9rNfA67WvxaznR2+3Pf88srezyD7a+6mH6WnimPOzSdOXZa9vmej9TitF2MeTX0/r/DHzHNrbrIfpabLQ89jLeqvyJwEHTbHzfRqK//p8IC6GRCO/FmlzX3yNcNPvHlFf1ySJ6fsvDermbF42T4o+Sfqg5zlhNnO+sidTb0fRbSlKHw9dsmx/0nR6WXnwPFnWqel16/Xwv7q8lizr5mmqOmbTYp4LvV12iduHrNLmT1uuuX7zb/s14+Xk2UaeVi+DS555q5a0fr2NafS8utjTx81fZn3xenTze0TOdjex6+bxdZcaL321nUc0WHEj03IC0N32/O8DVZoHPKZDTf77cEAj/X0hyya1VMux3QpxdEvU+B7tOlTfe6Jd70iO7z861Gilf5fobZi1pHPD0raH59PzvsZ2M73+LNdQ0n5mmT/LPsZNw8vV67XH6WF6miqkre816O3JWkz62CThcbPax6R1TdrGNDyfLnF42ZP2L24ac7lpy88qbllxw2at9I3B7Xc1opfnsBbprEWba03x8R/qfBIHOGfzsnlS+ODwa32Q4k5YHuayytDbkXVb9H5UYdK67eFp600bNw16u+PWy8coT5mmeTpmvK9Z1qmPq1nKKDq/vQ1xpYxJyym7/KzS1lN2G+Lmn8b6evubMlAnkQjI99W92XJ7TFvrIoAPPr971Po5JOfDjprmmNxth4YX0c/8bNS8P1vB90dv/5QGozptyZYE5bHvVzAJnV9DopVVY/vmR9Hjz/Nlmbfo8quWth3T2sYsxyjLNFllXVZV65tEb49dksbZeJj5vWmWuOlZ2jxmySNpXSxtXBqeT5eqmMu0S1Fxy7LLa8idBPjNsmEXoK74EKd1Vwybzo1ffJHpg8P/5r3oFlGWY1D0OFV9IeY9fzxNnjIP5mU7XtMsj4F9DU36ex7M/TUiK2/4PXVEA2pQV3+ef1mlWqQrjyh7dTmLJMeb94flNXne4S8jveCW6M0waZgVve9ViLsW7GVP+rtKvGy9TfzvtPaTl5unTJJlmjLs7Ykrbwmfj7iSJm7auGFVq2q5cecsrcyDaR3TJLmTAFmrb3QB6j+Kl7fcVFukJigdnxR9QPQJ4r+LnixzeWWWU4S57tfE25FW5sFrbAevM+n8mMcnrkwbryPrtZNle4pch+b+xpU4ScMXkX087FKlqpcX1aPW/7j7To1Wg773ZlceVXQgfvZMnpymKIdq/6qXUp1qjno5R/R+Z2Gfe7ssgrj9sostcv0YJWnca4vbJrvE7ee0zHJd02ReI0mlKnHnjEvSOFOW7bDnmcTez6QyS8W7AxldgLy/1dfL8IFIOsA8fFYHKm5dadtm42nzTJ+VXm5SicPDeTvSStK8Rej1mapeR1Xs7dSKHzN9M+XkGxmT8HLjjuGsFT8Gk/G8Rehjk3W9cdvIfxddv0kvJ61k3c6q8DqLajc3RGiunvh2dkMPozq5ifd0deiO++mnPfxBJgpWFx+J5xVh/+dw3vaPXaqPBtSX9xS8PWWuBR6uS3blPmf09prStlEz9yep5NuPKVEPMin6yFs5b0rh/TTF7XfcdFWZ1nKnibd5UrGPYdywaR7XaTL3M67EKx9PJCmUBMj7APxXtLqiXlbMPhiT/p6kzAXD8/H8umRZjjlt0fWm0ctNKlXhZeXdd5Zn2mkzt1+XpOFcquHfcDle0zmZ3o6qz+Ui0cfGPj76uMWdRz3cPL6vaT62Rz3Bxyj+Tb66ZbdHrU3/ZmBzGvPGYG4dlg9/MMb7TwfS+ClxQ3mDrz8+/CKz55XrztHdZxrH8LXOC69HF5PeBv53XLnPmVntWxn6PNglaVzEwR0N+d8C95HwssxzElfi8HBze5KmmwVzO7IULW4cl6RxszBPx3WR/PP+/fv/1Oulpi+qohfXa8yXJmmZReeLY2571fs/aTtZkfUVUfiYcS3UXo0Gh+HTUKo0y2NX9BhM6zyay+X59d/msnhYkf0suz1xim5H0vZMWh8rsh+LxDx2SccxryzLnHRukrbDnI+n0X+b08eu85U+ZybJOl/R5WfDNajq6VYFfvtCn4M00zw2tmltz7wpc3yyzJdnuknybGeW5bFZnkMkAQCV49pVvnl+NLUvZgBYdvicSeM/utaRT5fCj98BxEMSAAAAAACwZEr/TgAAAAAAALwtSAIAAAAAAJYMkgAAAAAAgCWDJAAAAAAAYMkgCQAAAIC5oh+nmPWxira3Ml8RvK6kopmvAZLg6UAAAAAwc3GBqn5GOo/j1/pfmzlv0nhzeNy6mD1v0vpY2jrT5kuStE2mSctMWm+R7YHlM7ctAfabY9Lfb9aXc7oX+8L78/R0RcV+3NzHz0Uu+vPoS4WP+f157l+QBOb/fHn0F2GhiONrHMfi+Bn51f+E/vLh41jue6cMDlJ1oGq+nkQHuLpkiQfM6c2SNZYoss5JzOUllbT1VLENsNwKJwHhF1jCh7EKbs2fl88j7eLXb8a8ZJAs5vWL8cHHv7gYDOcS9+XC+xlOE+5XdLgseQLxsxZt8pv9cED84++FiX2QP7lv/ShK4j7noY/P2H75AWHafvN1En88BZ0AReazlilLdLv9ZSaMjyRVRjGDfnHML18a1J1SwjSd60wY2zdj/tj9Tlu3KPqYxIxLet8eX/u/vtk8UAOUMtfZ+Pk0g+OY95ex/Oh6/WJue5llxx5T4zpKX/eEZQud8wHV9hLeG6UlvTdj3l8x74Pk85myX+p4Ra8df/pwmLV+832Z6f3BeBku1W5PrR/IStrnDEqd6+leZ9NctrgKqX9bIzcybL7xPtjf/5OC5bJeY51ZmdvB/+oCkEWJloAReX/US/Lo2f4w/rZBD4d98ra/Fv6SMy9u/Qbkv+03Yxb8QSqDZDEvz7+2dkdb5pfEaEBHatzRLVHju/1Byl86R2reNTolN7Jfwwu93CMarLj5voBKE18Ee3WxDU3xkW4QX6rmPvcf6wU+7HnZNRo+2ikKf/mon2NXy1/7tTX25bTlxSc38kv1G9HDoxpgGRnHWm63FUDJX4E0x+vjrZMqo/R5HS/P1POnkDqf/PMUbm81pnedieP5vUFecJ1xsX8ldGisl4t1PRjrlmWzZRwTY16RkNJ21wrmBHE9uetiOvvXNyu4zszzzSWaZPAvoobjxvbLuBa4bO6bZ7rksu1jGjlmQuq6Jyybr9ULjxrfqg7AJr03zc+rPg3X3bGANvUaTtovuT9DcozP/ONrl+riGPnHhYP0Lm381udDvAfJSsbT3h9K+8dXMdeATq3zrBNUf9nj+zVZmXM93etsmsvu7W9S/6VBX3MdK3htcbFQeA3kj5FgOeVPAlRtjbvuiA9ozjj5Z8s5SDNqRk5c8WF8KQKUDjVLfsnxxawTgaIJAAdXu+v8QWl+OIptS/gp8d5fT73yHbca5ARfZL7efjPhZ9p71Po5JFrfCr687FqkzIGnPNbWl2DMsPaPXflFG/1iEF+4n+viy6Mf7DPXPI6cDdrhL2hVQzRemxVdtv8lfkn96CHx18lf2OYxPGgG23B8vUue+GJqXvl/R4h1f61dyi+jZzUojQzYR3XaTfiS6vwSx3tlNeEaO6YtPvfn9rn2z1P9c4UB2DSvs5Mt8S4b0l3kHE9JEMy5xrXgX09jiWZF19nSOujLQNitMBmd9N6MGpJnZuk5r+ExYj39R/Hd0BJn104a+XshEryL9+D/xLVifFaa7PeH75jcbaLB/6wAXW938D7nGu4ROR92/Pe3+t4KP3s5IRHX4RuqAZ8mfs9S5P3+OszvSUjGx8eMhcw4CSCP/EmA+JCXtSy6dkEEC7r2RgYv/KW/R+EHP38pFOh6YX4Q6AtcX/TmuCzazQ1yRg90Exu0jzv+WBf75Ik9lH+JIFJ8Vf7K+CVoE18+kVo1cbzqWbsAHNyJbajTlhEgyG17vDO+oNu088GJ2b461ZwRPVzpr0q/JtkR/9X+FX/atXb6C9usRbK/xAP+Oke/b6JfxIbOJ7uW2sDrzhpUSD16fiFyamLfY/AxSdoWP0HihFQNMPHx1cFqBaZ6nalrYaxFZFr+eDSiGq3qY/NlhzacuCSkgutsqfXo5veI6h+rOquT35sR8rwSeX/9qfNew3FkErju0tNeNDlsv6uNtcjR2TN51mecFn1/KJwMx23fv7XodsvPXbFjTk0sXRDfQ0ciKajv+e8f3ZpwZNf2L6uzG3oYxZ+HaTO/y+V3pCpF6NggT3yQBW+PvUz+297OsuvOMm/celncNgJMUvrG4LEPdv7St77gO5/EmzpX0Bd+GDB90esL3BxXGUckKmL5vA6X+uNNwZmJICj48huvJdU1ZRvNLPVPfm1WGCDE1Wr7QVjYNcumaryeXKILv2tM7Z1at/xiJGq0zmNqeZNqfl/HMFJdKXCQoc/XynjXAJ+qNRxrBdC4FlQFq7NS+DrrUFNc837XKH/+8RalcJwsdi2nsW5Z0hJzGZwZZJBlBWQRRa8zn7PdDbdrrC+4bnVUxd4v41rgYh+XUsu2j6l9zFLXPWnZPlnjndiSNR31PbVN37nbpt29ZJIJ+yW+Ay5lN78hXRrvy3pNJCeefQVZLRET3h+xiYRJtTw9cUWUrKwKE1nZ7UW8f3Z/nMe3JpQ619O9zqZ6DUt+RUvwnp0x8/u9DB0bZI0PeJ1Zp9XbqEvcfHnWXVTa8qe9blg8uZMAvyk/7AIka1vkh+N0aijNNxv/y39Phe6Lyi0bCc3TaYIvVdWn2+zSoWvZiuhdPYTN5VwLZtdqf1kVX3NJ+MuhS7Wf/gdT86BNqyvR7entn9JgpTF2s6esKYu5AfS1cAARYfTPPfq9IQKH8evP7xaRVqv5Cl98Ja8zmVCr+fmai/Z5Vq1zutgJhl63LmmJuXVdyeArUfHrTIv2ebZbkbh7ih4nir1fVl9te/mllm0fU/uYpa570rIVbnXRNdYz4t8TwN3sslZImCbsl2zt4RfiO8IIODmRH2/NsyoxJrw/xj4HTJxAfK/RpdwukWjKazh6v1rnE9+n1oi5qZiVOdfTvc6meg0r8ecnjU78wzJeMbFY+PiZ/86zt7CN8PpyJwEyCOEPaPVhzTV+/gdU9TXG/KGiL2R+zfhv/TorWdOWtdsH99GN9D/3a6omNdeHN9qN3zAWDTL9ACkzo5mWm8fHuovYNbYBf7v53IRfVuOtBnwz3cZvsc8r5k10fpcCs+YrTPa4Fkp1z9H9bafO7yozXovo6+1fir01uq5I3Arg0PBnQuAljQerZcziOgvIFiWxulxf2tnJbiFGABXfP5uVuc5AmtjKkkee96Z/X4x570euaziWbgkV3wkykA9vvo9t8YgJ1KWx94dvrEVQk93XOBg2vofGjisHrdxSxYlAd+ED1rziW2rSiOtnM/ze42InRpOY3/H8b97v9jLMdc+rtG3kcWkFIIvi3YGMJtmqgigTX8RJF3/uDwv5heJYNyiLL6uEZtHoF6P/t/llxto/rqwm2Th+f9/IDZZ8c5wTbSZP56+//vmedlcG1B/7kOUgLK5Li153+KSOsZpx1T/7cr8jb9CjYNrxD3fuT+vXhPm1UP7Nn9YTJcTyqv9i9b+4+UbH+C4/Mfsl6Jsjx4+XKakrla7hspvdJ5jpdZaeGJWi+lNHuu0k1laXuc6AJXZx0V1bEroRJcn13rSD7VzX8Dh57sVnkvx8U4lqcPO9vAfH3C7xPvvWIDK7Swbs94cvNpFgsrLE3G6x7M/Re4X0fQD9A35gBbek4eb0ULUVItMU9/2fFi/YeNo807+mpG3U259W7GPE/J4ci99iA9kVSgLCrgE5a7Vz4IvYNOnvdBzUqsfRqQ+Ap6ctukvqDqG+GIOmbPFlprtf+PM+0VfqxzQnj+N+qEf8HGa93r1apLYqeHKQvJlS9920vpzkl6dDFHuzn7qxMOYpN/66+TF7/rq7Hx7CG+FEUMA37gWBnuzHy906Mga+fO+HepSkPiZPH++CmqDofvFyeRq9bBFUqHlktwHd4mAEGmEfWPXYP7uJW88jirzx2hwvgqevE1sBhKSbDNUxFVuR836B6V1n488pH+92xklNpO+vfR0Z/a1liQSXxrzyGrVq9VSLVNwTmqZ6nS28pBv7BXnMxb95uwpNeG9G6WDbrADIcQ2bYpJH7n7Dgb//YAi+r8WvhfeX6z8u1G45DdjvD6YSifGnKdnbHV02v3+65n0AetmzutF+3iXe+D89fA3k+x4P6SBXlyzLMafNs15zPVyShuVlL0MvJ244F4Bp+Of9+/f/qdcwtzho5kdu2n1BNR7v35CZtzl2eXFtv9+PPfaYyeCVg+GkY76E5DHhGy6NFgIoh4/pZy/xKTVcc8c3vuMpNiEZ0JuJJpTG19mul5KQvQIOfHWwnydo197KfEXx+tLMclvg7UIS8AbIQICflJFWG4cALZfkY+onVHXZvxgJgC3TtQjZcHcf+XSemOtMvp/rJO+9QrBr8RP41FYEyAxJFcDyQhIwx2TAxd1lMgYC8sOcf4QLAVo6Dr6+EZ3iS6+ACS0okBm/v7d+4TgWM6l1FLLh47hFd6g8AlhKSAIAAAAAAJZM6R8LAwAAAACAtwVJAAAAAADAkkESAAAAAACwZJAEAAAAAAAsGSQBAAAAAABLBkkAAAAAAMBSIfr/AZr67ziUr4tPAAAAAElFTkSuQmCC;" vertex="1" parent="1">
                    <mxGeometry x="730" width="769" height="318" as="geometry"/>
                </mxCell>
            </root>
        </mxGraphModel>
    </diagram>
</mxfile>